G04 #@! TF.GenerationSoftware,KiCad,Pcbnew,5.0.2-5.0.2*
G04 #@! TF.CreationDate,2019-05-06T09:06:14+02:00*
G04 #@! TF.ProjectId,MiniMeter-B1,4d696e69-4d65-4746-9572-2d42312e6b69,2.1*
G04 #@! TF.SameCoordinates,PX7cbd980PY75aef40*
G04 #@! TF.FileFunction,Copper,L2,Bot*
G04 #@! TF.FilePolarity,Positive*
%FSLAX46Y46*%
G04 Gerber Fmt 4.6, Leading zero omitted, Abs format (unit mm)*
G04 Created by KiCad (PCBNEW 5.0.2-5.0.2) date Mon 06 May 2019 09:06:14 CEST*
%MOMM*%
%LPD*%
G01*
G04 APERTURE LIST*
G04 #@! TA.AperFunction,ComponentPad*
%ADD10C,2.000000*%
G04 #@! TD*
G04 #@! TA.AperFunction,SMDPad,CuDef*
%ADD11O,1.400000X3.000000*%
G04 #@! TD*
G04 #@! TA.AperFunction,SMDPad,CuDef*
%ADD12C,1.200000*%
G04 #@! TD*
G04 #@! TA.AperFunction,Conductor*
%ADD13C,0.150000*%
G04 #@! TD*
G04 #@! TA.AperFunction,SMDPad,CuDef*
%ADD14C,1.600000*%
G04 #@! TD*
G04 #@! TA.AperFunction,ComponentPad*
%ADD15O,2.500000X2.500000*%
G04 #@! TD*
G04 #@! TA.AperFunction,SMDPad,CuDef*
%ADD16O,0.600000X1.600000*%
G04 #@! TD*
G04 #@! TA.AperFunction,SMDPad,CuDef*
%ADD17O,1.600000X0.600000*%
G04 #@! TD*
G04 #@! TA.AperFunction,ViaPad*
%ADD18C,1.600000*%
G04 #@! TD*
G04 #@! TA.AperFunction,Conductor*
%ADD19C,1.000000*%
G04 #@! TD*
G04 #@! TA.AperFunction,Conductor*
%ADD20C,0.600000*%
G04 #@! TD*
G04 #@! TA.AperFunction,Conductor*
%ADD21C,1.600000*%
G04 #@! TD*
G04 #@! TA.AperFunction,Conductor*
%ADD22C,0.400000*%
G04 #@! TD*
G04 APERTURE END LIST*
D10*
G04 #@! TO.P,Z3,3*
G04 #@! TO.N,GND*
X33030000Y6560000D03*
G04 #@! TO.P,Z3,2*
G04 #@! TO.N,Net-(R11-Pad1)*
X33030000Y9100000D03*
G04 #@! TO.P,Z3,1*
G04 #@! TO.N,Net-(R12-Pad2)*
X33030000Y11640000D03*
G04 #@! TD*
D11*
G04 #@! TO.P,LCD1,3*
G04 #@! TO.N,GND*
X3400000Y36900000D03*
X3400000Y17200000D03*
X39800000Y17200000D03*
X39800000Y36900000D03*
G04 #@! TD*
D12*
G04 #@! TO.P,D1,2*
G04 #@! TO.N,GND*
X7630000Y20525000D03*
D13*
G04 #@! TD*
G04 #@! TO.N,GND*
G04 #@! TO.C,D1*
G36*
X7030000Y19925000D02*
X7030000Y20725000D01*
X7030482Y20725482D01*
X7030482Y20744627D01*
X7034329Y20783692D01*
X7041987Y20822192D01*
X7053382Y20859756D01*
X7068404Y20896022D01*
X7086909Y20930641D01*
X7108717Y20963280D01*
X7133620Y20993624D01*
X7161376Y21021380D01*
X7191720Y21046283D01*
X7224359Y21068091D01*
X7258978Y21086596D01*
X7295244Y21101618D01*
X7332808Y21113013D01*
X7371308Y21120671D01*
X7410373Y21124518D01*
X7429518Y21124518D01*
X7430000Y21125000D01*
X7830000Y21125000D01*
X7830482Y21124518D01*
X7849627Y21124518D01*
X7888692Y21120671D01*
X7927192Y21113013D01*
X7964756Y21101618D01*
X8001022Y21086596D01*
X8035641Y21068091D01*
X8068280Y21046283D01*
X8098624Y21021380D01*
X8126380Y20993624D01*
X8151283Y20963280D01*
X8173091Y20930641D01*
X8191596Y20896022D01*
X8206618Y20859756D01*
X8218013Y20822192D01*
X8225671Y20783692D01*
X8229518Y20744627D01*
X8229518Y20725482D01*
X8230000Y20725000D01*
X8230000Y19925000D01*
X7030000Y19925000D01*
X7030000Y19925000D01*
G37*
D12*
G04 #@! TO.P,D1,1*
G04 #@! TO.N,Net-(C1-Pad1)*
X7630000Y16725000D03*
D13*
G04 #@! TD*
G04 #@! TO.N,Net-(C1-Pad1)*
G04 #@! TO.C,D1*
G36*
X8230000Y17325000D02*
X8230000Y16525000D01*
X8229518Y16524518D01*
X8229518Y16505373D01*
X8225671Y16466308D01*
X8218013Y16427808D01*
X8206618Y16390244D01*
X8191596Y16353978D01*
X8173091Y16319359D01*
X8151283Y16286720D01*
X8126380Y16256376D01*
X8098624Y16228620D01*
X8068280Y16203717D01*
X8035641Y16181909D01*
X8001022Y16163404D01*
X7964756Y16148382D01*
X7927192Y16136987D01*
X7888692Y16129329D01*
X7849627Y16125482D01*
X7830482Y16125482D01*
X7830000Y16125000D01*
X7430000Y16125000D01*
X7429518Y16125482D01*
X7410373Y16125482D01*
X7371308Y16129329D01*
X7332808Y16136987D01*
X7295244Y16148382D01*
X7258978Y16163404D01*
X7224359Y16181909D01*
X7191720Y16203717D01*
X7161376Y16228620D01*
X7133620Y16256376D01*
X7108717Y16286720D01*
X7086909Y16319359D01*
X7068404Y16353978D01*
X7053382Y16390244D01*
X7041987Y16427808D01*
X7034329Y16466308D01*
X7030482Y16505373D01*
X7030482Y16524518D01*
X7030000Y16525000D01*
X7030000Y17325000D01*
X8230000Y17325000D01*
X8230000Y17325000D01*
G37*
D14*
G04 #@! TO.P,R1,2*
G04 #@! TO.N,/I-*
X23400000Y41485000D03*
D13*
G04 #@! TD*
G04 #@! TO.N,/I-*
G04 #@! TO.C,R1*
G36*
X22600000Y42285000D02*
X23800000Y42285000D01*
X23800482Y42284518D01*
X23819627Y42284518D01*
X23858692Y42280671D01*
X23897192Y42273013D01*
X23934756Y42261618D01*
X23971022Y42246596D01*
X24005641Y42228091D01*
X24038280Y42206283D01*
X24068624Y42181380D01*
X24096380Y42153624D01*
X24121283Y42123280D01*
X24143091Y42090641D01*
X24161596Y42056022D01*
X24176618Y42019756D01*
X24188013Y41982192D01*
X24195671Y41943692D01*
X24199518Y41904627D01*
X24199518Y41885482D01*
X24200000Y41885000D01*
X24200000Y41085000D01*
X24199518Y41084518D01*
X24199518Y41065373D01*
X24195671Y41026308D01*
X24188013Y40987808D01*
X24176618Y40950244D01*
X24161596Y40913978D01*
X24143091Y40879359D01*
X24121283Y40846720D01*
X24096380Y40816376D01*
X24068624Y40788620D01*
X24038280Y40763717D01*
X24005641Y40741909D01*
X23971022Y40723404D01*
X23934756Y40708382D01*
X23897192Y40696987D01*
X23858692Y40689329D01*
X23819627Y40685482D01*
X23800482Y40685482D01*
X23800000Y40685000D01*
X22600000Y40685000D01*
X22600000Y42285000D01*
X22600000Y42285000D01*
G37*
D14*
G04 #@! TO.P,R1,1*
G04 #@! TO.N,/I+*
X19800000Y41485000D03*
D13*
G04 #@! TD*
G04 #@! TO.N,/I+*
G04 #@! TO.C,R1*
G36*
X20600000Y40685000D02*
X19400000Y40685000D01*
X19399518Y40685482D01*
X19380373Y40685482D01*
X19341308Y40689329D01*
X19302808Y40696987D01*
X19265244Y40708382D01*
X19228978Y40723404D01*
X19194359Y40741909D01*
X19161720Y40763717D01*
X19131376Y40788620D01*
X19103620Y40816376D01*
X19078717Y40846720D01*
X19056909Y40879359D01*
X19038404Y40913978D01*
X19023382Y40950244D01*
X19011987Y40987808D01*
X19004329Y41026308D01*
X19000482Y41065373D01*
X19000482Y41084518D01*
X19000000Y41085000D01*
X19000000Y41885000D01*
X19000482Y41885482D01*
X19000482Y41904627D01*
X19004329Y41943692D01*
X19011987Y41982192D01*
X19023382Y42019756D01*
X19038404Y42056022D01*
X19056909Y42090641D01*
X19078717Y42123280D01*
X19103620Y42153624D01*
X19131376Y42181380D01*
X19161720Y42206283D01*
X19194359Y42228091D01*
X19228978Y42246596D01*
X19265244Y42261618D01*
X19302808Y42273013D01*
X19341308Y42280671D01*
X19380373Y42284518D01*
X19399518Y42284518D01*
X19400000Y42285000D01*
X20600000Y42285000D01*
X20600000Y40685000D01*
X20600000Y40685000D01*
G37*
D12*
G04 #@! TO.P,D12,2*
G04 #@! TO.N,IREF*
X20330000Y28855000D03*
D13*
G04 #@! TD*
G04 #@! TO.N,IREF*
G04 #@! TO.C,D12*
G36*
X20930000Y29455000D02*
X20930000Y28655000D01*
X20929518Y28654518D01*
X20929518Y28635373D01*
X20925671Y28596308D01*
X20918013Y28557808D01*
X20906618Y28520244D01*
X20891596Y28483978D01*
X20873091Y28449359D01*
X20851283Y28416720D01*
X20826380Y28386376D01*
X20798624Y28358620D01*
X20768280Y28333717D01*
X20735641Y28311909D01*
X20701022Y28293404D01*
X20664756Y28278382D01*
X20627192Y28266987D01*
X20588692Y28259329D01*
X20549627Y28255482D01*
X20530482Y28255482D01*
X20530000Y28255000D01*
X20130000Y28255000D01*
X20129518Y28255482D01*
X20110373Y28255482D01*
X20071308Y28259329D01*
X20032808Y28266987D01*
X19995244Y28278382D01*
X19958978Y28293404D01*
X19924359Y28311909D01*
X19891720Y28333717D01*
X19861376Y28358620D01*
X19833620Y28386376D01*
X19808717Y28416720D01*
X19786909Y28449359D01*
X19768404Y28483978D01*
X19753382Y28520244D01*
X19741987Y28557808D01*
X19734329Y28596308D01*
X19730482Y28635373D01*
X19730482Y28654518D01*
X19730000Y28655000D01*
X19730000Y29455000D01*
X20930000Y29455000D01*
X20930000Y29455000D01*
G37*
D12*
G04 #@! TO.P,D12,1*
G04 #@! TO.N,GND*
X20330000Y31255000D03*
D13*
G04 #@! TD*
G04 #@! TO.N,GND*
G04 #@! TO.C,D12*
G36*
X19730000Y30655000D02*
X19730000Y31455000D01*
X19730482Y31455482D01*
X19730482Y31474627D01*
X19734329Y31513692D01*
X19741987Y31552192D01*
X19753382Y31589756D01*
X19768404Y31626022D01*
X19786909Y31660641D01*
X19808717Y31693280D01*
X19833620Y31723624D01*
X19861376Y31751380D01*
X19891720Y31776283D01*
X19924359Y31798091D01*
X19958978Y31816596D01*
X19995244Y31831618D01*
X20032808Y31843013D01*
X20071308Y31850671D01*
X20110373Y31854518D01*
X20129518Y31854518D01*
X20130000Y31855000D01*
X20530000Y31855000D01*
X20530482Y31854518D01*
X20549627Y31854518D01*
X20588692Y31850671D01*
X20627192Y31843013D01*
X20664756Y31831618D01*
X20701022Y31816596D01*
X20735641Y31798091D01*
X20768280Y31776283D01*
X20798624Y31751380D01*
X20826380Y31723624D01*
X20851283Y31693280D01*
X20873091Y31660641D01*
X20891596Y31626022D01*
X20906618Y31589756D01*
X20918013Y31552192D01*
X20925671Y31513692D01*
X20929518Y31474627D01*
X20929518Y31455482D01*
X20930000Y31455000D01*
X20930000Y30655000D01*
X19730000Y30655000D01*
X19730000Y30655000D01*
G37*
D12*
G04 #@! TO.P,D2,2*
G04 #@! TO.N,GND*
X35570000Y31395000D03*
D13*
G04 #@! TD*
G04 #@! TO.N,GND*
G04 #@! TO.C,D2*
G36*
X36170000Y31995000D02*
X36170000Y31195000D01*
X36169518Y31194518D01*
X36169518Y31175373D01*
X36165671Y31136308D01*
X36158013Y31097808D01*
X36146618Y31060244D01*
X36131596Y31023978D01*
X36113091Y30989359D01*
X36091283Y30956720D01*
X36066380Y30926376D01*
X36038624Y30898620D01*
X36008280Y30873717D01*
X35975641Y30851909D01*
X35941022Y30833404D01*
X35904756Y30818382D01*
X35867192Y30806987D01*
X35828692Y30799329D01*
X35789627Y30795482D01*
X35770482Y30795482D01*
X35770000Y30795000D01*
X35370000Y30795000D01*
X35369518Y30795482D01*
X35350373Y30795482D01*
X35311308Y30799329D01*
X35272808Y30806987D01*
X35235244Y30818382D01*
X35198978Y30833404D01*
X35164359Y30851909D01*
X35131720Y30873717D01*
X35101376Y30898620D01*
X35073620Y30926376D01*
X35048717Y30956720D01*
X35026909Y30989359D01*
X35008404Y31023978D01*
X34993382Y31060244D01*
X34981987Y31097808D01*
X34974329Y31136308D01*
X34970482Y31175373D01*
X34970482Y31194518D01*
X34970000Y31195000D01*
X34970000Y31995000D01*
X36170000Y31995000D01*
X36170000Y31995000D01*
G37*
D12*
G04 #@! TO.P,D2,1*
G04 #@! TO.N,RxD*
X35570000Y33795000D03*
D13*
G04 #@! TD*
G04 #@! TO.N,RxD*
G04 #@! TO.C,D2*
G36*
X34970000Y33195000D02*
X34970000Y33995000D01*
X34970482Y33995482D01*
X34970482Y34014627D01*
X34974329Y34053692D01*
X34981987Y34092192D01*
X34993382Y34129756D01*
X35008404Y34166022D01*
X35026909Y34200641D01*
X35048717Y34233280D01*
X35073620Y34263624D01*
X35101376Y34291380D01*
X35131720Y34316283D01*
X35164359Y34338091D01*
X35198978Y34356596D01*
X35235244Y34371618D01*
X35272808Y34383013D01*
X35311308Y34390671D01*
X35350373Y34394518D01*
X35369518Y34394518D01*
X35370000Y34395000D01*
X35770000Y34395000D01*
X35770482Y34394518D01*
X35789627Y34394518D01*
X35828692Y34390671D01*
X35867192Y34383013D01*
X35904756Y34371618D01*
X35941022Y34356596D01*
X35975641Y34338091D01*
X36008280Y34316283D01*
X36038624Y34291380D01*
X36066380Y34263624D01*
X36091283Y34233280D01*
X36113091Y34200641D01*
X36131596Y34166022D01*
X36146618Y34129756D01*
X36158013Y34092192D01*
X36165671Y34053692D01*
X36169518Y34014627D01*
X36169518Y33995482D01*
X36170000Y33995000D01*
X36170000Y33195000D01*
X34970000Y33195000D01*
X34970000Y33195000D01*
G37*
D12*
G04 #@! TO.P,D5,2*
G04 #@! TO.N,GND*
X33030000Y31395000D03*
D13*
G04 #@! TD*
G04 #@! TO.N,GND*
G04 #@! TO.C,D5*
G36*
X33630000Y31995000D02*
X33630000Y31195000D01*
X33629518Y31194518D01*
X33629518Y31175373D01*
X33625671Y31136308D01*
X33618013Y31097808D01*
X33606618Y31060244D01*
X33591596Y31023978D01*
X33573091Y30989359D01*
X33551283Y30956720D01*
X33526380Y30926376D01*
X33498624Y30898620D01*
X33468280Y30873717D01*
X33435641Y30851909D01*
X33401022Y30833404D01*
X33364756Y30818382D01*
X33327192Y30806987D01*
X33288692Y30799329D01*
X33249627Y30795482D01*
X33230482Y30795482D01*
X33230000Y30795000D01*
X32830000Y30795000D01*
X32829518Y30795482D01*
X32810373Y30795482D01*
X32771308Y30799329D01*
X32732808Y30806987D01*
X32695244Y30818382D01*
X32658978Y30833404D01*
X32624359Y30851909D01*
X32591720Y30873717D01*
X32561376Y30898620D01*
X32533620Y30926376D01*
X32508717Y30956720D01*
X32486909Y30989359D01*
X32468404Y31023978D01*
X32453382Y31060244D01*
X32441987Y31097808D01*
X32434329Y31136308D01*
X32430482Y31175373D01*
X32430482Y31194518D01*
X32430000Y31195000D01*
X32430000Y31995000D01*
X33630000Y31995000D01*
X33630000Y31995000D01*
G37*
D12*
G04 #@! TO.P,D5,1*
G04 #@! TO.N,TxD*
X33030000Y33795000D03*
D13*
G04 #@! TD*
G04 #@! TO.N,TxD*
G04 #@! TO.C,D5*
G36*
X32430000Y33195000D02*
X32430000Y33995000D01*
X32430482Y33995482D01*
X32430482Y34014627D01*
X32434329Y34053692D01*
X32441987Y34092192D01*
X32453382Y34129756D01*
X32468404Y34166022D01*
X32486909Y34200641D01*
X32508717Y34233280D01*
X32533620Y34263624D01*
X32561376Y34291380D01*
X32591720Y34316283D01*
X32624359Y34338091D01*
X32658978Y34356596D01*
X32695244Y34371618D01*
X32732808Y34383013D01*
X32771308Y34390671D01*
X32810373Y34394518D01*
X32829518Y34394518D01*
X32830000Y34395000D01*
X33230000Y34395000D01*
X33230482Y34394518D01*
X33249627Y34394518D01*
X33288692Y34390671D01*
X33327192Y34383013D01*
X33364756Y34371618D01*
X33401022Y34356596D01*
X33435641Y34338091D01*
X33468280Y34316283D01*
X33498624Y34291380D01*
X33526380Y34263624D01*
X33551283Y34233280D01*
X33573091Y34200641D01*
X33591596Y34166022D01*
X33606618Y34129756D01*
X33618013Y34092192D01*
X33625671Y34053692D01*
X33629518Y34014627D01*
X33629518Y33995482D01*
X33630000Y33995000D01*
X33630000Y33195000D01*
X32430000Y33195000D01*
X32430000Y33195000D01*
G37*
D12*
G04 #@! TO.P,D3,2*
G04 #@! TO.N,GND*
X10170000Y31395000D03*
D13*
G04 #@! TD*
G04 #@! TO.N,GND*
G04 #@! TO.C,D3*
G36*
X10770000Y31995000D02*
X10770000Y31195000D01*
X10769518Y31194518D01*
X10769518Y31175373D01*
X10765671Y31136308D01*
X10758013Y31097808D01*
X10746618Y31060244D01*
X10731596Y31023978D01*
X10713091Y30989359D01*
X10691283Y30956720D01*
X10666380Y30926376D01*
X10638624Y30898620D01*
X10608280Y30873717D01*
X10575641Y30851909D01*
X10541022Y30833404D01*
X10504756Y30818382D01*
X10467192Y30806987D01*
X10428692Y30799329D01*
X10389627Y30795482D01*
X10370482Y30795482D01*
X10370000Y30795000D01*
X9970000Y30795000D01*
X9969518Y30795482D01*
X9950373Y30795482D01*
X9911308Y30799329D01*
X9872808Y30806987D01*
X9835244Y30818382D01*
X9798978Y30833404D01*
X9764359Y30851909D01*
X9731720Y30873717D01*
X9701376Y30898620D01*
X9673620Y30926376D01*
X9648717Y30956720D01*
X9626909Y30989359D01*
X9608404Y31023978D01*
X9593382Y31060244D01*
X9581987Y31097808D01*
X9574329Y31136308D01*
X9570482Y31175373D01*
X9570482Y31194518D01*
X9570000Y31195000D01*
X9570000Y31995000D01*
X10770000Y31995000D01*
X10770000Y31995000D01*
G37*
D12*
G04 #@! TO.P,D3,1*
G04 #@! TO.N,SDA*
X10170000Y33795000D03*
D13*
G04 #@! TD*
G04 #@! TO.N,SDA*
G04 #@! TO.C,D3*
G36*
X9570000Y33195000D02*
X9570000Y33995000D01*
X9570482Y33995482D01*
X9570482Y34014627D01*
X9574329Y34053692D01*
X9581987Y34092192D01*
X9593382Y34129756D01*
X9608404Y34166022D01*
X9626909Y34200641D01*
X9648717Y34233280D01*
X9673620Y34263624D01*
X9701376Y34291380D01*
X9731720Y34316283D01*
X9764359Y34338091D01*
X9798978Y34356596D01*
X9835244Y34371618D01*
X9872808Y34383013D01*
X9911308Y34390671D01*
X9950373Y34394518D01*
X9969518Y34394518D01*
X9970000Y34395000D01*
X10370000Y34395000D01*
X10370482Y34394518D01*
X10389627Y34394518D01*
X10428692Y34390671D01*
X10467192Y34383013D01*
X10504756Y34371618D01*
X10541022Y34356596D01*
X10575641Y34338091D01*
X10608280Y34316283D01*
X10638624Y34291380D01*
X10666380Y34263624D01*
X10691283Y34233280D01*
X10713091Y34200641D01*
X10731596Y34166022D01*
X10746618Y34129756D01*
X10758013Y34092192D01*
X10765671Y34053692D01*
X10769518Y34014627D01*
X10769518Y33995482D01*
X10770000Y33995000D01*
X10770000Y33195000D01*
X9570000Y33195000D01*
X9570000Y33195000D01*
G37*
D12*
G04 #@! TO.P,D4,2*
G04 #@! TO.N,GND*
X7630000Y31395000D03*
D13*
G04 #@! TD*
G04 #@! TO.N,GND*
G04 #@! TO.C,D4*
G36*
X8230000Y31995000D02*
X8230000Y31195000D01*
X8229518Y31194518D01*
X8229518Y31175373D01*
X8225671Y31136308D01*
X8218013Y31097808D01*
X8206618Y31060244D01*
X8191596Y31023978D01*
X8173091Y30989359D01*
X8151283Y30956720D01*
X8126380Y30926376D01*
X8098624Y30898620D01*
X8068280Y30873717D01*
X8035641Y30851909D01*
X8001022Y30833404D01*
X7964756Y30818382D01*
X7927192Y30806987D01*
X7888692Y30799329D01*
X7849627Y30795482D01*
X7830482Y30795482D01*
X7830000Y30795000D01*
X7430000Y30795000D01*
X7429518Y30795482D01*
X7410373Y30795482D01*
X7371308Y30799329D01*
X7332808Y30806987D01*
X7295244Y30818382D01*
X7258978Y30833404D01*
X7224359Y30851909D01*
X7191720Y30873717D01*
X7161376Y30898620D01*
X7133620Y30926376D01*
X7108717Y30956720D01*
X7086909Y30989359D01*
X7068404Y31023978D01*
X7053382Y31060244D01*
X7041987Y31097808D01*
X7034329Y31136308D01*
X7030482Y31175373D01*
X7030482Y31194518D01*
X7030000Y31195000D01*
X7030000Y31995000D01*
X8230000Y31995000D01*
X8230000Y31995000D01*
G37*
D12*
G04 #@! TO.P,D4,1*
G04 #@! TO.N,SCL*
X7630000Y33795000D03*
D13*
G04 #@! TD*
G04 #@! TO.N,SCL*
G04 #@! TO.C,D4*
G36*
X7030000Y33195000D02*
X7030000Y33995000D01*
X7030482Y33995482D01*
X7030482Y34014627D01*
X7034329Y34053692D01*
X7041987Y34092192D01*
X7053382Y34129756D01*
X7068404Y34166022D01*
X7086909Y34200641D01*
X7108717Y34233280D01*
X7133620Y34263624D01*
X7161376Y34291380D01*
X7191720Y34316283D01*
X7224359Y34338091D01*
X7258978Y34356596D01*
X7295244Y34371618D01*
X7332808Y34383013D01*
X7371308Y34390671D01*
X7410373Y34394518D01*
X7429518Y34394518D01*
X7430000Y34395000D01*
X7830000Y34395000D01*
X7830482Y34394518D01*
X7849627Y34394518D01*
X7888692Y34390671D01*
X7927192Y34383013D01*
X7964756Y34371618D01*
X8001022Y34356596D01*
X8035641Y34338091D01*
X8068280Y34316283D01*
X8098624Y34291380D01*
X8126380Y34263624D01*
X8151283Y34233280D01*
X8173091Y34200641D01*
X8191596Y34166022D01*
X8206618Y34129756D01*
X8218013Y34092192D01*
X8225671Y34053692D01*
X8229518Y34014627D01*
X8229518Y33995482D01*
X8230000Y33995000D01*
X8230000Y33195000D01*
X7030000Y33195000D01*
X7030000Y33195000D01*
G37*
D12*
G04 #@! TO.P,C7,2*
G04 #@! TO.N,GND*
X12710000Y11710000D03*
D13*
G04 #@! TD*
G04 #@! TO.N,GND*
G04 #@! TO.C,C7*
G36*
X13310000Y12310000D02*
X13310000Y11510000D01*
X13309518Y11509518D01*
X13309518Y11490373D01*
X13305671Y11451308D01*
X13298013Y11412808D01*
X13286618Y11375244D01*
X13271596Y11338978D01*
X13253091Y11304359D01*
X13231283Y11271720D01*
X13206380Y11241376D01*
X13178624Y11213620D01*
X13148280Y11188717D01*
X13115641Y11166909D01*
X13081022Y11148404D01*
X13044756Y11133382D01*
X13007192Y11121987D01*
X12968692Y11114329D01*
X12929627Y11110482D01*
X12910482Y11110482D01*
X12910000Y11110000D01*
X12510000Y11110000D01*
X12509518Y11110482D01*
X12490373Y11110482D01*
X12451308Y11114329D01*
X12412808Y11121987D01*
X12375244Y11133382D01*
X12338978Y11148404D01*
X12304359Y11166909D01*
X12271720Y11188717D01*
X12241376Y11213620D01*
X12213620Y11241376D01*
X12188717Y11271720D01*
X12166909Y11304359D01*
X12148404Y11338978D01*
X12133382Y11375244D01*
X12121987Y11412808D01*
X12114329Y11451308D01*
X12110482Y11490373D01*
X12110482Y11509518D01*
X12110000Y11510000D01*
X12110000Y12310000D01*
X13310000Y12310000D01*
X13310000Y12310000D01*
G37*
D12*
G04 #@! TO.P,C7,1*
G04 #@! TO.N,VCC*
X12710000Y14110000D03*
D13*
G04 #@! TD*
G04 #@! TO.N,VCC*
G04 #@! TO.C,C7*
G36*
X12110000Y13510000D02*
X12110000Y14310000D01*
X12110482Y14310482D01*
X12110482Y14329627D01*
X12114329Y14368692D01*
X12121987Y14407192D01*
X12133382Y14444756D01*
X12148404Y14481022D01*
X12166909Y14515641D01*
X12188717Y14548280D01*
X12213620Y14578624D01*
X12241376Y14606380D01*
X12271720Y14631283D01*
X12304359Y14653091D01*
X12338978Y14671596D01*
X12375244Y14686618D01*
X12412808Y14698013D01*
X12451308Y14705671D01*
X12490373Y14709518D01*
X12509518Y14709518D01*
X12510000Y14710000D01*
X12910000Y14710000D01*
X12910482Y14709518D01*
X12929627Y14709518D01*
X12968692Y14705671D01*
X13007192Y14698013D01*
X13044756Y14686618D01*
X13081022Y14671596D01*
X13115641Y14653091D01*
X13148280Y14631283D01*
X13178624Y14606380D01*
X13206380Y14578624D01*
X13231283Y14548280D01*
X13253091Y14515641D01*
X13271596Y14481022D01*
X13286618Y14444756D01*
X13298013Y14407192D01*
X13305671Y14368692D01*
X13309518Y14329627D01*
X13309518Y14310482D01*
X13310000Y14310000D01*
X13310000Y13510000D01*
X12110000Y13510000D01*
X12110000Y13510000D01*
G37*
D12*
G04 #@! TO.P,C3,2*
G04 #@! TO.N,GND*
X12710000Y9030000D03*
D13*
G04 #@! TD*
G04 #@! TO.N,GND*
G04 #@! TO.C,C3*
G36*
X12110000Y8430000D02*
X12110000Y9230000D01*
X12110482Y9230482D01*
X12110482Y9249627D01*
X12114329Y9288692D01*
X12121987Y9327192D01*
X12133382Y9364756D01*
X12148404Y9401022D01*
X12166909Y9435641D01*
X12188717Y9468280D01*
X12213620Y9498624D01*
X12241376Y9526380D01*
X12271720Y9551283D01*
X12304359Y9573091D01*
X12338978Y9591596D01*
X12375244Y9606618D01*
X12412808Y9618013D01*
X12451308Y9625671D01*
X12490373Y9629518D01*
X12509518Y9629518D01*
X12510000Y9630000D01*
X12910000Y9630000D01*
X12910482Y9629518D01*
X12929627Y9629518D01*
X12968692Y9625671D01*
X13007192Y9618013D01*
X13044756Y9606618D01*
X13081022Y9591596D01*
X13115641Y9573091D01*
X13148280Y9551283D01*
X13178624Y9526380D01*
X13206380Y9498624D01*
X13231283Y9468280D01*
X13253091Y9435641D01*
X13271596Y9401022D01*
X13286618Y9364756D01*
X13298013Y9327192D01*
X13305671Y9288692D01*
X13309518Y9249627D01*
X13309518Y9230482D01*
X13310000Y9230000D01*
X13310000Y8430000D01*
X12110000Y8430000D01*
X12110000Y8430000D01*
G37*
D12*
G04 #@! TO.P,C3,1*
G04 #@! TO.N,Net-(C3-Pad1)*
X12710000Y6630000D03*
D13*
G04 #@! TD*
G04 #@! TO.N,Net-(C3-Pad1)*
G04 #@! TO.C,C3*
G36*
X13310000Y7230000D02*
X13310000Y6430000D01*
X13309518Y6429518D01*
X13309518Y6410373D01*
X13305671Y6371308D01*
X13298013Y6332808D01*
X13286618Y6295244D01*
X13271596Y6258978D01*
X13253091Y6224359D01*
X13231283Y6191720D01*
X13206380Y6161376D01*
X13178624Y6133620D01*
X13148280Y6108717D01*
X13115641Y6086909D01*
X13081022Y6068404D01*
X13044756Y6053382D01*
X13007192Y6041987D01*
X12968692Y6034329D01*
X12929627Y6030482D01*
X12910482Y6030482D01*
X12910000Y6030000D01*
X12510000Y6030000D01*
X12509518Y6030482D01*
X12490373Y6030482D01*
X12451308Y6034329D01*
X12412808Y6041987D01*
X12375244Y6053382D01*
X12338978Y6068404D01*
X12304359Y6086909D01*
X12271720Y6108717D01*
X12241376Y6133620D01*
X12213620Y6161376D01*
X12188717Y6191720D01*
X12166909Y6224359D01*
X12148404Y6258978D01*
X12133382Y6295244D01*
X12121987Y6332808D01*
X12114329Y6371308D01*
X12110482Y6410373D01*
X12110482Y6429518D01*
X12110000Y6430000D01*
X12110000Y7230000D01*
X13310000Y7230000D01*
X13310000Y7230000D01*
G37*
D12*
G04 #@! TO.P,C2,2*
G04 #@! TO.N,GND*
X10100000Y14180000D03*
D13*
G04 #@! TD*
G04 #@! TO.N,GND*
G04 #@! TO.C,C2*
G36*
X9500000Y14780000D02*
X10300000Y14780000D01*
X10300482Y14779518D01*
X10319627Y14779518D01*
X10358692Y14775671D01*
X10397192Y14768013D01*
X10434756Y14756618D01*
X10471022Y14741596D01*
X10505641Y14723091D01*
X10538280Y14701283D01*
X10568624Y14676380D01*
X10596380Y14648624D01*
X10621283Y14618280D01*
X10643091Y14585641D01*
X10661596Y14551022D01*
X10676618Y14514756D01*
X10688013Y14477192D01*
X10695671Y14438692D01*
X10699518Y14399627D01*
X10699518Y14380482D01*
X10700000Y14380000D01*
X10700000Y13980000D01*
X10699518Y13979518D01*
X10699518Y13960373D01*
X10695671Y13921308D01*
X10688013Y13882808D01*
X10676618Y13845244D01*
X10661596Y13808978D01*
X10643091Y13774359D01*
X10621283Y13741720D01*
X10596380Y13711376D01*
X10568624Y13683620D01*
X10538280Y13658717D01*
X10505641Y13636909D01*
X10471022Y13618404D01*
X10434756Y13603382D01*
X10397192Y13591987D01*
X10358692Y13584329D01*
X10319627Y13580482D01*
X10300482Y13580482D01*
X10300000Y13580000D01*
X9500000Y13580000D01*
X9500000Y14780000D01*
X9500000Y14780000D01*
G37*
D12*
G04 #@! TO.P,C2,1*
G04 #@! TO.N,Net-(C1-Pad1)*
X7700000Y14180000D03*
D13*
G04 #@! TD*
G04 #@! TO.N,Net-(C1-Pad1)*
G04 #@! TO.C,C2*
G36*
X8300000Y13580000D02*
X7500000Y13580000D01*
X7499518Y13580482D01*
X7480373Y13580482D01*
X7441308Y13584329D01*
X7402808Y13591987D01*
X7365244Y13603382D01*
X7328978Y13618404D01*
X7294359Y13636909D01*
X7261720Y13658717D01*
X7231376Y13683620D01*
X7203620Y13711376D01*
X7178717Y13741720D01*
X7156909Y13774359D01*
X7138404Y13808978D01*
X7123382Y13845244D01*
X7111987Y13882808D01*
X7104329Y13921308D01*
X7100482Y13960373D01*
X7100482Y13979518D01*
X7100000Y13980000D01*
X7100000Y14380000D01*
X7100482Y14380482D01*
X7100482Y14399627D01*
X7104329Y14438692D01*
X7111987Y14477192D01*
X7123382Y14514756D01*
X7138404Y14551022D01*
X7156909Y14585641D01*
X7178717Y14618280D01*
X7203620Y14648624D01*
X7231376Y14676380D01*
X7261720Y14701283D01*
X7294359Y14723091D01*
X7328978Y14741596D01*
X7365244Y14756618D01*
X7402808Y14768013D01*
X7441308Y14775671D01*
X7480373Y14779518D01*
X7499518Y14779518D01*
X7500000Y14780000D01*
X8300000Y14780000D01*
X8300000Y13580000D01*
X8300000Y13580000D01*
G37*
D12*
G04 #@! TO.P,C1,2*
G04 #@! TO.N,GND*
X10100000Y11640000D03*
D13*
G04 #@! TD*
G04 #@! TO.N,GND*
G04 #@! TO.C,C1*
G36*
X9500000Y12240000D02*
X10300000Y12240000D01*
X10300482Y12239518D01*
X10319627Y12239518D01*
X10358692Y12235671D01*
X10397192Y12228013D01*
X10434756Y12216618D01*
X10471022Y12201596D01*
X10505641Y12183091D01*
X10538280Y12161283D01*
X10568624Y12136380D01*
X10596380Y12108624D01*
X10621283Y12078280D01*
X10643091Y12045641D01*
X10661596Y12011022D01*
X10676618Y11974756D01*
X10688013Y11937192D01*
X10695671Y11898692D01*
X10699518Y11859627D01*
X10699518Y11840482D01*
X10700000Y11840000D01*
X10700000Y11440000D01*
X10699518Y11439518D01*
X10699518Y11420373D01*
X10695671Y11381308D01*
X10688013Y11342808D01*
X10676618Y11305244D01*
X10661596Y11268978D01*
X10643091Y11234359D01*
X10621283Y11201720D01*
X10596380Y11171376D01*
X10568624Y11143620D01*
X10538280Y11118717D01*
X10505641Y11096909D01*
X10471022Y11078404D01*
X10434756Y11063382D01*
X10397192Y11051987D01*
X10358692Y11044329D01*
X10319627Y11040482D01*
X10300482Y11040482D01*
X10300000Y11040000D01*
X9500000Y11040000D01*
X9500000Y12240000D01*
X9500000Y12240000D01*
G37*
D12*
G04 #@! TO.P,C1,1*
G04 #@! TO.N,Net-(C1-Pad1)*
X7700000Y11640000D03*
D13*
G04 #@! TD*
G04 #@! TO.N,Net-(C1-Pad1)*
G04 #@! TO.C,C1*
G36*
X8300000Y11040000D02*
X7500000Y11040000D01*
X7499518Y11040482D01*
X7480373Y11040482D01*
X7441308Y11044329D01*
X7402808Y11051987D01*
X7365244Y11063382D01*
X7328978Y11078404D01*
X7294359Y11096909D01*
X7261720Y11118717D01*
X7231376Y11143620D01*
X7203620Y11171376D01*
X7178717Y11201720D01*
X7156909Y11234359D01*
X7138404Y11268978D01*
X7123382Y11305244D01*
X7111987Y11342808D01*
X7104329Y11381308D01*
X7100482Y11420373D01*
X7100482Y11439518D01*
X7100000Y11440000D01*
X7100000Y11840000D01*
X7100482Y11840482D01*
X7100482Y11859627D01*
X7104329Y11898692D01*
X7111987Y11937192D01*
X7123382Y11974756D01*
X7138404Y12011022D01*
X7156909Y12045641D01*
X7178717Y12078280D01*
X7203620Y12108624D01*
X7231376Y12136380D01*
X7261720Y12161283D01*
X7294359Y12183091D01*
X7328978Y12201596D01*
X7365244Y12216618D01*
X7402808Y12228013D01*
X7441308Y12235671D01*
X7480373Y12239518D01*
X7499518Y12239518D01*
X7500000Y12240000D01*
X8300000Y12240000D01*
X8300000Y11040000D01*
X8300000Y11040000D01*
G37*
D12*
G04 #@! TO.P,F1,2*
G04 #@! TO.N,Net-(C1-Pad1)*
X10240000Y16720000D03*
D13*
G04 #@! TD*
G04 #@! TO.N,Net-(C1-Pad1)*
G04 #@! TO.C,F1*
G36*
X10840000Y16120000D02*
X10040000Y16120000D01*
X10039518Y16120482D01*
X10020373Y16120482D01*
X9981308Y16124329D01*
X9942808Y16131987D01*
X9905244Y16143382D01*
X9868978Y16158404D01*
X9834359Y16176909D01*
X9801720Y16198717D01*
X9771376Y16223620D01*
X9743620Y16251376D01*
X9718717Y16281720D01*
X9696909Y16314359D01*
X9678404Y16348978D01*
X9663382Y16385244D01*
X9651987Y16422808D01*
X9644329Y16461308D01*
X9640482Y16500373D01*
X9640482Y16519518D01*
X9640000Y16520000D01*
X9640000Y16920000D01*
X9640482Y16920482D01*
X9640482Y16939627D01*
X9644329Y16978692D01*
X9651987Y17017192D01*
X9663382Y17054756D01*
X9678404Y17091022D01*
X9696909Y17125641D01*
X9718717Y17158280D01*
X9743620Y17188624D01*
X9771376Y17216380D01*
X9801720Y17241283D01*
X9834359Y17263091D01*
X9868978Y17281596D01*
X9905244Y17296618D01*
X9942808Y17308013D01*
X9981308Y17315671D01*
X10020373Y17319518D01*
X10039518Y17319518D01*
X10040000Y17320000D01*
X10840000Y17320000D01*
X10840000Y16120000D01*
X10840000Y16120000D01*
G37*
D12*
G04 #@! TO.P,F1,1*
G04 #@! TO.N,VIN*
X12640000Y16720000D03*
D13*
G04 #@! TD*
G04 #@! TO.N,VIN*
G04 #@! TO.C,F1*
G36*
X12040000Y17320000D02*
X12840000Y17320000D01*
X12840482Y17319518D01*
X12859627Y17319518D01*
X12898692Y17315671D01*
X12937192Y17308013D01*
X12974756Y17296618D01*
X13011022Y17281596D01*
X13045641Y17263091D01*
X13078280Y17241283D01*
X13108624Y17216380D01*
X13136380Y17188624D01*
X13161283Y17158280D01*
X13183091Y17125641D01*
X13201596Y17091022D01*
X13216618Y17054756D01*
X13228013Y17017192D01*
X13235671Y16978692D01*
X13239518Y16939627D01*
X13239518Y16920482D01*
X13240000Y16920000D01*
X13240000Y16520000D01*
X13239518Y16519518D01*
X13239518Y16500373D01*
X13235671Y16461308D01*
X13228013Y16422808D01*
X13216618Y16385244D01*
X13201596Y16348978D01*
X13183091Y16314359D01*
X13161283Y16281720D01*
X13136380Y16251376D01*
X13108624Y16223620D01*
X13078280Y16198717D01*
X13045641Y16176909D01*
X13011022Y16158404D01*
X12974756Y16143382D01*
X12937192Y16131987D01*
X12898692Y16124329D01*
X12859627Y16120482D01*
X12840482Y16120482D01*
X12840000Y16120000D01*
X12040000Y16120000D01*
X12040000Y17320000D01*
X12040000Y17320000D01*
G37*
D12*
G04 #@! TO.P,FB1,2*
G04 #@! TO.N,VCC*
X15250000Y9030000D03*
D13*
G04 #@! TD*
G04 #@! TO.N,VCC*
G04 #@! TO.C,FB1*
G36*
X14650000Y8430000D02*
X14650000Y9230000D01*
X14650482Y9230482D01*
X14650482Y9249627D01*
X14654329Y9288692D01*
X14661987Y9327192D01*
X14673382Y9364756D01*
X14688404Y9401022D01*
X14706909Y9435641D01*
X14728717Y9468280D01*
X14753620Y9498624D01*
X14781376Y9526380D01*
X14811720Y9551283D01*
X14844359Y9573091D01*
X14878978Y9591596D01*
X14915244Y9606618D01*
X14952808Y9618013D01*
X14991308Y9625671D01*
X15030373Y9629518D01*
X15049518Y9629518D01*
X15050000Y9630000D01*
X15450000Y9630000D01*
X15450482Y9629518D01*
X15469627Y9629518D01*
X15508692Y9625671D01*
X15547192Y9618013D01*
X15584756Y9606618D01*
X15621022Y9591596D01*
X15655641Y9573091D01*
X15688280Y9551283D01*
X15718624Y9526380D01*
X15746380Y9498624D01*
X15771283Y9468280D01*
X15793091Y9435641D01*
X15811596Y9401022D01*
X15826618Y9364756D01*
X15838013Y9327192D01*
X15845671Y9288692D01*
X15849518Y9249627D01*
X15849518Y9230482D01*
X15850000Y9230000D01*
X15850000Y8430000D01*
X14650000Y8430000D01*
X14650000Y8430000D01*
G37*
D12*
G04 #@! TO.P,FB1,1*
G04 #@! TO.N,Net-(C3-Pad1)*
X15250000Y6630000D03*
D13*
G04 #@! TD*
G04 #@! TO.N,Net-(C3-Pad1)*
G04 #@! TO.C,FB1*
G36*
X15850000Y7230000D02*
X15850000Y6430000D01*
X15849518Y6429518D01*
X15849518Y6410373D01*
X15845671Y6371308D01*
X15838013Y6332808D01*
X15826618Y6295244D01*
X15811596Y6258978D01*
X15793091Y6224359D01*
X15771283Y6191720D01*
X15746380Y6161376D01*
X15718624Y6133620D01*
X15688280Y6108717D01*
X15655641Y6086909D01*
X15621022Y6068404D01*
X15584756Y6053382D01*
X15547192Y6041987D01*
X15508692Y6034329D01*
X15469627Y6030482D01*
X15450482Y6030482D01*
X15450000Y6030000D01*
X15050000Y6030000D01*
X15049518Y6030482D01*
X15030373Y6030482D01*
X14991308Y6034329D01*
X14952808Y6041987D01*
X14915244Y6053382D01*
X14878978Y6068404D01*
X14844359Y6086909D01*
X14811720Y6108717D01*
X14781376Y6133620D01*
X14753620Y6161376D01*
X14728717Y6191720D01*
X14706909Y6224359D01*
X14688404Y6258978D01*
X14673382Y6295244D01*
X14661987Y6332808D01*
X14654329Y6371308D01*
X14650482Y6410373D01*
X14650482Y6429518D01*
X14650000Y6430000D01*
X14650000Y7230000D01*
X15850000Y7230000D01*
X15850000Y7230000D01*
G37*
D12*
G04 #@! TO.P,C9,2*
G04 #@! TO.N,GND*
X33100000Y20530000D03*
D13*
G04 #@! TD*
G04 #@! TO.N,GND*
G04 #@! TO.C,C9*
G36*
X33700000Y19930000D02*
X32900000Y19930000D01*
X32899518Y19930482D01*
X32880373Y19930482D01*
X32841308Y19934329D01*
X32802808Y19941987D01*
X32765244Y19953382D01*
X32728978Y19968404D01*
X32694359Y19986909D01*
X32661720Y20008717D01*
X32631376Y20033620D01*
X32603620Y20061376D01*
X32578717Y20091720D01*
X32556909Y20124359D01*
X32538404Y20158978D01*
X32523382Y20195244D01*
X32511987Y20232808D01*
X32504329Y20271308D01*
X32500482Y20310373D01*
X32500482Y20329518D01*
X32500000Y20330000D01*
X32500000Y20730000D01*
X32500482Y20730482D01*
X32500482Y20749627D01*
X32504329Y20788692D01*
X32511987Y20827192D01*
X32523382Y20864756D01*
X32538404Y20901022D01*
X32556909Y20935641D01*
X32578717Y20968280D01*
X32603620Y20998624D01*
X32631376Y21026380D01*
X32661720Y21051283D01*
X32694359Y21073091D01*
X32728978Y21091596D01*
X32765244Y21106618D01*
X32802808Y21118013D01*
X32841308Y21125671D01*
X32880373Y21129518D01*
X32899518Y21129518D01*
X32900000Y21130000D01*
X33700000Y21130000D01*
X33700000Y19930000D01*
X33700000Y19930000D01*
G37*
D12*
G04 #@! TO.P,C9,1*
G04 #@! TO.N,VCC*
X35500000Y20530000D03*
D13*
G04 #@! TD*
G04 #@! TO.N,VCC*
G04 #@! TO.C,C9*
G36*
X34900000Y21130000D02*
X35700000Y21130000D01*
X35700482Y21129518D01*
X35719627Y21129518D01*
X35758692Y21125671D01*
X35797192Y21118013D01*
X35834756Y21106618D01*
X35871022Y21091596D01*
X35905641Y21073091D01*
X35938280Y21051283D01*
X35968624Y21026380D01*
X35996380Y20998624D01*
X36021283Y20968280D01*
X36043091Y20935641D01*
X36061596Y20901022D01*
X36076618Y20864756D01*
X36088013Y20827192D01*
X36095671Y20788692D01*
X36099518Y20749627D01*
X36099518Y20730482D01*
X36100000Y20730000D01*
X36100000Y20330000D01*
X36099518Y20329518D01*
X36099518Y20310373D01*
X36095671Y20271308D01*
X36088013Y20232808D01*
X36076618Y20195244D01*
X36061596Y20158978D01*
X36043091Y20124359D01*
X36021283Y20091720D01*
X35996380Y20061376D01*
X35968624Y20033620D01*
X35938280Y20008717D01*
X35905641Y19986909D01*
X35871022Y19968404D01*
X35834756Y19953382D01*
X35797192Y19941987D01*
X35758692Y19934329D01*
X35719627Y19930482D01*
X35700482Y19930482D01*
X35700000Y19930000D01*
X34900000Y19930000D01*
X34900000Y21130000D01*
X34900000Y21130000D01*
G37*
D12*
G04 #@! TO.P,R11,2*
G04 #@! TO.N,VCC*
X27385000Y6560000D03*
D13*
G04 #@! TD*
G04 #@! TO.N,VCC*
G04 #@! TO.C,R11*
G36*
X27985000Y5960000D02*
X27185000Y5960000D01*
X27184518Y5960482D01*
X27165373Y5960482D01*
X27126308Y5964329D01*
X27087808Y5971987D01*
X27050244Y5983382D01*
X27013978Y5998404D01*
X26979359Y6016909D01*
X26946720Y6038717D01*
X26916376Y6063620D01*
X26888620Y6091376D01*
X26863717Y6121720D01*
X26841909Y6154359D01*
X26823404Y6188978D01*
X26808382Y6225244D01*
X26796987Y6262808D01*
X26789329Y6301308D01*
X26785482Y6340373D01*
X26785482Y6359518D01*
X26785000Y6360000D01*
X26785000Y6760000D01*
X26785482Y6760482D01*
X26785482Y6779627D01*
X26789329Y6818692D01*
X26796987Y6857192D01*
X26808382Y6894756D01*
X26823404Y6931022D01*
X26841909Y6965641D01*
X26863717Y6998280D01*
X26888620Y7028624D01*
X26916376Y7056380D01*
X26946720Y7081283D01*
X26979359Y7103091D01*
X27013978Y7121596D01*
X27050244Y7136618D01*
X27087808Y7148013D01*
X27126308Y7155671D01*
X27165373Y7159518D01*
X27184518Y7159518D01*
X27185000Y7160000D01*
X27985000Y7160000D01*
X27985000Y5960000D01*
X27985000Y5960000D01*
G37*
D12*
G04 #@! TO.P,R11,1*
G04 #@! TO.N,Net-(R11-Pad1)*
X29785000Y6560000D03*
D13*
G04 #@! TD*
G04 #@! TO.N,Net-(R11-Pad1)*
G04 #@! TO.C,R11*
G36*
X29185000Y7160000D02*
X29985000Y7160000D01*
X29985482Y7159518D01*
X30004627Y7159518D01*
X30043692Y7155671D01*
X30082192Y7148013D01*
X30119756Y7136618D01*
X30156022Y7121596D01*
X30190641Y7103091D01*
X30223280Y7081283D01*
X30253624Y7056380D01*
X30281380Y7028624D01*
X30306283Y6998280D01*
X30328091Y6965641D01*
X30346596Y6931022D01*
X30361618Y6894756D01*
X30373013Y6857192D01*
X30380671Y6818692D01*
X30384518Y6779627D01*
X30384518Y6760482D01*
X30385000Y6760000D01*
X30385000Y6360000D01*
X30384518Y6359518D01*
X30384518Y6340373D01*
X30380671Y6301308D01*
X30373013Y6262808D01*
X30361618Y6225244D01*
X30346596Y6188978D01*
X30328091Y6154359D01*
X30306283Y6121720D01*
X30281380Y6091376D01*
X30253624Y6063620D01*
X30223280Y6038717D01*
X30190641Y6016909D01*
X30156022Y5998404D01*
X30119756Y5983382D01*
X30082192Y5971987D01*
X30043692Y5964329D01*
X30004627Y5960482D01*
X29985482Y5960482D01*
X29985000Y5960000D01*
X29185000Y5960000D01*
X29185000Y7160000D01*
X29185000Y7160000D01*
G37*
D12*
G04 #@! TO.P,R13,2*
G04 #@! TO.N,/PDI_CLK*
X27385000Y9100000D03*
D13*
G04 #@! TD*
G04 #@! TO.N,/PDI_CLK*
G04 #@! TO.C,R13*
G36*
X27985000Y8500000D02*
X27185000Y8500000D01*
X27184518Y8500482D01*
X27165373Y8500482D01*
X27126308Y8504329D01*
X27087808Y8511987D01*
X27050244Y8523382D01*
X27013978Y8538404D01*
X26979359Y8556909D01*
X26946720Y8578717D01*
X26916376Y8603620D01*
X26888620Y8631376D01*
X26863717Y8661720D01*
X26841909Y8694359D01*
X26823404Y8728978D01*
X26808382Y8765244D01*
X26796987Y8802808D01*
X26789329Y8841308D01*
X26785482Y8880373D01*
X26785482Y8899518D01*
X26785000Y8900000D01*
X26785000Y9300000D01*
X26785482Y9300482D01*
X26785482Y9319627D01*
X26789329Y9358692D01*
X26796987Y9397192D01*
X26808382Y9434756D01*
X26823404Y9471022D01*
X26841909Y9505641D01*
X26863717Y9538280D01*
X26888620Y9568624D01*
X26916376Y9596380D01*
X26946720Y9621283D01*
X26979359Y9643091D01*
X27013978Y9661596D01*
X27050244Y9676618D01*
X27087808Y9688013D01*
X27126308Y9695671D01*
X27165373Y9699518D01*
X27184518Y9699518D01*
X27185000Y9700000D01*
X27985000Y9700000D01*
X27985000Y8500000D01*
X27985000Y8500000D01*
G37*
D12*
G04 #@! TO.P,R13,1*
G04 #@! TO.N,Net-(R11-Pad1)*
X29785000Y9100000D03*
D13*
G04 #@! TD*
G04 #@! TO.N,Net-(R11-Pad1)*
G04 #@! TO.C,R13*
G36*
X29185000Y9700000D02*
X29985000Y9700000D01*
X29985482Y9699518D01*
X30004627Y9699518D01*
X30043692Y9695671D01*
X30082192Y9688013D01*
X30119756Y9676618D01*
X30156022Y9661596D01*
X30190641Y9643091D01*
X30223280Y9621283D01*
X30253624Y9596380D01*
X30281380Y9568624D01*
X30306283Y9538280D01*
X30328091Y9505641D01*
X30346596Y9471022D01*
X30361618Y9434756D01*
X30373013Y9397192D01*
X30380671Y9358692D01*
X30384518Y9319627D01*
X30384518Y9300482D01*
X30385000Y9300000D01*
X30385000Y8900000D01*
X30384518Y8899518D01*
X30384518Y8880373D01*
X30380671Y8841308D01*
X30373013Y8802808D01*
X30361618Y8765244D01*
X30346596Y8728978D01*
X30328091Y8694359D01*
X30306283Y8661720D01*
X30281380Y8631376D01*
X30253624Y8603620D01*
X30223280Y8578717D01*
X30190641Y8556909D01*
X30156022Y8538404D01*
X30119756Y8523382D01*
X30082192Y8511987D01*
X30043692Y8504329D01*
X30004627Y8500482D01*
X29985482Y8500482D01*
X29985000Y8500000D01*
X29185000Y8500000D01*
X29185000Y9700000D01*
X29185000Y9700000D01*
G37*
D12*
G04 #@! TO.P,R12,2*
G04 #@! TO.N,Net-(R12-Pad2)*
X29855000Y11710000D03*
D13*
G04 #@! TD*
G04 #@! TO.N,Net-(R12-Pad2)*
G04 #@! TO.C,R12*
G36*
X30455000Y12310000D02*
X30455000Y11510000D01*
X30454518Y11509518D01*
X30454518Y11490373D01*
X30450671Y11451308D01*
X30443013Y11412808D01*
X30431618Y11375244D01*
X30416596Y11338978D01*
X30398091Y11304359D01*
X30376283Y11271720D01*
X30351380Y11241376D01*
X30323624Y11213620D01*
X30293280Y11188717D01*
X30260641Y11166909D01*
X30226022Y11148404D01*
X30189756Y11133382D01*
X30152192Y11121987D01*
X30113692Y11114329D01*
X30074627Y11110482D01*
X30055482Y11110482D01*
X30055000Y11110000D01*
X29655000Y11110000D01*
X29654518Y11110482D01*
X29635373Y11110482D01*
X29596308Y11114329D01*
X29557808Y11121987D01*
X29520244Y11133382D01*
X29483978Y11148404D01*
X29449359Y11166909D01*
X29416720Y11188717D01*
X29386376Y11213620D01*
X29358620Y11241376D01*
X29333717Y11271720D01*
X29311909Y11304359D01*
X29293404Y11338978D01*
X29278382Y11375244D01*
X29266987Y11412808D01*
X29259329Y11451308D01*
X29255482Y11490373D01*
X29255482Y11509518D01*
X29255000Y11510000D01*
X29255000Y12310000D01*
X30455000Y12310000D01*
X30455000Y12310000D01*
G37*
D12*
G04 #@! TO.P,R12,1*
G04 #@! TO.N,/PDI_DATA*
X29855000Y14110000D03*
D13*
G04 #@! TD*
G04 #@! TO.N,/PDI_DATA*
G04 #@! TO.C,R12*
G36*
X29255000Y13510000D02*
X29255000Y14310000D01*
X29255482Y14310482D01*
X29255482Y14329627D01*
X29259329Y14368692D01*
X29266987Y14407192D01*
X29278382Y14444756D01*
X29293404Y14481022D01*
X29311909Y14515641D01*
X29333717Y14548280D01*
X29358620Y14578624D01*
X29386376Y14606380D01*
X29416720Y14631283D01*
X29449359Y14653091D01*
X29483978Y14671596D01*
X29520244Y14686618D01*
X29557808Y14698013D01*
X29596308Y14705671D01*
X29635373Y14709518D01*
X29654518Y14709518D01*
X29655000Y14710000D01*
X30055000Y14710000D01*
X30055482Y14709518D01*
X30074627Y14709518D01*
X30113692Y14705671D01*
X30152192Y14698013D01*
X30189756Y14686618D01*
X30226022Y14671596D01*
X30260641Y14653091D01*
X30293280Y14631283D01*
X30323624Y14606380D01*
X30351380Y14578624D01*
X30376283Y14548280D01*
X30398091Y14515641D01*
X30416596Y14481022D01*
X30431618Y14444756D01*
X30443013Y14407192D01*
X30450671Y14368692D01*
X30454518Y14329627D01*
X30454518Y14310482D01*
X30455000Y14310000D01*
X30455000Y13510000D01*
X29255000Y13510000D01*
X29255000Y13510000D01*
G37*
D12*
G04 #@! TO.P,C6,2*
G04 #@! TO.N,GND*
X30490000Y28715000D03*
D13*
G04 #@! TD*
G04 #@! TO.N,GND*
G04 #@! TO.C,C6*
G36*
X29890000Y28115000D02*
X29890000Y28915000D01*
X29890482Y28915482D01*
X29890482Y28934627D01*
X29894329Y28973692D01*
X29901987Y29012192D01*
X29913382Y29049756D01*
X29928404Y29086022D01*
X29946909Y29120641D01*
X29968717Y29153280D01*
X29993620Y29183624D01*
X30021376Y29211380D01*
X30051720Y29236283D01*
X30084359Y29258091D01*
X30118978Y29276596D01*
X30155244Y29291618D01*
X30192808Y29303013D01*
X30231308Y29310671D01*
X30270373Y29314518D01*
X30289518Y29314518D01*
X30290000Y29315000D01*
X30690000Y29315000D01*
X30690482Y29314518D01*
X30709627Y29314518D01*
X30748692Y29310671D01*
X30787192Y29303013D01*
X30824756Y29291618D01*
X30861022Y29276596D01*
X30895641Y29258091D01*
X30928280Y29236283D01*
X30958624Y29211380D01*
X30986380Y29183624D01*
X31011283Y29153280D01*
X31033091Y29120641D01*
X31051596Y29086022D01*
X31066618Y29049756D01*
X31078013Y29012192D01*
X31085671Y28973692D01*
X31089518Y28934627D01*
X31089518Y28915482D01*
X31090000Y28915000D01*
X31090000Y28115000D01*
X29890000Y28115000D01*
X29890000Y28115000D01*
G37*
D12*
G04 #@! TO.P,C6,1*
G04 #@! TO.N,AVCC*
X30490000Y26315000D03*
D13*
G04 #@! TD*
G04 #@! TO.N,AVCC*
G04 #@! TO.C,C6*
G36*
X31090000Y26915000D02*
X31090000Y26115000D01*
X31089518Y26114518D01*
X31089518Y26095373D01*
X31085671Y26056308D01*
X31078013Y26017808D01*
X31066618Y25980244D01*
X31051596Y25943978D01*
X31033091Y25909359D01*
X31011283Y25876720D01*
X30986380Y25846376D01*
X30958624Y25818620D01*
X30928280Y25793717D01*
X30895641Y25771909D01*
X30861022Y25753404D01*
X30824756Y25738382D01*
X30787192Y25726987D01*
X30748692Y25719329D01*
X30709627Y25715482D01*
X30690482Y25715482D01*
X30690000Y25715000D01*
X30290000Y25715000D01*
X30289518Y25715482D01*
X30270373Y25715482D01*
X30231308Y25719329D01*
X30192808Y25726987D01*
X30155244Y25738382D01*
X30118978Y25753404D01*
X30084359Y25771909D01*
X30051720Y25793717D01*
X30021376Y25818620D01*
X29993620Y25846376D01*
X29968717Y25876720D01*
X29946909Y25909359D01*
X29928404Y25943978D01*
X29913382Y25980244D01*
X29901987Y26017808D01*
X29894329Y26056308D01*
X29890482Y26095373D01*
X29890482Y26114518D01*
X29890000Y26115000D01*
X29890000Y26915000D01*
X31090000Y26915000D01*
X31090000Y26915000D01*
G37*
D12*
G04 #@! TO.P,FB2,2*
G04 #@! TO.N,AVCC*
X27950000Y26175000D03*
D13*
G04 #@! TD*
G04 #@! TO.N,AVCC*
G04 #@! TO.C,FB2*
G36*
X27350000Y25575000D02*
X27350000Y26375000D01*
X27350482Y26375482D01*
X27350482Y26394627D01*
X27354329Y26433692D01*
X27361987Y26472192D01*
X27373382Y26509756D01*
X27388404Y26546022D01*
X27406909Y26580641D01*
X27428717Y26613280D01*
X27453620Y26643624D01*
X27481376Y26671380D01*
X27511720Y26696283D01*
X27544359Y26718091D01*
X27578978Y26736596D01*
X27615244Y26751618D01*
X27652808Y26763013D01*
X27691308Y26770671D01*
X27730373Y26774518D01*
X27749518Y26774518D01*
X27750000Y26775000D01*
X28150000Y26775000D01*
X28150482Y26774518D01*
X28169627Y26774518D01*
X28208692Y26770671D01*
X28247192Y26763013D01*
X28284756Y26751618D01*
X28321022Y26736596D01*
X28355641Y26718091D01*
X28388280Y26696283D01*
X28418624Y26671380D01*
X28446380Y26643624D01*
X28471283Y26613280D01*
X28493091Y26580641D01*
X28511596Y26546022D01*
X28526618Y26509756D01*
X28538013Y26472192D01*
X28545671Y26433692D01*
X28549518Y26394627D01*
X28549518Y26375482D01*
X28550000Y26375000D01*
X28550000Y25575000D01*
X27350000Y25575000D01*
X27350000Y25575000D01*
G37*
D12*
G04 #@! TO.P,FB2,1*
G04 #@! TO.N,VCC*
X27950000Y23775000D03*
D13*
G04 #@! TD*
G04 #@! TO.N,VCC*
G04 #@! TO.C,FB2*
G36*
X28550000Y24375000D02*
X28550000Y23575000D01*
X28549518Y23574518D01*
X28549518Y23555373D01*
X28545671Y23516308D01*
X28538013Y23477808D01*
X28526618Y23440244D01*
X28511596Y23403978D01*
X28493091Y23369359D01*
X28471283Y23336720D01*
X28446380Y23306376D01*
X28418624Y23278620D01*
X28388280Y23253717D01*
X28355641Y23231909D01*
X28321022Y23213404D01*
X28284756Y23198382D01*
X28247192Y23186987D01*
X28208692Y23179329D01*
X28169627Y23175482D01*
X28150482Y23175482D01*
X28150000Y23175000D01*
X27750000Y23175000D01*
X27749518Y23175482D01*
X27730373Y23175482D01*
X27691308Y23179329D01*
X27652808Y23186987D01*
X27615244Y23198382D01*
X27578978Y23213404D01*
X27544359Y23231909D01*
X27511720Y23253717D01*
X27481376Y23278620D01*
X27453620Y23306376D01*
X27428717Y23336720D01*
X27406909Y23369359D01*
X27388404Y23403978D01*
X27373382Y23440244D01*
X27361987Y23477808D01*
X27354329Y23516308D01*
X27350482Y23555373D01*
X27350482Y23574518D01*
X27350000Y23575000D01*
X27350000Y24375000D01*
X28550000Y24375000D01*
X28550000Y24375000D01*
G37*
D12*
G04 #@! TO.P,C10,2*
G04 #@! TO.N,Net-(C10-Pad2)*
X13980000Y25540000D03*
D13*
G04 #@! TD*
G04 #@! TO.N,Net-(C10-Pad2)*
G04 #@! TO.C,C10*
G36*
X13380000Y24940000D02*
X13380000Y25740000D01*
X13380482Y25740482D01*
X13380482Y25759627D01*
X13384329Y25798692D01*
X13391987Y25837192D01*
X13403382Y25874756D01*
X13418404Y25911022D01*
X13436909Y25945641D01*
X13458717Y25978280D01*
X13483620Y26008624D01*
X13511376Y26036380D01*
X13541720Y26061283D01*
X13574359Y26083091D01*
X13608978Y26101596D01*
X13645244Y26116618D01*
X13682808Y26128013D01*
X13721308Y26135671D01*
X13760373Y26139518D01*
X13779518Y26139518D01*
X13780000Y26140000D01*
X14180000Y26140000D01*
X14180482Y26139518D01*
X14199627Y26139518D01*
X14238692Y26135671D01*
X14277192Y26128013D01*
X14314756Y26116618D01*
X14351022Y26101596D01*
X14385641Y26083091D01*
X14418280Y26061283D01*
X14448624Y26036380D01*
X14476380Y26008624D01*
X14501283Y25978280D01*
X14523091Y25945641D01*
X14541596Y25911022D01*
X14556618Y25874756D01*
X14568013Y25837192D01*
X14575671Y25798692D01*
X14579518Y25759627D01*
X14579518Y25740482D01*
X14580000Y25740000D01*
X14580000Y24940000D01*
X13380000Y24940000D01*
X13380000Y24940000D01*
G37*
D12*
G04 #@! TO.P,C10,1*
G04 #@! TO.N,GND*
X13980000Y23140000D03*
D13*
G04 #@! TD*
G04 #@! TO.N,GND*
G04 #@! TO.C,C10*
G36*
X14580000Y23740000D02*
X14580000Y22940000D01*
X14579518Y22939518D01*
X14579518Y22920373D01*
X14575671Y22881308D01*
X14568013Y22842808D01*
X14556618Y22805244D01*
X14541596Y22768978D01*
X14523091Y22734359D01*
X14501283Y22701720D01*
X14476380Y22671376D01*
X14448624Y22643620D01*
X14418280Y22618717D01*
X14385641Y22596909D01*
X14351022Y22578404D01*
X14314756Y22563382D01*
X14277192Y22551987D01*
X14238692Y22544329D01*
X14199627Y22540482D01*
X14180482Y22540482D01*
X14180000Y22540000D01*
X13780000Y22540000D01*
X13779518Y22540482D01*
X13760373Y22540482D01*
X13721308Y22544329D01*
X13682808Y22551987D01*
X13645244Y22563382D01*
X13608978Y22578404D01*
X13574359Y22596909D01*
X13541720Y22618717D01*
X13511376Y22643620D01*
X13483620Y22671376D01*
X13458717Y22701720D01*
X13436909Y22734359D01*
X13418404Y22768978D01*
X13403382Y22805244D01*
X13391987Y22842808D01*
X13384329Y22881308D01*
X13380482Y22920373D01*
X13380482Y22939518D01*
X13380000Y22940000D01*
X13380000Y23740000D01*
X14580000Y23740000D01*
X14580000Y23740000D01*
G37*
D12*
G04 #@! TO.P,R2,2*
G04 #@! TO.N,/UART_RxD*
X35570000Y38875000D03*
D13*
G04 #@! TD*
G04 #@! TO.N,/UART_RxD*
G04 #@! TO.C,R2*
G36*
X34970000Y38275000D02*
X34970000Y39075000D01*
X34970482Y39075482D01*
X34970482Y39094627D01*
X34974329Y39133692D01*
X34981987Y39172192D01*
X34993382Y39209756D01*
X35008404Y39246022D01*
X35026909Y39280641D01*
X35048717Y39313280D01*
X35073620Y39343624D01*
X35101376Y39371380D01*
X35131720Y39396283D01*
X35164359Y39418091D01*
X35198978Y39436596D01*
X35235244Y39451618D01*
X35272808Y39463013D01*
X35311308Y39470671D01*
X35350373Y39474518D01*
X35369518Y39474518D01*
X35370000Y39475000D01*
X35770000Y39475000D01*
X35770482Y39474518D01*
X35789627Y39474518D01*
X35828692Y39470671D01*
X35867192Y39463013D01*
X35904756Y39451618D01*
X35941022Y39436596D01*
X35975641Y39418091D01*
X36008280Y39396283D01*
X36038624Y39371380D01*
X36066380Y39343624D01*
X36091283Y39313280D01*
X36113091Y39280641D01*
X36131596Y39246022D01*
X36146618Y39209756D01*
X36158013Y39172192D01*
X36165671Y39133692D01*
X36169518Y39094627D01*
X36169518Y39075482D01*
X36170000Y39075000D01*
X36170000Y38275000D01*
X34970000Y38275000D01*
X34970000Y38275000D01*
G37*
D12*
G04 #@! TO.P,R2,1*
G04 #@! TO.N,RxD*
X35570000Y36475000D03*
D13*
G04 #@! TD*
G04 #@! TO.N,RxD*
G04 #@! TO.C,R2*
G36*
X36170000Y37075000D02*
X36170000Y36275000D01*
X36169518Y36274518D01*
X36169518Y36255373D01*
X36165671Y36216308D01*
X36158013Y36177808D01*
X36146618Y36140244D01*
X36131596Y36103978D01*
X36113091Y36069359D01*
X36091283Y36036720D01*
X36066380Y36006376D01*
X36038624Y35978620D01*
X36008280Y35953717D01*
X35975641Y35931909D01*
X35941022Y35913404D01*
X35904756Y35898382D01*
X35867192Y35886987D01*
X35828692Y35879329D01*
X35789627Y35875482D01*
X35770482Y35875482D01*
X35770000Y35875000D01*
X35370000Y35875000D01*
X35369518Y35875482D01*
X35350373Y35875482D01*
X35311308Y35879329D01*
X35272808Y35886987D01*
X35235244Y35898382D01*
X35198978Y35913404D01*
X35164359Y35931909D01*
X35131720Y35953717D01*
X35101376Y35978620D01*
X35073620Y36006376D01*
X35048717Y36036720D01*
X35026909Y36069359D01*
X35008404Y36103978D01*
X34993382Y36140244D01*
X34981987Y36177808D01*
X34974329Y36216308D01*
X34970482Y36255373D01*
X34970482Y36274518D01*
X34970000Y36275000D01*
X34970000Y37075000D01*
X36170000Y37075000D01*
X36170000Y37075000D01*
G37*
D12*
G04 #@! TO.P,R6,2*
G04 #@! TO.N,/UART_TxD*
X33030000Y38875000D03*
D13*
G04 #@! TD*
G04 #@! TO.N,/UART_TxD*
G04 #@! TO.C,R6*
G36*
X32430000Y38275000D02*
X32430000Y39075000D01*
X32430482Y39075482D01*
X32430482Y39094627D01*
X32434329Y39133692D01*
X32441987Y39172192D01*
X32453382Y39209756D01*
X32468404Y39246022D01*
X32486909Y39280641D01*
X32508717Y39313280D01*
X32533620Y39343624D01*
X32561376Y39371380D01*
X32591720Y39396283D01*
X32624359Y39418091D01*
X32658978Y39436596D01*
X32695244Y39451618D01*
X32732808Y39463013D01*
X32771308Y39470671D01*
X32810373Y39474518D01*
X32829518Y39474518D01*
X32830000Y39475000D01*
X33230000Y39475000D01*
X33230482Y39474518D01*
X33249627Y39474518D01*
X33288692Y39470671D01*
X33327192Y39463013D01*
X33364756Y39451618D01*
X33401022Y39436596D01*
X33435641Y39418091D01*
X33468280Y39396283D01*
X33498624Y39371380D01*
X33526380Y39343624D01*
X33551283Y39313280D01*
X33573091Y39280641D01*
X33591596Y39246022D01*
X33606618Y39209756D01*
X33618013Y39172192D01*
X33625671Y39133692D01*
X33629518Y39094627D01*
X33629518Y39075482D01*
X33630000Y39075000D01*
X33630000Y38275000D01*
X32430000Y38275000D01*
X32430000Y38275000D01*
G37*
D12*
G04 #@! TO.P,R6,1*
G04 #@! TO.N,TxD*
X33030000Y36475000D03*
D13*
G04 #@! TD*
G04 #@! TO.N,TxD*
G04 #@! TO.C,R6*
G36*
X33630000Y37075000D02*
X33630000Y36275000D01*
X33629518Y36274518D01*
X33629518Y36255373D01*
X33625671Y36216308D01*
X33618013Y36177808D01*
X33606618Y36140244D01*
X33591596Y36103978D01*
X33573091Y36069359D01*
X33551283Y36036720D01*
X33526380Y36006376D01*
X33498624Y35978620D01*
X33468280Y35953717D01*
X33435641Y35931909D01*
X33401022Y35913404D01*
X33364756Y35898382D01*
X33327192Y35886987D01*
X33288692Y35879329D01*
X33249627Y35875482D01*
X33230482Y35875482D01*
X33230000Y35875000D01*
X32830000Y35875000D01*
X32829518Y35875482D01*
X32810373Y35875482D01*
X32771308Y35879329D01*
X32732808Y35886987D01*
X32695244Y35898382D01*
X32658978Y35913404D01*
X32624359Y35931909D01*
X32591720Y35953717D01*
X32561376Y35978620D01*
X32533620Y36006376D01*
X32508717Y36036720D01*
X32486909Y36069359D01*
X32468404Y36103978D01*
X32453382Y36140244D01*
X32441987Y36177808D01*
X32434329Y36216308D01*
X32430482Y36255373D01*
X32430482Y36274518D01*
X32430000Y36275000D01*
X32430000Y37075000D01*
X33630000Y37075000D01*
X33630000Y37075000D01*
G37*
D12*
G04 #@! TO.P,R8,2*
G04 #@! TO.N,V-*
X27950000Y38875000D03*
D13*
G04 #@! TD*
G04 #@! TO.N,V-*
G04 #@! TO.C,R8*
G36*
X27350000Y38275000D02*
X27350000Y39075000D01*
X27350482Y39075482D01*
X27350482Y39094627D01*
X27354329Y39133692D01*
X27361987Y39172192D01*
X27373382Y39209756D01*
X27388404Y39246022D01*
X27406909Y39280641D01*
X27428717Y39313280D01*
X27453620Y39343624D01*
X27481376Y39371380D01*
X27511720Y39396283D01*
X27544359Y39418091D01*
X27578978Y39436596D01*
X27615244Y39451618D01*
X27652808Y39463013D01*
X27691308Y39470671D01*
X27730373Y39474518D01*
X27749518Y39474518D01*
X27750000Y39475000D01*
X28150000Y39475000D01*
X28150482Y39474518D01*
X28169627Y39474518D01*
X28208692Y39470671D01*
X28247192Y39463013D01*
X28284756Y39451618D01*
X28321022Y39436596D01*
X28355641Y39418091D01*
X28388280Y39396283D01*
X28418624Y39371380D01*
X28446380Y39343624D01*
X28471283Y39313280D01*
X28493091Y39280641D01*
X28511596Y39246022D01*
X28526618Y39209756D01*
X28538013Y39172192D01*
X28545671Y39133692D01*
X28549518Y39094627D01*
X28549518Y39075482D01*
X28550000Y39075000D01*
X28550000Y38275000D01*
X27350000Y38275000D01*
X27350000Y38275000D01*
G37*
D12*
G04 #@! TO.P,R8,1*
G04 #@! TO.N,/VREF*
X27950000Y36475000D03*
D13*
G04 #@! TD*
G04 #@! TO.N,/VREF*
G04 #@! TO.C,R8*
G36*
X28550000Y37075000D02*
X28550000Y36275000D01*
X28549518Y36274518D01*
X28549518Y36255373D01*
X28545671Y36216308D01*
X28538013Y36177808D01*
X28526618Y36140244D01*
X28511596Y36103978D01*
X28493091Y36069359D01*
X28471283Y36036720D01*
X28446380Y36006376D01*
X28418624Y35978620D01*
X28388280Y35953717D01*
X28355641Y35931909D01*
X28321022Y35913404D01*
X28284756Y35898382D01*
X28247192Y35886987D01*
X28208692Y35879329D01*
X28169627Y35875482D01*
X28150482Y35875482D01*
X28150000Y35875000D01*
X27750000Y35875000D01*
X27749518Y35875482D01*
X27730373Y35875482D01*
X27691308Y35879329D01*
X27652808Y35886987D01*
X27615244Y35898382D01*
X27578978Y35913404D01*
X27544359Y35931909D01*
X27511720Y35953717D01*
X27481376Y35978620D01*
X27453620Y36006376D01*
X27428717Y36036720D01*
X27406909Y36069359D01*
X27388404Y36103978D01*
X27373382Y36140244D01*
X27361987Y36177808D01*
X27354329Y36216308D01*
X27350482Y36255373D01*
X27350482Y36274518D01*
X27350000Y36275000D01*
X27350000Y37075000D01*
X28550000Y37075000D01*
X28550000Y37075000D01*
G37*
D12*
G04 #@! TO.P,C5,2*
G04 #@! TO.N,GND*
X30420000Y31325000D03*
D13*
G04 #@! TD*
G04 #@! TO.N,GND*
G04 #@! TO.C,C5*
G36*
X29820000Y31925000D02*
X30620000Y31925000D01*
X30620482Y31924518D01*
X30639627Y31924518D01*
X30678692Y31920671D01*
X30717192Y31913013D01*
X30754756Y31901618D01*
X30791022Y31886596D01*
X30825641Y31868091D01*
X30858280Y31846283D01*
X30888624Y31821380D01*
X30916380Y31793624D01*
X30941283Y31763280D01*
X30963091Y31730641D01*
X30981596Y31696022D01*
X30996618Y31659756D01*
X31008013Y31622192D01*
X31015671Y31583692D01*
X31019518Y31544627D01*
X31019518Y31525482D01*
X31020000Y31525000D01*
X31020000Y31125000D01*
X31019518Y31124518D01*
X31019518Y31105373D01*
X31015671Y31066308D01*
X31008013Y31027808D01*
X30996618Y30990244D01*
X30981596Y30953978D01*
X30963091Y30919359D01*
X30941283Y30886720D01*
X30916380Y30856376D01*
X30888624Y30828620D01*
X30858280Y30803717D01*
X30825641Y30781909D01*
X30791022Y30763404D01*
X30754756Y30748382D01*
X30717192Y30736987D01*
X30678692Y30729329D01*
X30639627Y30725482D01*
X30620482Y30725482D01*
X30620000Y30725000D01*
X29820000Y30725000D01*
X29820000Y31925000D01*
X29820000Y31925000D01*
G37*
D12*
G04 #@! TO.P,C5,1*
G04 #@! TO.N,/VREF*
X28020000Y31325000D03*
D13*
G04 #@! TD*
G04 #@! TO.N,/VREF*
G04 #@! TO.C,C5*
G36*
X28620000Y30725000D02*
X27820000Y30725000D01*
X27819518Y30725482D01*
X27800373Y30725482D01*
X27761308Y30729329D01*
X27722808Y30736987D01*
X27685244Y30748382D01*
X27648978Y30763404D01*
X27614359Y30781909D01*
X27581720Y30803717D01*
X27551376Y30828620D01*
X27523620Y30856376D01*
X27498717Y30886720D01*
X27476909Y30919359D01*
X27458404Y30953978D01*
X27443382Y30990244D01*
X27431987Y31027808D01*
X27424329Y31066308D01*
X27420482Y31105373D01*
X27420482Y31124518D01*
X27420000Y31125000D01*
X27420000Y31525000D01*
X27420482Y31525482D01*
X27420482Y31544627D01*
X27424329Y31583692D01*
X27431987Y31622192D01*
X27443382Y31659756D01*
X27458404Y31696022D01*
X27476909Y31730641D01*
X27498717Y31763280D01*
X27523620Y31793624D01*
X27551376Y31821380D01*
X27581720Y31846283D01*
X27614359Y31868091D01*
X27648978Y31886596D01*
X27685244Y31901618D01*
X27722808Y31913013D01*
X27761308Y31920671D01*
X27800373Y31924518D01*
X27819518Y31924518D01*
X27820000Y31925000D01*
X28620000Y31925000D01*
X28620000Y30725000D01*
X28620000Y30725000D01*
G37*
D12*
G04 #@! TO.P,R10,2*
G04 #@! TO.N,/VREF*
X28020000Y33865000D03*
D13*
G04 #@! TD*
G04 #@! TO.N,/VREF*
G04 #@! TO.C,R10*
G36*
X28620000Y33265000D02*
X27820000Y33265000D01*
X27819518Y33265482D01*
X27800373Y33265482D01*
X27761308Y33269329D01*
X27722808Y33276987D01*
X27685244Y33288382D01*
X27648978Y33303404D01*
X27614359Y33321909D01*
X27581720Y33343717D01*
X27551376Y33368620D01*
X27523620Y33396376D01*
X27498717Y33426720D01*
X27476909Y33459359D01*
X27458404Y33493978D01*
X27443382Y33530244D01*
X27431987Y33567808D01*
X27424329Y33606308D01*
X27420482Y33645373D01*
X27420482Y33664518D01*
X27420000Y33665000D01*
X27420000Y34065000D01*
X27420482Y34065482D01*
X27420482Y34084627D01*
X27424329Y34123692D01*
X27431987Y34162192D01*
X27443382Y34199756D01*
X27458404Y34236022D01*
X27476909Y34270641D01*
X27498717Y34303280D01*
X27523620Y34333624D01*
X27551376Y34361380D01*
X27581720Y34386283D01*
X27614359Y34408091D01*
X27648978Y34426596D01*
X27685244Y34441618D01*
X27722808Y34453013D01*
X27761308Y34460671D01*
X27800373Y34464518D01*
X27819518Y34464518D01*
X27820000Y34465000D01*
X28620000Y34465000D01*
X28620000Y33265000D01*
X28620000Y33265000D01*
G37*
D12*
G04 #@! TO.P,R10,1*
G04 #@! TO.N,GND*
X30420000Y33865000D03*
D13*
G04 #@! TD*
G04 #@! TO.N,GND*
G04 #@! TO.C,R10*
G36*
X29820000Y34465000D02*
X30620000Y34465000D01*
X30620482Y34464518D01*
X30639627Y34464518D01*
X30678692Y34460671D01*
X30717192Y34453013D01*
X30754756Y34441618D01*
X30791022Y34426596D01*
X30825641Y34408091D01*
X30858280Y34386283D01*
X30888624Y34361380D01*
X30916380Y34333624D01*
X30941283Y34303280D01*
X30963091Y34270641D01*
X30981596Y34236022D01*
X30996618Y34199756D01*
X31008013Y34162192D01*
X31015671Y34123692D01*
X31019518Y34084627D01*
X31019518Y34065482D01*
X31020000Y34065000D01*
X31020000Y33665000D01*
X31019518Y33664518D01*
X31019518Y33645373D01*
X31015671Y33606308D01*
X31008013Y33567808D01*
X30996618Y33530244D01*
X30981596Y33493978D01*
X30963091Y33459359D01*
X30941283Y33426720D01*
X30916380Y33396376D01*
X30888624Y33368620D01*
X30858280Y33343717D01*
X30825641Y33321909D01*
X30791022Y33303404D01*
X30754756Y33288382D01*
X30717192Y33276987D01*
X30678692Y33269329D01*
X30639627Y33265482D01*
X30620482Y33265482D01*
X30620000Y33265000D01*
X29820000Y33265000D01*
X29820000Y34465000D01*
X29820000Y34465000D01*
G37*
D12*
G04 #@! TO.P,FB3,2*
G04 #@! TO.N,VS*
X25410000Y33795000D03*
D13*
G04 #@! TD*
G04 #@! TO.N,VS*
G04 #@! TO.C,FB3*
G36*
X24810000Y33195000D02*
X24810000Y33995000D01*
X24810482Y33995482D01*
X24810482Y34014627D01*
X24814329Y34053692D01*
X24821987Y34092192D01*
X24833382Y34129756D01*
X24848404Y34166022D01*
X24866909Y34200641D01*
X24888717Y34233280D01*
X24913620Y34263624D01*
X24941376Y34291380D01*
X24971720Y34316283D01*
X25004359Y34338091D01*
X25038978Y34356596D01*
X25075244Y34371618D01*
X25112808Y34383013D01*
X25151308Y34390671D01*
X25190373Y34394518D01*
X25209518Y34394518D01*
X25210000Y34395000D01*
X25610000Y34395000D01*
X25610482Y34394518D01*
X25629627Y34394518D01*
X25668692Y34390671D01*
X25707192Y34383013D01*
X25744756Y34371618D01*
X25781022Y34356596D01*
X25815641Y34338091D01*
X25848280Y34316283D01*
X25878624Y34291380D01*
X25906380Y34263624D01*
X25931283Y34233280D01*
X25953091Y34200641D01*
X25971596Y34166022D01*
X25986618Y34129756D01*
X25998013Y34092192D01*
X26005671Y34053692D01*
X26009518Y34014627D01*
X26009518Y33995482D01*
X26010000Y33995000D01*
X26010000Y33195000D01*
X24810000Y33195000D01*
X24810000Y33195000D01*
G37*
D12*
G04 #@! TO.P,FB3,1*
G04 #@! TO.N,VCC*
X25410000Y31395000D03*
D13*
G04 #@! TD*
G04 #@! TO.N,VCC*
G04 #@! TO.C,FB3*
G36*
X26010000Y31995000D02*
X26010000Y31195000D01*
X26009518Y31194518D01*
X26009518Y31175373D01*
X26005671Y31136308D01*
X25998013Y31097808D01*
X25986618Y31060244D01*
X25971596Y31023978D01*
X25953091Y30989359D01*
X25931283Y30956720D01*
X25906380Y30926376D01*
X25878624Y30898620D01*
X25848280Y30873717D01*
X25815641Y30851909D01*
X25781022Y30833404D01*
X25744756Y30818382D01*
X25707192Y30806987D01*
X25668692Y30799329D01*
X25629627Y30795482D01*
X25610482Y30795482D01*
X25610000Y30795000D01*
X25210000Y30795000D01*
X25209518Y30795482D01*
X25190373Y30795482D01*
X25151308Y30799329D01*
X25112808Y30806987D01*
X25075244Y30818382D01*
X25038978Y30833404D01*
X25004359Y30851909D01*
X24971720Y30873717D01*
X24941376Y30898620D01*
X24913620Y30926376D01*
X24888717Y30956720D01*
X24866909Y30989359D01*
X24848404Y31023978D01*
X24833382Y31060244D01*
X24821987Y31097808D01*
X24814329Y31136308D01*
X24810482Y31175373D01*
X24810482Y31194518D01*
X24810000Y31195000D01*
X24810000Y31995000D01*
X26010000Y31995000D01*
X26010000Y31995000D01*
G37*
D12*
G04 #@! TO.P,R14,2*
G04 #@! TO.N,IREF*
X22870000Y28855000D03*
D13*
G04 #@! TD*
G04 #@! TO.N,IREF*
G04 #@! TO.C,R14*
G36*
X23470000Y29455000D02*
X23470000Y28655000D01*
X23469518Y28654518D01*
X23469518Y28635373D01*
X23465671Y28596308D01*
X23458013Y28557808D01*
X23446618Y28520244D01*
X23431596Y28483978D01*
X23413091Y28449359D01*
X23391283Y28416720D01*
X23366380Y28386376D01*
X23338624Y28358620D01*
X23308280Y28333717D01*
X23275641Y28311909D01*
X23241022Y28293404D01*
X23204756Y28278382D01*
X23167192Y28266987D01*
X23128692Y28259329D01*
X23089627Y28255482D01*
X23070482Y28255482D01*
X23070000Y28255000D01*
X22670000Y28255000D01*
X22669518Y28255482D01*
X22650373Y28255482D01*
X22611308Y28259329D01*
X22572808Y28266987D01*
X22535244Y28278382D01*
X22498978Y28293404D01*
X22464359Y28311909D01*
X22431720Y28333717D01*
X22401376Y28358620D01*
X22373620Y28386376D01*
X22348717Y28416720D01*
X22326909Y28449359D01*
X22308404Y28483978D01*
X22293382Y28520244D01*
X22281987Y28557808D01*
X22274329Y28596308D01*
X22270482Y28635373D01*
X22270482Y28654518D01*
X22270000Y28655000D01*
X22270000Y29455000D01*
X23470000Y29455000D01*
X23470000Y29455000D01*
G37*
D12*
G04 #@! TO.P,R14,1*
G04 #@! TO.N,VS*
X22870000Y31255000D03*
D13*
G04 #@! TD*
G04 #@! TO.N,VS*
G04 #@! TO.C,R14*
G36*
X22270000Y30655000D02*
X22270000Y31455000D01*
X22270482Y31455482D01*
X22270482Y31474627D01*
X22274329Y31513692D01*
X22281987Y31552192D01*
X22293382Y31589756D01*
X22308404Y31626022D01*
X22326909Y31660641D01*
X22348717Y31693280D01*
X22373620Y31723624D01*
X22401376Y31751380D01*
X22431720Y31776283D01*
X22464359Y31798091D01*
X22498978Y31816596D01*
X22535244Y31831618D01*
X22572808Y31843013D01*
X22611308Y31850671D01*
X22650373Y31854518D01*
X22669518Y31854518D01*
X22670000Y31855000D01*
X23070000Y31855000D01*
X23070482Y31854518D01*
X23089627Y31854518D01*
X23128692Y31850671D01*
X23167192Y31843013D01*
X23204756Y31831618D01*
X23241022Y31816596D01*
X23275641Y31798091D01*
X23308280Y31776283D01*
X23338624Y31751380D01*
X23366380Y31723624D01*
X23391283Y31693280D01*
X23413091Y31660641D01*
X23431596Y31626022D01*
X23446618Y31589756D01*
X23458013Y31552192D01*
X23465671Y31513692D01*
X23469518Y31474627D01*
X23469518Y31455482D01*
X23470000Y31455000D01*
X23470000Y30655000D01*
X22270000Y30655000D01*
X22270000Y30655000D01*
G37*
D12*
G04 #@! TO.P,C8,2*
G04 #@! TO.N,GND*
X20400000Y33865000D03*
D13*
G04 #@! TD*
G04 #@! TO.N,GND*
G04 #@! TO.C,C8*
G36*
X21000000Y33265000D02*
X20200000Y33265000D01*
X20199518Y33265482D01*
X20180373Y33265482D01*
X20141308Y33269329D01*
X20102808Y33276987D01*
X20065244Y33288382D01*
X20028978Y33303404D01*
X19994359Y33321909D01*
X19961720Y33343717D01*
X19931376Y33368620D01*
X19903620Y33396376D01*
X19878717Y33426720D01*
X19856909Y33459359D01*
X19838404Y33493978D01*
X19823382Y33530244D01*
X19811987Y33567808D01*
X19804329Y33606308D01*
X19800482Y33645373D01*
X19800482Y33664518D01*
X19800000Y33665000D01*
X19800000Y34065000D01*
X19800482Y34065482D01*
X19800482Y34084627D01*
X19804329Y34123692D01*
X19811987Y34162192D01*
X19823382Y34199756D01*
X19838404Y34236022D01*
X19856909Y34270641D01*
X19878717Y34303280D01*
X19903620Y34333624D01*
X19931376Y34361380D01*
X19961720Y34386283D01*
X19994359Y34408091D01*
X20028978Y34426596D01*
X20065244Y34441618D01*
X20102808Y34453013D01*
X20141308Y34460671D01*
X20180373Y34464518D01*
X20199518Y34464518D01*
X20200000Y34465000D01*
X21000000Y34465000D01*
X21000000Y33265000D01*
X21000000Y33265000D01*
G37*
D12*
G04 #@! TO.P,C8,1*
G04 #@! TO.N,VS*
X22800000Y33865000D03*
D13*
G04 #@! TD*
G04 #@! TO.N,VS*
G04 #@! TO.C,C8*
G36*
X22200000Y34465000D02*
X23000000Y34465000D01*
X23000482Y34464518D01*
X23019627Y34464518D01*
X23058692Y34460671D01*
X23097192Y34453013D01*
X23134756Y34441618D01*
X23171022Y34426596D01*
X23205641Y34408091D01*
X23238280Y34386283D01*
X23268624Y34361380D01*
X23296380Y34333624D01*
X23321283Y34303280D01*
X23343091Y34270641D01*
X23361596Y34236022D01*
X23376618Y34199756D01*
X23388013Y34162192D01*
X23395671Y34123692D01*
X23399518Y34084627D01*
X23399518Y34065482D01*
X23400000Y34065000D01*
X23400000Y33665000D01*
X23399518Y33664518D01*
X23399518Y33645373D01*
X23395671Y33606308D01*
X23388013Y33567808D01*
X23376618Y33530244D01*
X23361596Y33493978D01*
X23343091Y33459359D01*
X23321283Y33426720D01*
X23296380Y33396376D01*
X23268624Y33368620D01*
X23238280Y33343717D01*
X23205641Y33321909D01*
X23171022Y33303404D01*
X23134756Y33288382D01*
X23097192Y33276987D01*
X23058692Y33269329D01*
X23019627Y33265482D01*
X23000482Y33265482D01*
X23000000Y33265000D01*
X22200000Y33265000D01*
X22200000Y34465000D01*
X22200000Y34465000D01*
G37*
D12*
G04 #@! TO.P,R4,2*
G04 #@! TO.N,Net-(R4-Pad2)*
X17790000Y33795000D03*
D13*
G04 #@! TD*
G04 #@! TO.N,Net-(R4-Pad2)*
G04 #@! TO.C,R4*
G36*
X17190000Y33195000D02*
X17190000Y33995000D01*
X17190482Y33995482D01*
X17190482Y34014627D01*
X17194329Y34053692D01*
X17201987Y34092192D01*
X17213382Y34129756D01*
X17228404Y34166022D01*
X17246909Y34200641D01*
X17268717Y34233280D01*
X17293620Y34263624D01*
X17321376Y34291380D01*
X17351720Y34316283D01*
X17384359Y34338091D01*
X17418978Y34356596D01*
X17455244Y34371618D01*
X17492808Y34383013D01*
X17531308Y34390671D01*
X17570373Y34394518D01*
X17589518Y34394518D01*
X17590000Y34395000D01*
X17990000Y34395000D01*
X17990482Y34394518D01*
X18009627Y34394518D01*
X18048692Y34390671D01*
X18087192Y34383013D01*
X18124756Y34371618D01*
X18161022Y34356596D01*
X18195641Y34338091D01*
X18228280Y34316283D01*
X18258624Y34291380D01*
X18286380Y34263624D01*
X18311283Y34233280D01*
X18333091Y34200641D01*
X18351596Y34166022D01*
X18366618Y34129756D01*
X18378013Y34092192D01*
X18385671Y34053692D01*
X18389518Y34014627D01*
X18389518Y33995482D01*
X18390000Y33995000D01*
X18390000Y33195000D01*
X17190000Y33195000D01*
X17190000Y33195000D01*
G37*
D12*
G04 #@! TO.P,R4,1*
G04 #@! TO.N,IOUT*
X17790000Y31395000D03*
D13*
G04 #@! TD*
G04 #@! TO.N,IOUT*
G04 #@! TO.C,R4*
G36*
X18390000Y31995000D02*
X18390000Y31195000D01*
X18389518Y31194518D01*
X18389518Y31175373D01*
X18385671Y31136308D01*
X18378013Y31097808D01*
X18366618Y31060244D01*
X18351596Y31023978D01*
X18333091Y30989359D01*
X18311283Y30956720D01*
X18286380Y30926376D01*
X18258624Y30898620D01*
X18228280Y30873717D01*
X18195641Y30851909D01*
X18161022Y30833404D01*
X18124756Y30818382D01*
X18087192Y30806987D01*
X18048692Y30799329D01*
X18009627Y30795482D01*
X17990482Y30795482D01*
X17990000Y30795000D01*
X17590000Y30795000D01*
X17589518Y30795482D01*
X17570373Y30795482D01*
X17531308Y30799329D01*
X17492808Y30806987D01*
X17455244Y30818382D01*
X17418978Y30833404D01*
X17384359Y30851909D01*
X17351720Y30873717D01*
X17321376Y30898620D01*
X17293620Y30926376D01*
X17268717Y30956720D01*
X17246909Y30989359D01*
X17228404Y31023978D01*
X17213382Y31060244D01*
X17201987Y31097808D01*
X17194329Y31136308D01*
X17190482Y31175373D01*
X17190482Y31194518D01*
X17190000Y31195000D01*
X17190000Y31995000D01*
X18390000Y31995000D01*
X18390000Y31995000D01*
G37*
D12*
G04 #@! TO.P,C4,2*
G04 #@! TO.N,GND*
X12780000Y31325000D03*
D13*
G04 #@! TD*
G04 #@! TO.N,GND*
G04 #@! TO.C,C4*
G36*
X13380000Y30725000D02*
X12580000Y30725000D01*
X12579518Y30725482D01*
X12560373Y30725482D01*
X12521308Y30729329D01*
X12482808Y30736987D01*
X12445244Y30748382D01*
X12408978Y30763404D01*
X12374359Y30781909D01*
X12341720Y30803717D01*
X12311376Y30828620D01*
X12283620Y30856376D01*
X12258717Y30886720D01*
X12236909Y30919359D01*
X12218404Y30953978D01*
X12203382Y30990244D01*
X12191987Y31027808D01*
X12184329Y31066308D01*
X12180482Y31105373D01*
X12180482Y31124518D01*
X12180000Y31125000D01*
X12180000Y31525000D01*
X12180482Y31525482D01*
X12180482Y31544627D01*
X12184329Y31583692D01*
X12191987Y31622192D01*
X12203382Y31659756D01*
X12218404Y31696022D01*
X12236909Y31730641D01*
X12258717Y31763280D01*
X12283620Y31793624D01*
X12311376Y31821380D01*
X12341720Y31846283D01*
X12374359Y31868091D01*
X12408978Y31886596D01*
X12445244Y31901618D01*
X12482808Y31913013D01*
X12521308Y31920671D01*
X12560373Y31924518D01*
X12579518Y31924518D01*
X12580000Y31925000D01*
X13380000Y31925000D01*
X13380000Y30725000D01*
X13380000Y30725000D01*
G37*
D12*
G04 #@! TO.P,C4,1*
G04 #@! TO.N,/VOUT*
X15180000Y31325000D03*
D13*
G04 #@! TD*
G04 #@! TO.N,/VOUT*
G04 #@! TO.C,C4*
G36*
X14580000Y31925000D02*
X15380000Y31925000D01*
X15380482Y31924518D01*
X15399627Y31924518D01*
X15438692Y31920671D01*
X15477192Y31913013D01*
X15514756Y31901618D01*
X15551022Y31886596D01*
X15585641Y31868091D01*
X15618280Y31846283D01*
X15648624Y31821380D01*
X15676380Y31793624D01*
X15701283Y31763280D01*
X15723091Y31730641D01*
X15741596Y31696022D01*
X15756618Y31659756D01*
X15768013Y31622192D01*
X15775671Y31583692D01*
X15779518Y31544627D01*
X15779518Y31525482D01*
X15780000Y31525000D01*
X15780000Y31125000D01*
X15779518Y31124518D01*
X15779518Y31105373D01*
X15775671Y31066308D01*
X15768013Y31027808D01*
X15756618Y30990244D01*
X15741596Y30953978D01*
X15723091Y30919359D01*
X15701283Y30886720D01*
X15676380Y30856376D01*
X15648624Y30828620D01*
X15618280Y30803717D01*
X15585641Y30781909D01*
X15551022Y30763404D01*
X15514756Y30748382D01*
X15477192Y30736987D01*
X15438692Y30729329D01*
X15399627Y30725482D01*
X15380482Y30725482D01*
X15380000Y30725000D01*
X14580000Y30725000D01*
X14580000Y31925000D01*
X14580000Y31925000D01*
G37*
D12*
G04 #@! TO.P,R9,2*
G04 #@! TO.N,/VOUT*
X15180000Y33865000D03*
D13*
G04 #@! TD*
G04 #@! TO.N,/VOUT*
G04 #@! TO.C,R9*
G36*
X14580000Y34465000D02*
X15380000Y34465000D01*
X15380482Y34464518D01*
X15399627Y34464518D01*
X15438692Y34460671D01*
X15477192Y34453013D01*
X15514756Y34441618D01*
X15551022Y34426596D01*
X15585641Y34408091D01*
X15618280Y34386283D01*
X15648624Y34361380D01*
X15676380Y34333624D01*
X15701283Y34303280D01*
X15723091Y34270641D01*
X15741596Y34236022D01*
X15756618Y34199756D01*
X15768013Y34162192D01*
X15775671Y34123692D01*
X15779518Y34084627D01*
X15779518Y34065482D01*
X15780000Y34065000D01*
X15780000Y33665000D01*
X15779518Y33664518D01*
X15779518Y33645373D01*
X15775671Y33606308D01*
X15768013Y33567808D01*
X15756618Y33530244D01*
X15741596Y33493978D01*
X15723091Y33459359D01*
X15701283Y33426720D01*
X15676380Y33396376D01*
X15648624Y33368620D01*
X15618280Y33343717D01*
X15585641Y33321909D01*
X15551022Y33303404D01*
X15514756Y33288382D01*
X15477192Y33276987D01*
X15438692Y33269329D01*
X15399627Y33265482D01*
X15380482Y33265482D01*
X15380000Y33265000D01*
X14580000Y33265000D01*
X14580000Y34465000D01*
X14580000Y34465000D01*
G37*
D12*
G04 #@! TO.P,R9,1*
G04 #@! TO.N,GND*
X12780000Y33865000D03*
D13*
G04 #@! TD*
G04 #@! TO.N,GND*
G04 #@! TO.C,R9*
G36*
X13380000Y33265000D02*
X12580000Y33265000D01*
X12579518Y33265482D01*
X12560373Y33265482D01*
X12521308Y33269329D01*
X12482808Y33276987D01*
X12445244Y33288382D01*
X12408978Y33303404D01*
X12374359Y33321909D01*
X12341720Y33343717D01*
X12311376Y33368620D01*
X12283620Y33396376D01*
X12258717Y33426720D01*
X12236909Y33459359D01*
X12218404Y33493978D01*
X12203382Y33530244D01*
X12191987Y33567808D01*
X12184329Y33606308D01*
X12180482Y33645373D01*
X12180482Y33664518D01*
X12180000Y33665000D01*
X12180000Y34065000D01*
X12180482Y34065482D01*
X12180482Y34084627D01*
X12184329Y34123692D01*
X12191987Y34162192D01*
X12203382Y34199756D01*
X12218404Y34236022D01*
X12236909Y34270641D01*
X12258717Y34303280D01*
X12283620Y34333624D01*
X12311376Y34361380D01*
X12341720Y34386283D01*
X12374359Y34408091D01*
X12408978Y34426596D01*
X12445244Y34441618D01*
X12482808Y34453013D01*
X12521308Y34460671D01*
X12560373Y34464518D01*
X12579518Y34464518D01*
X12580000Y34465000D01*
X13380000Y34465000D01*
X13380000Y33265000D01*
X13380000Y33265000D01*
G37*
D12*
G04 #@! TO.P,R5,2*
G04 #@! TO.N,/TWI_SCL*
X7630000Y38875000D03*
D13*
G04 #@! TD*
G04 #@! TO.N,/TWI_SCL*
G04 #@! TO.C,R5*
G36*
X7030000Y38275000D02*
X7030000Y39075000D01*
X7030482Y39075482D01*
X7030482Y39094627D01*
X7034329Y39133692D01*
X7041987Y39172192D01*
X7053382Y39209756D01*
X7068404Y39246022D01*
X7086909Y39280641D01*
X7108717Y39313280D01*
X7133620Y39343624D01*
X7161376Y39371380D01*
X7191720Y39396283D01*
X7224359Y39418091D01*
X7258978Y39436596D01*
X7295244Y39451618D01*
X7332808Y39463013D01*
X7371308Y39470671D01*
X7410373Y39474518D01*
X7429518Y39474518D01*
X7430000Y39475000D01*
X7830000Y39475000D01*
X7830482Y39474518D01*
X7849627Y39474518D01*
X7888692Y39470671D01*
X7927192Y39463013D01*
X7964756Y39451618D01*
X8001022Y39436596D01*
X8035641Y39418091D01*
X8068280Y39396283D01*
X8098624Y39371380D01*
X8126380Y39343624D01*
X8151283Y39313280D01*
X8173091Y39280641D01*
X8191596Y39246022D01*
X8206618Y39209756D01*
X8218013Y39172192D01*
X8225671Y39133692D01*
X8229518Y39094627D01*
X8229518Y39075482D01*
X8230000Y39075000D01*
X8230000Y38275000D01*
X7030000Y38275000D01*
X7030000Y38275000D01*
G37*
D12*
G04 #@! TO.P,R5,1*
G04 #@! TO.N,SCL*
X7630000Y36475000D03*
D13*
G04 #@! TD*
G04 #@! TO.N,SCL*
G04 #@! TO.C,R5*
G36*
X8230000Y37075000D02*
X8230000Y36275000D01*
X8229518Y36274518D01*
X8229518Y36255373D01*
X8225671Y36216308D01*
X8218013Y36177808D01*
X8206618Y36140244D01*
X8191596Y36103978D01*
X8173091Y36069359D01*
X8151283Y36036720D01*
X8126380Y36006376D01*
X8098624Y35978620D01*
X8068280Y35953717D01*
X8035641Y35931909D01*
X8001022Y35913404D01*
X7964756Y35898382D01*
X7927192Y35886987D01*
X7888692Y35879329D01*
X7849627Y35875482D01*
X7830482Y35875482D01*
X7830000Y35875000D01*
X7430000Y35875000D01*
X7429518Y35875482D01*
X7410373Y35875482D01*
X7371308Y35879329D01*
X7332808Y35886987D01*
X7295244Y35898382D01*
X7258978Y35913404D01*
X7224359Y35931909D01*
X7191720Y35953717D01*
X7161376Y35978620D01*
X7133620Y36006376D01*
X7108717Y36036720D01*
X7086909Y36069359D01*
X7068404Y36103978D01*
X7053382Y36140244D01*
X7041987Y36177808D01*
X7034329Y36216308D01*
X7030482Y36255373D01*
X7030482Y36274518D01*
X7030000Y36275000D01*
X7030000Y37075000D01*
X8230000Y37075000D01*
X8230000Y37075000D01*
G37*
D12*
G04 #@! TO.P,R3,2*
G04 #@! TO.N,/TWI_SDA*
X10170000Y38875000D03*
D13*
G04 #@! TD*
G04 #@! TO.N,/TWI_SDA*
G04 #@! TO.C,R3*
G36*
X9570000Y38275000D02*
X9570000Y39075000D01*
X9570482Y39075482D01*
X9570482Y39094627D01*
X9574329Y39133692D01*
X9581987Y39172192D01*
X9593382Y39209756D01*
X9608404Y39246022D01*
X9626909Y39280641D01*
X9648717Y39313280D01*
X9673620Y39343624D01*
X9701376Y39371380D01*
X9731720Y39396283D01*
X9764359Y39418091D01*
X9798978Y39436596D01*
X9835244Y39451618D01*
X9872808Y39463013D01*
X9911308Y39470671D01*
X9950373Y39474518D01*
X9969518Y39474518D01*
X9970000Y39475000D01*
X10370000Y39475000D01*
X10370482Y39474518D01*
X10389627Y39474518D01*
X10428692Y39470671D01*
X10467192Y39463013D01*
X10504756Y39451618D01*
X10541022Y39436596D01*
X10575641Y39418091D01*
X10608280Y39396283D01*
X10638624Y39371380D01*
X10666380Y39343624D01*
X10691283Y39313280D01*
X10713091Y39280641D01*
X10731596Y39246022D01*
X10746618Y39209756D01*
X10758013Y39172192D01*
X10765671Y39133692D01*
X10769518Y39094627D01*
X10769518Y39075482D01*
X10770000Y39075000D01*
X10770000Y38275000D01*
X9570000Y38275000D01*
X9570000Y38275000D01*
G37*
D12*
G04 #@! TO.P,R3,1*
G04 #@! TO.N,SDA*
X10170000Y36475000D03*
D13*
G04 #@! TD*
G04 #@! TO.N,SDA*
G04 #@! TO.C,R3*
G36*
X10770000Y37075000D02*
X10770000Y36275000D01*
X10769518Y36274518D01*
X10769518Y36255373D01*
X10765671Y36216308D01*
X10758013Y36177808D01*
X10746618Y36140244D01*
X10731596Y36103978D01*
X10713091Y36069359D01*
X10691283Y36036720D01*
X10666380Y36006376D01*
X10638624Y35978620D01*
X10608280Y35953717D01*
X10575641Y35931909D01*
X10541022Y35913404D01*
X10504756Y35898382D01*
X10467192Y35886987D01*
X10428692Y35879329D01*
X10389627Y35875482D01*
X10370482Y35875482D01*
X10370000Y35875000D01*
X9970000Y35875000D01*
X9969518Y35875482D01*
X9950373Y35875482D01*
X9911308Y35879329D01*
X9872808Y35886987D01*
X9835244Y35898382D01*
X9798978Y35913404D01*
X9764359Y35931909D01*
X9731720Y35953717D01*
X9701376Y35978620D01*
X9673620Y36006376D01*
X9648717Y36036720D01*
X9626909Y36069359D01*
X9608404Y36103978D01*
X9593382Y36140244D01*
X9581987Y36177808D01*
X9574329Y36216308D01*
X9570482Y36255373D01*
X9570482Y36274518D01*
X9570000Y36275000D01*
X9570000Y37075000D01*
X10770000Y37075000D01*
X10770000Y37075000D01*
G37*
D12*
G04 #@! TO.P,R7,2*
G04 #@! TO.N,V+*
X15250000Y38875000D03*
D13*
G04 #@! TD*
G04 #@! TO.N,V+*
G04 #@! TO.C,R7*
G36*
X14650000Y38275000D02*
X14650000Y39075000D01*
X14650482Y39075482D01*
X14650482Y39094627D01*
X14654329Y39133692D01*
X14661987Y39172192D01*
X14673382Y39209756D01*
X14688404Y39246022D01*
X14706909Y39280641D01*
X14728717Y39313280D01*
X14753620Y39343624D01*
X14781376Y39371380D01*
X14811720Y39396283D01*
X14844359Y39418091D01*
X14878978Y39436596D01*
X14915244Y39451618D01*
X14952808Y39463013D01*
X14991308Y39470671D01*
X15030373Y39474518D01*
X15049518Y39474518D01*
X15050000Y39475000D01*
X15450000Y39475000D01*
X15450482Y39474518D01*
X15469627Y39474518D01*
X15508692Y39470671D01*
X15547192Y39463013D01*
X15584756Y39451618D01*
X15621022Y39436596D01*
X15655641Y39418091D01*
X15688280Y39396283D01*
X15718624Y39371380D01*
X15746380Y39343624D01*
X15771283Y39313280D01*
X15793091Y39280641D01*
X15811596Y39246022D01*
X15826618Y39209756D01*
X15838013Y39172192D01*
X15845671Y39133692D01*
X15849518Y39094627D01*
X15849518Y39075482D01*
X15850000Y39075000D01*
X15850000Y38275000D01*
X14650000Y38275000D01*
X14650000Y38275000D01*
G37*
D12*
G04 #@! TO.P,R7,1*
G04 #@! TO.N,/VOUT*
X15250000Y36475000D03*
D13*
G04 #@! TD*
G04 #@! TO.N,/VOUT*
G04 #@! TO.C,R7*
G36*
X15850000Y37075000D02*
X15850000Y36275000D01*
X15849518Y36274518D01*
X15849518Y36255373D01*
X15845671Y36216308D01*
X15838013Y36177808D01*
X15826618Y36140244D01*
X15811596Y36103978D01*
X15793091Y36069359D01*
X15771283Y36036720D01*
X15746380Y36006376D01*
X15718624Y35978620D01*
X15688280Y35953717D01*
X15655641Y35931909D01*
X15621022Y35913404D01*
X15584756Y35898382D01*
X15547192Y35886987D01*
X15508692Y35879329D01*
X15469627Y35875482D01*
X15450482Y35875482D01*
X15450000Y35875000D01*
X15050000Y35875000D01*
X15049518Y35875482D01*
X15030373Y35875482D01*
X14991308Y35879329D01*
X14952808Y35886987D01*
X14915244Y35898382D01*
X14878978Y35913404D01*
X14844359Y35931909D01*
X14811720Y35953717D01*
X14781376Y35978620D01*
X14753620Y36006376D01*
X14728717Y36036720D01*
X14706909Y36069359D01*
X14688404Y36103978D01*
X14673382Y36140244D01*
X14661987Y36177808D01*
X14654329Y36216308D01*
X14650482Y36255373D01*
X14650482Y36274518D01*
X14650000Y36275000D01*
X14650000Y37075000D01*
X15850000Y37075000D01*
X15850000Y37075000D01*
G37*
D15*
G04 #@! TO.P,SW1,2*
G04 #@! TO.N,GND*
X40140000Y2200000D03*
G04 #@! TO.P,SW1,1*
G04 #@! TO.N,Net-(SW1-Pad1)*
X33540000Y2200000D03*
G04 #@! TD*
G04 #@! TO.P,SW2,2*
G04 #@! TO.N,GND*
X29980000Y2200000D03*
G04 #@! TO.P,SW2,1*
G04 #@! TO.N,Net-(SW2-Pad1)*
X23380000Y2200000D03*
G04 #@! TD*
G04 #@! TO.P,SW3,2*
G04 #@! TO.N,GND*
X13220000Y2200000D03*
G04 #@! TO.P,SW3,1*
G04 #@! TO.N,Net-(SW3-Pad1)*
X19820000Y2200000D03*
G04 #@! TD*
G04 #@! TO.P,SW4,2*
G04 #@! TO.N,GND*
X3060000Y2200000D03*
G04 #@! TO.P,SW4,1*
G04 #@! TO.N,Net-(SW4-Pad1)*
X9660000Y2200000D03*
G04 #@! TD*
D16*
G04 #@! TO.P,U1,32*
G04 #@! TO.N,AVCC*
X24400000Y23600000D03*
G04 #@! TO.P,U1,31*
G04 #@! TO.N,/VREF*
X23600000Y23600000D03*
G04 #@! TO.P,U1,30*
G04 #@! TO.N,IREF*
X22800000Y23600000D03*
G04 #@! TO.P,U1,29*
G04 #@! TO.N,IOUT*
X22000000Y23600000D03*
G04 #@! TO.P,U1,28*
G04 #@! TO.N,/VOUT*
X21200000Y23600000D03*
G04 #@! TO.P,U1,27*
G04 #@! TO.N,SCLK*
X20400000Y23600000D03*
G04 #@! TO.P,U1,26*
G04 #@! TO.N,RST*
X19600000Y23600000D03*
G04 #@! TO.P,U1,25*
G04 #@! TO.N,SDIN*
X18800000Y23600000D03*
D17*
G04 #@! TO.P,U1,24*
G04 #@! TO.N,SCE*
X17000000Y21800000D03*
G04 #@! TO.P,U1,23*
G04 #@! TO.N,DC*
X17000000Y21000000D03*
G04 #@! TO.P,U1,22*
G04 #@! TO.N,Net-(U1-Pad22)*
X17000000Y20200000D03*
G04 #@! TO.P,U1,21*
G04 #@! TO.N,Net-(R16-Pad1)*
X17000000Y19400000D03*
G04 #@! TO.P,U1,20*
G04 #@! TO.N,Net-(R19-Pad1)*
X17000000Y18600000D03*
G04 #@! TO.P,U1,19*
G04 #@! TO.N,Net-(R15-Pad1)*
X17000000Y17800000D03*
G04 #@! TO.P,U1,18*
G04 #@! TO.N,GND*
X17000000Y17000000D03*
G04 #@! TO.P,U1,17*
G04 #@! TO.N,VCC*
X17000000Y16200000D03*
D16*
G04 #@! TO.P,U1,16*
G04 #@! TO.N,SDA*
X18800000Y14400000D03*
G04 #@! TO.P,U1,15*
G04 #@! TO.N,SCL*
X19600000Y14400000D03*
G04 #@! TO.P,U1,14*
G04 #@! TO.N,Net-(SW4-Pad1)*
X20400000Y14400000D03*
G04 #@! TO.P,U1,13*
G04 #@! TO.N,Net-(SW3-Pad1)*
X21200000Y14400000D03*
G04 #@! TO.P,U1,12*
G04 #@! TO.N,Net-(SW2-Pad1)*
X22000000Y14400000D03*
G04 #@! TO.P,U1,11*
G04 #@! TO.N,Net-(SW1-Pad1)*
X22800000Y14400000D03*
G04 #@! TO.P,U1,10*
G04 #@! TO.N,RxD*
X23600000Y14400000D03*
G04 #@! TO.P,U1,9*
G04 #@! TO.N,Net-(U1-Pad9)*
X24400000Y14400000D03*
D17*
G04 #@! TO.P,U1,8*
G04 #@! TO.N,/PDI_CLK*
X26200000Y16200000D03*
G04 #@! TO.P,U1,7*
G04 #@! TO.N,/PDI_DATA*
X26200000Y17000000D03*
G04 #@! TO.P,U1,6*
G04 #@! TO.N,AREF*
X26200000Y17800000D03*
G04 #@! TO.P,U1,5*
G04 #@! TO.N,TxD*
X26200000Y18600000D03*
G04 #@! TO.P,U1,4*
G04 #@! TO.N,Net-(R18-Pad1)*
X26200000Y19400000D03*
G04 #@! TO.P,U1,3*
G04 #@! TO.N,Net-(R20-Pad1)*
X26200000Y20200000D03*
G04 #@! TO.P,U1,2*
G04 #@! TO.N,Net-(R17-Pad1)*
X26200000Y21000000D03*
G04 #@! TO.P,U1,1*
G04 #@! TO.N,GND*
X26200000Y21800000D03*
G04 #@! TD*
D10*
G04 #@! TO.P,Z2,5*
G04 #@! TO.N,/UART_RxD*
X35570000Y41485000D03*
G04 #@! TO.P,Z2,4*
G04 #@! TO.N,/UART_TxD*
X33030000Y41485000D03*
G04 #@! TO.P,Z2,3*
G04 #@! TO.N,GND*
X30490000Y41485000D03*
G04 #@! TO.P,Z2,2*
G04 #@! TO.N,V-*
X27950000Y41485000D03*
G04 #@! TO.P,Z2,1*
G04 #@! TO.N,/I-*
X25410000Y41485000D03*
G04 #@! TD*
G04 #@! TO.P,Z1,5*
G04 #@! TO.N,/I+*
X17790000Y41485000D03*
G04 #@! TO.P,Z1,4*
G04 #@! TO.N,V+*
X15250000Y41485000D03*
G04 #@! TO.P,Z1,3*
G04 #@! TO.N,VIN*
X12710000Y41485000D03*
G04 #@! TO.P,Z1,2*
G04 #@! TO.N,/TWI_SDA*
X10170000Y41485000D03*
G04 #@! TO.P,Z1,1*
G04 #@! TO.N,/TWI_SCL*
X7630000Y41485000D03*
G04 #@! TD*
D16*
G04 #@! TO.P,U3,3*
G04 #@! TO.N,GND*
X8900000Y6300000D03*
G04 #@! TO.P,U3,2*
G04 #@! TO.N,Net-(C3-Pad1)*
X9850000Y9400000D03*
G04 #@! TO.P,U3,1*
G04 #@! TO.N,Net-(C1-Pad1)*
X7950000Y9400000D03*
G04 #@! TD*
D17*
G04 #@! TO.P,U4,5*
G04 #@! TO.N,IREF*
X23400000Y37675000D03*
G04 #@! TO.P,U4,6*
G04 #@! TO.N,VS*
X23400000Y36725000D03*
G04 #@! TO.P,U4,4*
G04 #@! TO.N,/I-*
X23400000Y38625000D03*
G04 #@! TO.P,U4,3*
G04 #@! TO.N,/I+*
X19800000Y38625000D03*
G04 #@! TO.P,U4,2*
G04 #@! TO.N,GND*
X19800000Y37675000D03*
G04 #@! TO.P,U4,1*
G04 #@! TO.N,Net-(R4-Pad2)*
X19800000Y36725000D03*
G04 #@! TD*
G04 #@! TO.P,U2,5*
G04 #@! TO.N,GND*
X35500000Y16720000D03*
G04 #@! TO.P,U2,6*
G04 #@! TO.N,VCC*
X35500000Y15770000D03*
G04 #@! TO.P,U2,4*
X35500000Y17670000D03*
G04 #@! TO.P,U2,3*
G04 #@! TO.N,GND*
X31900000Y17670000D03*
G04 #@! TO.P,U2,2*
X31900000Y16720000D03*
G04 #@! TO.P,U2,1*
G04 #@! TO.N,AREF*
X31900000Y15770000D03*
G04 #@! TD*
D12*
G04 #@! TO.P,R17,2*
G04 #@! TO.N,Net-(D8-Pad2)*
X35500000Y28150000D03*
D13*
G04 #@! TD*
G04 #@! TO.N,Net-(D8-Pad2)*
G04 #@! TO.C,R17*
G36*
X34900000Y28750000D02*
X35700000Y28750000D01*
X35700482Y28749518D01*
X35719627Y28749518D01*
X35758692Y28745671D01*
X35797192Y28738013D01*
X35834756Y28726618D01*
X35871022Y28711596D01*
X35905641Y28693091D01*
X35938280Y28671283D01*
X35968624Y28646380D01*
X35996380Y28618624D01*
X36021283Y28588280D01*
X36043091Y28555641D01*
X36061596Y28521022D01*
X36076618Y28484756D01*
X36088013Y28447192D01*
X36095671Y28408692D01*
X36099518Y28369627D01*
X36099518Y28350482D01*
X36100000Y28350000D01*
X36100000Y27950000D01*
X36099518Y27949518D01*
X36099518Y27930373D01*
X36095671Y27891308D01*
X36088013Y27852808D01*
X36076618Y27815244D01*
X36061596Y27778978D01*
X36043091Y27744359D01*
X36021283Y27711720D01*
X35996380Y27681376D01*
X35968624Y27653620D01*
X35938280Y27628717D01*
X35905641Y27606909D01*
X35871022Y27588404D01*
X35834756Y27573382D01*
X35797192Y27561987D01*
X35758692Y27554329D01*
X35719627Y27550482D01*
X35700482Y27550482D01*
X35700000Y27550000D01*
X34900000Y27550000D01*
X34900000Y28750000D01*
X34900000Y28750000D01*
G37*
D12*
G04 #@! TO.P,R17,1*
G04 #@! TO.N,Net-(R17-Pad1)*
X33100000Y28150000D03*
D13*
G04 #@! TD*
G04 #@! TO.N,Net-(R17-Pad1)*
G04 #@! TO.C,R17*
G36*
X33700000Y27550000D02*
X32900000Y27550000D01*
X32899518Y27550482D01*
X32880373Y27550482D01*
X32841308Y27554329D01*
X32802808Y27561987D01*
X32765244Y27573382D01*
X32728978Y27588404D01*
X32694359Y27606909D01*
X32661720Y27628717D01*
X32631376Y27653620D01*
X32603620Y27681376D01*
X32578717Y27711720D01*
X32556909Y27744359D01*
X32538404Y27778978D01*
X32523382Y27815244D01*
X32511987Y27852808D01*
X32504329Y27891308D01*
X32500482Y27930373D01*
X32500482Y27949518D01*
X32500000Y27950000D01*
X32500000Y28350000D01*
X32500482Y28350482D01*
X32500482Y28369627D01*
X32504329Y28408692D01*
X32511987Y28447192D01*
X32523382Y28484756D01*
X32538404Y28521022D01*
X32556909Y28555641D01*
X32578717Y28588280D01*
X32603620Y28618624D01*
X32631376Y28646380D01*
X32661720Y28671283D01*
X32694359Y28693091D01*
X32728978Y28711596D01*
X32765244Y28726618D01*
X32802808Y28738013D01*
X32841308Y28745671D01*
X32880373Y28749518D01*
X32899518Y28749518D01*
X32900000Y28750000D01*
X33700000Y28750000D01*
X33700000Y27550000D01*
X33700000Y27550000D01*
G37*
D12*
G04 #@! TO.P,R18,1*
G04 #@! TO.N,Net-(R18-Pad1)*
X33100000Y23070000D03*
D13*
G04 #@! TD*
G04 #@! TO.N,Net-(R18-Pad1)*
G04 #@! TO.C,R18*
G36*
X33700000Y22470000D02*
X32900000Y22470000D01*
X32899518Y22470482D01*
X32880373Y22470482D01*
X32841308Y22474329D01*
X32802808Y22481987D01*
X32765244Y22493382D01*
X32728978Y22508404D01*
X32694359Y22526909D01*
X32661720Y22548717D01*
X32631376Y22573620D01*
X32603620Y22601376D01*
X32578717Y22631720D01*
X32556909Y22664359D01*
X32538404Y22698978D01*
X32523382Y22735244D01*
X32511987Y22772808D01*
X32504329Y22811308D01*
X32500482Y22850373D01*
X32500482Y22869518D01*
X32500000Y22870000D01*
X32500000Y23270000D01*
X32500482Y23270482D01*
X32500482Y23289627D01*
X32504329Y23328692D01*
X32511987Y23367192D01*
X32523382Y23404756D01*
X32538404Y23441022D01*
X32556909Y23475641D01*
X32578717Y23508280D01*
X32603620Y23538624D01*
X32631376Y23566380D01*
X32661720Y23591283D01*
X32694359Y23613091D01*
X32728978Y23631596D01*
X32765244Y23646618D01*
X32802808Y23658013D01*
X32841308Y23665671D01*
X32880373Y23669518D01*
X32899518Y23669518D01*
X32900000Y23670000D01*
X33700000Y23670000D01*
X33700000Y22470000D01*
X33700000Y22470000D01*
G37*
D12*
G04 #@! TO.P,R18,2*
G04 #@! TO.N,Net-(D9-Pad2)*
X35500000Y23070000D03*
D13*
G04 #@! TD*
G04 #@! TO.N,Net-(D9-Pad2)*
G04 #@! TO.C,R18*
G36*
X34900000Y23670000D02*
X35700000Y23670000D01*
X35700482Y23669518D01*
X35719627Y23669518D01*
X35758692Y23665671D01*
X35797192Y23658013D01*
X35834756Y23646618D01*
X35871022Y23631596D01*
X35905641Y23613091D01*
X35938280Y23591283D01*
X35968624Y23566380D01*
X35996380Y23538624D01*
X36021283Y23508280D01*
X36043091Y23475641D01*
X36061596Y23441022D01*
X36076618Y23404756D01*
X36088013Y23367192D01*
X36095671Y23328692D01*
X36099518Y23289627D01*
X36099518Y23270482D01*
X36100000Y23270000D01*
X36100000Y22870000D01*
X36099518Y22869518D01*
X36099518Y22850373D01*
X36095671Y22811308D01*
X36088013Y22772808D01*
X36076618Y22735244D01*
X36061596Y22698978D01*
X36043091Y22664359D01*
X36021283Y22631720D01*
X35996380Y22601376D01*
X35968624Y22573620D01*
X35938280Y22548717D01*
X35905641Y22526909D01*
X35871022Y22508404D01*
X35834756Y22493382D01*
X35797192Y22481987D01*
X35758692Y22474329D01*
X35719627Y22470482D01*
X35700482Y22470482D01*
X35700000Y22470000D01*
X34900000Y22470000D01*
X34900000Y23670000D01*
X34900000Y23670000D01*
G37*
D12*
G04 #@! TO.P,R20,2*
G04 #@! TO.N,Net-(D11-Pad2)*
X35500000Y25610000D03*
D13*
G04 #@! TD*
G04 #@! TO.N,Net-(D11-Pad2)*
G04 #@! TO.C,R20*
G36*
X34900000Y26210000D02*
X35700000Y26210000D01*
X35700482Y26209518D01*
X35719627Y26209518D01*
X35758692Y26205671D01*
X35797192Y26198013D01*
X35834756Y26186618D01*
X35871022Y26171596D01*
X35905641Y26153091D01*
X35938280Y26131283D01*
X35968624Y26106380D01*
X35996380Y26078624D01*
X36021283Y26048280D01*
X36043091Y26015641D01*
X36061596Y25981022D01*
X36076618Y25944756D01*
X36088013Y25907192D01*
X36095671Y25868692D01*
X36099518Y25829627D01*
X36099518Y25810482D01*
X36100000Y25810000D01*
X36100000Y25410000D01*
X36099518Y25409518D01*
X36099518Y25390373D01*
X36095671Y25351308D01*
X36088013Y25312808D01*
X36076618Y25275244D01*
X36061596Y25238978D01*
X36043091Y25204359D01*
X36021283Y25171720D01*
X35996380Y25141376D01*
X35968624Y25113620D01*
X35938280Y25088717D01*
X35905641Y25066909D01*
X35871022Y25048404D01*
X35834756Y25033382D01*
X35797192Y25021987D01*
X35758692Y25014329D01*
X35719627Y25010482D01*
X35700482Y25010482D01*
X35700000Y25010000D01*
X34900000Y25010000D01*
X34900000Y26210000D01*
X34900000Y26210000D01*
G37*
D12*
G04 #@! TO.P,R20,1*
G04 #@! TO.N,Net-(R20-Pad1)*
X33100000Y25610000D03*
D13*
G04 #@! TD*
G04 #@! TO.N,Net-(R20-Pad1)*
G04 #@! TO.C,R20*
G36*
X33700000Y25010000D02*
X32900000Y25010000D01*
X32899518Y25010482D01*
X32880373Y25010482D01*
X32841308Y25014329D01*
X32802808Y25021987D01*
X32765244Y25033382D01*
X32728978Y25048404D01*
X32694359Y25066909D01*
X32661720Y25088717D01*
X32631376Y25113620D01*
X32603620Y25141376D01*
X32578717Y25171720D01*
X32556909Y25204359D01*
X32538404Y25238978D01*
X32523382Y25275244D01*
X32511987Y25312808D01*
X32504329Y25351308D01*
X32500482Y25390373D01*
X32500482Y25409518D01*
X32500000Y25410000D01*
X32500000Y25810000D01*
X32500482Y25810482D01*
X32500482Y25829627D01*
X32504329Y25868692D01*
X32511987Y25907192D01*
X32523382Y25944756D01*
X32538404Y25981022D01*
X32556909Y26015641D01*
X32578717Y26048280D01*
X32603620Y26078624D01*
X32631376Y26106380D01*
X32661720Y26131283D01*
X32694359Y26153091D01*
X32728978Y26171596D01*
X32765244Y26186618D01*
X32802808Y26198013D01*
X32841308Y26205671D01*
X32880373Y26209518D01*
X32899518Y26209518D01*
X32900000Y26210000D01*
X33700000Y26210000D01*
X33700000Y25010000D01*
X33700000Y25010000D01*
G37*
D12*
G04 #@! TO.P,R19,1*
G04 #@! TO.N,Net-(R19-Pad1)*
X10100000Y25610000D03*
D13*
G04 #@! TD*
G04 #@! TO.N,Net-(R19-Pad1)*
G04 #@! TO.C,R19*
G36*
X9500000Y26210000D02*
X10300000Y26210000D01*
X10300482Y26209518D01*
X10319627Y26209518D01*
X10358692Y26205671D01*
X10397192Y26198013D01*
X10434756Y26186618D01*
X10471022Y26171596D01*
X10505641Y26153091D01*
X10538280Y26131283D01*
X10568624Y26106380D01*
X10596380Y26078624D01*
X10621283Y26048280D01*
X10643091Y26015641D01*
X10661596Y25981022D01*
X10676618Y25944756D01*
X10688013Y25907192D01*
X10695671Y25868692D01*
X10699518Y25829627D01*
X10699518Y25810482D01*
X10700000Y25810000D01*
X10700000Y25410000D01*
X10699518Y25409518D01*
X10699518Y25390373D01*
X10695671Y25351308D01*
X10688013Y25312808D01*
X10676618Y25275244D01*
X10661596Y25238978D01*
X10643091Y25204359D01*
X10621283Y25171720D01*
X10596380Y25141376D01*
X10568624Y25113620D01*
X10538280Y25088717D01*
X10505641Y25066909D01*
X10471022Y25048404D01*
X10434756Y25033382D01*
X10397192Y25021987D01*
X10358692Y25014329D01*
X10319627Y25010482D01*
X10300482Y25010482D01*
X10300000Y25010000D01*
X9500000Y25010000D01*
X9500000Y26210000D01*
X9500000Y26210000D01*
G37*
D12*
G04 #@! TO.P,R19,2*
G04 #@! TO.N,Net-(D10-Pad2)*
X7700000Y25610000D03*
D13*
G04 #@! TD*
G04 #@! TO.N,Net-(D10-Pad2)*
G04 #@! TO.C,R19*
G36*
X8300000Y25010000D02*
X7500000Y25010000D01*
X7499518Y25010482D01*
X7480373Y25010482D01*
X7441308Y25014329D01*
X7402808Y25021987D01*
X7365244Y25033382D01*
X7328978Y25048404D01*
X7294359Y25066909D01*
X7261720Y25088717D01*
X7231376Y25113620D01*
X7203620Y25141376D01*
X7178717Y25171720D01*
X7156909Y25204359D01*
X7138404Y25238978D01*
X7123382Y25275244D01*
X7111987Y25312808D01*
X7104329Y25351308D01*
X7100482Y25390373D01*
X7100482Y25409518D01*
X7100000Y25410000D01*
X7100000Y25810000D01*
X7100482Y25810482D01*
X7100482Y25829627D01*
X7104329Y25868692D01*
X7111987Y25907192D01*
X7123382Y25944756D01*
X7138404Y25981022D01*
X7156909Y26015641D01*
X7178717Y26048280D01*
X7203620Y26078624D01*
X7231376Y26106380D01*
X7261720Y26131283D01*
X7294359Y26153091D01*
X7328978Y26171596D01*
X7365244Y26186618D01*
X7402808Y26198013D01*
X7441308Y26205671D01*
X7480373Y26209518D01*
X7499518Y26209518D01*
X7500000Y26210000D01*
X8300000Y26210000D01*
X8300000Y25010000D01*
X8300000Y25010000D01*
G37*
D12*
G04 #@! TO.P,R16,2*
G04 #@! TO.N,Net-(D7-Pad2)*
X7700000Y28150000D03*
D13*
G04 #@! TD*
G04 #@! TO.N,Net-(D7-Pad2)*
G04 #@! TO.C,R16*
G36*
X8300000Y27550000D02*
X7500000Y27550000D01*
X7499518Y27550482D01*
X7480373Y27550482D01*
X7441308Y27554329D01*
X7402808Y27561987D01*
X7365244Y27573382D01*
X7328978Y27588404D01*
X7294359Y27606909D01*
X7261720Y27628717D01*
X7231376Y27653620D01*
X7203620Y27681376D01*
X7178717Y27711720D01*
X7156909Y27744359D01*
X7138404Y27778978D01*
X7123382Y27815244D01*
X7111987Y27852808D01*
X7104329Y27891308D01*
X7100482Y27930373D01*
X7100482Y27949518D01*
X7100000Y27950000D01*
X7100000Y28350000D01*
X7100482Y28350482D01*
X7100482Y28369627D01*
X7104329Y28408692D01*
X7111987Y28447192D01*
X7123382Y28484756D01*
X7138404Y28521022D01*
X7156909Y28555641D01*
X7178717Y28588280D01*
X7203620Y28618624D01*
X7231376Y28646380D01*
X7261720Y28671283D01*
X7294359Y28693091D01*
X7328978Y28711596D01*
X7365244Y28726618D01*
X7402808Y28738013D01*
X7441308Y28745671D01*
X7480373Y28749518D01*
X7499518Y28749518D01*
X7500000Y28750000D01*
X8300000Y28750000D01*
X8300000Y27550000D01*
X8300000Y27550000D01*
G37*
D12*
G04 #@! TO.P,R16,1*
G04 #@! TO.N,Net-(R16-Pad1)*
X10100000Y28150000D03*
D13*
G04 #@! TD*
G04 #@! TO.N,Net-(R16-Pad1)*
G04 #@! TO.C,R16*
G36*
X9500000Y28750000D02*
X10300000Y28750000D01*
X10300482Y28749518D01*
X10319627Y28749518D01*
X10358692Y28745671D01*
X10397192Y28738013D01*
X10434756Y28726618D01*
X10471022Y28711596D01*
X10505641Y28693091D01*
X10538280Y28671283D01*
X10568624Y28646380D01*
X10596380Y28618624D01*
X10621283Y28588280D01*
X10643091Y28555641D01*
X10661596Y28521022D01*
X10676618Y28484756D01*
X10688013Y28447192D01*
X10695671Y28408692D01*
X10699518Y28369627D01*
X10699518Y28350482D01*
X10700000Y28350000D01*
X10700000Y27950000D01*
X10699518Y27949518D01*
X10699518Y27930373D01*
X10695671Y27891308D01*
X10688013Y27852808D01*
X10676618Y27815244D01*
X10661596Y27778978D01*
X10643091Y27744359D01*
X10621283Y27711720D01*
X10596380Y27681376D01*
X10568624Y27653620D01*
X10538280Y27628717D01*
X10505641Y27606909D01*
X10471022Y27588404D01*
X10434756Y27573382D01*
X10397192Y27561987D01*
X10358692Y27554329D01*
X10319627Y27550482D01*
X10300482Y27550482D01*
X10300000Y27550000D01*
X9500000Y27550000D01*
X9500000Y28750000D01*
X9500000Y28750000D01*
G37*
D12*
G04 #@! TO.P,R15,1*
G04 #@! TO.N,Net-(R15-Pad1)*
X10100000Y23070000D03*
D13*
G04 #@! TD*
G04 #@! TO.N,Net-(R15-Pad1)*
G04 #@! TO.C,R15*
G36*
X9500000Y23670000D02*
X10300000Y23670000D01*
X10300482Y23669518D01*
X10319627Y23669518D01*
X10358692Y23665671D01*
X10397192Y23658013D01*
X10434756Y23646618D01*
X10471022Y23631596D01*
X10505641Y23613091D01*
X10538280Y23591283D01*
X10568624Y23566380D01*
X10596380Y23538624D01*
X10621283Y23508280D01*
X10643091Y23475641D01*
X10661596Y23441022D01*
X10676618Y23404756D01*
X10688013Y23367192D01*
X10695671Y23328692D01*
X10699518Y23289627D01*
X10699518Y23270482D01*
X10700000Y23270000D01*
X10700000Y22870000D01*
X10699518Y22869518D01*
X10699518Y22850373D01*
X10695671Y22811308D01*
X10688013Y22772808D01*
X10676618Y22735244D01*
X10661596Y22698978D01*
X10643091Y22664359D01*
X10621283Y22631720D01*
X10596380Y22601376D01*
X10568624Y22573620D01*
X10538280Y22548717D01*
X10505641Y22526909D01*
X10471022Y22508404D01*
X10434756Y22493382D01*
X10397192Y22481987D01*
X10358692Y22474329D01*
X10319627Y22470482D01*
X10300482Y22470482D01*
X10300000Y22470000D01*
X9500000Y22470000D01*
X9500000Y23670000D01*
X9500000Y23670000D01*
G37*
D12*
G04 #@! TO.P,R15,2*
G04 #@! TO.N,Net-(D6-Pad2)*
X7700000Y23070000D03*
D13*
G04 #@! TD*
G04 #@! TO.N,Net-(D6-Pad2)*
G04 #@! TO.C,R15*
G36*
X8300000Y22470000D02*
X7500000Y22470000D01*
X7499518Y22470482D01*
X7480373Y22470482D01*
X7441308Y22474329D01*
X7402808Y22481987D01*
X7365244Y22493382D01*
X7328978Y22508404D01*
X7294359Y22526909D01*
X7261720Y22548717D01*
X7231376Y22573620D01*
X7203620Y22601376D01*
X7178717Y22631720D01*
X7156909Y22664359D01*
X7138404Y22698978D01*
X7123382Y22735244D01*
X7111987Y22772808D01*
X7104329Y22811308D01*
X7100482Y22850373D01*
X7100482Y22869518D01*
X7100000Y22870000D01*
X7100000Y23270000D01*
X7100482Y23270482D01*
X7100482Y23289627D01*
X7104329Y23328692D01*
X7111987Y23367192D01*
X7123382Y23404756D01*
X7138404Y23441022D01*
X7156909Y23475641D01*
X7178717Y23508280D01*
X7203620Y23538624D01*
X7231376Y23566380D01*
X7261720Y23591283D01*
X7294359Y23613091D01*
X7328978Y23631596D01*
X7365244Y23646618D01*
X7402808Y23658013D01*
X7441308Y23665671D01*
X7480373Y23669518D01*
X7499518Y23669518D01*
X7500000Y23670000D01*
X8300000Y23670000D01*
X8300000Y22470000D01*
X8300000Y22470000D01*
G37*
D18*
G04 #@! TO.N,GND*
X5100000Y37700000D03*
X38100000Y35900000D03*
X38100000Y37700000D03*
X12800000Y29200000D03*
X13980000Y21673000D03*
X5100000Y35900000D03*
X19300000Y16700000D03*
X23900000Y16700000D03*
X21600000Y39500000D03*
X33700000Y16720000D03*
X38700000Y20000000D03*
X38700000Y14200000D03*
X4500000Y14200000D03*
X4500000Y20000000D03*
X11700000Y10700000D03*
X10000000Y6300000D03*
X7800000Y6300000D03*
G04 #@! TO.N,TxD*
X31000000Y20000000D03*
X33030000Y35135000D03*
G04 #@! TO.N,SDA*
X17000000Y14400000D03*
X10170000Y35135000D03*
G04 #@! TO.N,RxD*
X35570000Y35135000D03*
X26200000Y14400000D03*
G04 #@! TO.N,SCL*
X17000000Y12400000D03*
X7630000Y35135000D03*
G04 #@! TO.N,SCLK*
X23200000Y21500000D03*
G04 #@! TO.N,SDIN*
X21600000Y19900000D03*
G04 #@! TO.N,VIN*
X14200000Y16100000D03*
X12710000Y36786000D03*
G04 #@! TO.N,DC*
X19300000Y19900000D03*
G04 #@! TO.N,RST*
X15100000Y29200000D03*
G04 #@! TO.N,SCE*
X17000000Y23600000D03*
G04 #@! TO.N,VCC*
X25100000Y29500000D03*
X26200000Y23600000D03*
X24500000Y7200000D03*
X18700000Y7200000D03*
X35500000Y19000000D03*
X35500000Y14400000D03*
G04 #@! TO.N,Net-(C10-Pad2)*
X13980000Y27007000D03*
G04 #@! TO.N,Net-(D6-Pad2)*
X6100000Y23070000D03*
G04 #@! TO.N,Net-(D7-Pad2)*
X6100000Y28150000D03*
G04 #@! TO.N,Net-(D8-Pad2)*
X37100000Y28150000D03*
G04 #@! TO.N,Net-(D9-Pad2)*
X37100000Y23070000D03*
G04 #@! TO.N,Net-(D11-Pad2)*
X37100000Y25610000D03*
G04 #@! TO.N,Net-(D10-Pad2)*
X6100000Y25610000D03*
G04 #@! TD*
D19*
G04 #@! TO.N,GND*
X13980000Y23140000D02*
X13980000Y21546000D01*
X20330000Y31400000D02*
X20330000Y33865000D01*
X21600000Y35600000D02*
X20400000Y34400000D01*
X20400000Y33865000D02*
X20400000Y34400000D01*
X12800000Y29200000D02*
X12800000Y31325000D01*
X21600000Y37675000D02*
X21600000Y39500000D01*
X21600000Y35600000D02*
X21600000Y37675000D01*
X30420000Y31325000D02*
X30420000Y28715000D01*
D20*
X19800000Y37675000D02*
X21600000Y37675000D01*
D19*
X30490000Y41485000D02*
X30490000Y33865000D01*
D20*
X24700000Y21300000D02*
X24700000Y17500000D01*
X24700000Y17500000D02*
X23900000Y16700000D01*
X17000000Y17000000D02*
X19300000Y17000000D01*
X25200000Y21800000D02*
X24700000Y21300000D01*
X25200000Y21800000D02*
X26200000Y21800000D01*
D19*
X12780000Y31325000D02*
X12780000Y33865000D01*
X30420000Y33865000D02*
X30420000Y31325000D01*
X7630000Y31395000D02*
X10170000Y31395000D01*
D20*
X31900000Y16720000D02*
X33700000Y16720000D01*
X33700000Y16720000D02*
X35500000Y16720000D01*
X31900000Y17670000D02*
X32670000Y17670000D01*
G04 #@! TO.N,Net-(SW2-Pad1)*
X23380000Y4120000D02*
X23380000Y2200000D01*
X22000000Y14000000D02*
X22000000Y5500000D01*
X23380000Y4120000D02*
X22000000Y5500000D01*
G04 #@! TO.N,Net-(SW4-Pad1)*
X18600000Y4500000D02*
X11960000Y4500000D01*
X11960000Y4500000D02*
X9660000Y2200000D01*
X20400000Y6300000D02*
X20400000Y14000000D01*
X18600000Y4500000D02*
X20400000Y6300000D01*
G04 #@! TO.N,Net-(SW1-Pad1)*
X24600000Y4500000D02*
X31240000Y4500000D01*
X31240000Y4500000D02*
X33540000Y2200000D01*
X22800000Y6300000D02*
X22800000Y14000000D01*
X24600000Y4500000D02*
X22800000Y6300000D01*
G04 #@! TO.N,Net-(SW3-Pad1)*
X19820000Y4120000D02*
X19820000Y2200000D01*
X21200000Y14000000D02*
X21200000Y5500000D01*
X19820000Y4120000D02*
X21200000Y5500000D01*
G04 #@! TO.N,V+*
X15250000Y41485000D02*
X15250000Y38875000D01*
G04 #@! TO.N,V-*
X27950000Y41485000D02*
X27950000Y38875000D01*
D19*
G04 #@! TO.N,TxD*
X33030000Y35135000D02*
X33030000Y33795000D01*
X33030000Y36475000D02*
X33030000Y35135000D01*
D20*
X26200000Y18600000D02*
X29600000Y18600000D01*
X29600000Y18600000D02*
X31000000Y20000000D01*
G04 #@! TO.N,SDA*
X18800000Y14400000D02*
X17000000Y14400000D01*
D19*
X10170000Y35135000D02*
X10170000Y36475000D01*
X10170000Y35135000D02*
X10170000Y33795000D01*
D20*
G04 #@! TO.N,RxD*
X24100000Y12900000D02*
X24700000Y12900000D01*
X24700000Y12900000D02*
X26200000Y14400000D01*
X23600000Y13400000D02*
X24100000Y12900000D01*
X23600000Y14400000D02*
X23600000Y13400000D01*
D19*
X35570000Y35135000D02*
X35570000Y36475000D01*
X35570000Y33795000D02*
X35570000Y35135000D01*
D20*
G04 #@! TO.N,SCL*
X17000000Y12400000D02*
X18600000Y12400000D01*
X18600000Y12400000D02*
X19600000Y13400000D01*
X19600000Y14400000D02*
X19600000Y13400000D01*
D19*
X7630000Y35135000D02*
X7630000Y33795000D01*
X7630000Y36475000D02*
X7630000Y35135000D01*
D20*
G04 #@! TO.N,SCLK*
X20400000Y22700000D02*
X21600000Y21500000D01*
X21600000Y21500000D02*
X23200000Y21500000D01*
X20400000Y23600000D02*
X20400000Y22700000D01*
G04 #@! TO.N,SDIN*
X21600000Y19900000D02*
X18800000Y22700000D01*
X18800000Y22700000D02*
X18800000Y23600000D01*
D21*
G04 #@! TO.N,VIN*
X12710000Y36786000D02*
X12710000Y41485000D01*
D20*
G04 #@! TO.N,AVCC*
X25900000Y26000000D02*
X27950000Y26000000D01*
X24400000Y24500000D02*
X25900000Y26000000D01*
X24400000Y23600000D02*
X24400000Y24500000D01*
X30490000Y26315000D02*
X27950000Y26315000D01*
D19*
G04 #@! TO.N,VS*
X22870000Y31400000D02*
X22870000Y33865000D01*
D20*
X25410000Y35800000D02*
X24485000Y36725000D01*
X24485000Y36725000D02*
X23400000Y36725000D01*
X25410000Y33795000D02*
X25410000Y35800000D01*
D19*
X22800000Y33865000D02*
X25410000Y33865000D01*
D20*
G04 #@! TO.N,AREF*
X30900000Y15770000D02*
X28870000Y17800000D01*
X31865000Y15770000D02*
X30900000Y15770000D01*
X26200000Y17800000D02*
X28870000Y17800000D01*
G04 #@! TO.N,DC*
X17000000Y21000000D02*
X18200000Y21000000D01*
X18200000Y21000000D02*
X19300000Y19900000D01*
G04 #@! TO.N,RST*
X19600000Y23600000D02*
X19600000Y24700000D01*
X19600000Y24700000D02*
X15100000Y29200000D01*
G04 #@! TO.N,SCE*
X17000000Y21800000D02*
X17000000Y23600000D01*
G04 #@! TO.N,/TWI_SCL*
X7630000Y38875000D02*
X7630000Y41485000D01*
G04 #@! TO.N,/TWI_SDA*
X10170000Y41485000D02*
X10170000Y38875000D01*
G04 #@! TO.N,/UART_RxD*
X35570000Y41485000D02*
X35570000Y38875000D01*
G04 #@! TO.N,/UART_TxD*
X33030000Y41485000D02*
X33030000Y38875000D01*
G04 #@! TO.N,Net-(R4-Pad2)*
X17790000Y33795000D02*
X17790000Y35790000D01*
X18725000Y36725000D02*
X17790000Y35790000D01*
X19800000Y36725000D02*
X18725000Y36725000D01*
G04 #@! TO.N,Net-(R11-Pad1)*
X33030000Y9100000D02*
X29785000Y9100000D01*
G04 #@! TO.N,Net-(R12-Pad2)*
X33030000Y11640000D02*
X29855000Y11640000D01*
D19*
G04 #@! TO.N,VCC*
X25410000Y29710000D02*
X25200000Y29500000D01*
D20*
X26200000Y23600000D02*
X27775000Y23600000D01*
X27775000Y23600000D02*
X27950000Y23775000D01*
X35500000Y20530000D02*
X35500000Y19000000D01*
X17000000Y16200000D02*
X16500000Y16200000D01*
X16500000Y16200000D02*
X14800000Y14500000D01*
G04 #@! TO.N,/I+*
X20100000Y38625000D02*
X20100000Y41485000D01*
D21*
X19800000Y41485000D02*
X17790000Y41485000D01*
D20*
G04 #@! TO.N,/I-*
X23100000Y41485000D02*
X23100000Y38625000D01*
D21*
X23400000Y41485000D02*
X25410000Y41485000D01*
D20*
G04 #@! TO.N,/VOUT*
X16700000Y29805000D02*
X16700000Y29000000D01*
X21200000Y23600000D02*
X21200000Y24500000D01*
X16700000Y29000000D02*
X21200000Y24500000D01*
X15180000Y31325000D02*
X16700000Y29805000D01*
X15250000Y36475000D02*
X15250000Y33865000D01*
X15250000Y33865000D02*
X15250000Y31325000D01*
G04 #@! TO.N,/VREF*
X27950000Y33865000D02*
X27950000Y31325000D01*
X27950000Y28550000D02*
X27950000Y31325000D01*
X27950000Y33865000D02*
X27950000Y36475000D01*
X26400000Y27000000D02*
X27950000Y28550000D01*
X25500000Y27000000D02*
X26400000Y27000000D01*
X23600000Y23600000D02*
X23600000Y25100000D01*
X23600000Y25100000D02*
X25500000Y27000000D01*
G04 #@! TO.N,IOUT*
X22000000Y25100000D02*
X17790000Y29310000D01*
X17790000Y29310000D02*
X17790000Y31395000D01*
X22000000Y23600000D02*
X22000000Y25100000D01*
G04 #@! TO.N,IREF*
X23725000Y28000000D02*
X22800000Y27075000D01*
X22800000Y27075000D02*
X22800000Y23600000D01*
X22870000Y28855000D02*
X23725000Y28000000D01*
X23725000Y28000000D02*
X25800000Y28000000D01*
X23000000Y29000000D02*
X22870000Y29000000D01*
X23400000Y37675000D02*
X24925000Y37675000D01*
X24925000Y37675000D02*
X26700000Y35900000D01*
X26700000Y35900000D02*
X26700000Y28900000D01*
X26700000Y28900000D02*
X25800000Y28000000D01*
D19*
X20330000Y29000000D02*
X22870000Y29000000D01*
G04 #@! TO.N,Net-(C10-Pad2)*
X13980000Y25540000D02*
X13980000Y27007000D01*
G04 #@! TO.N,Net-(D6-Pad2)*
X6106000Y23070000D02*
X7700000Y23070000D01*
G04 #@! TO.N,Net-(D7-Pad2)*
X6106000Y28150000D02*
X7700000Y28150000D01*
G04 #@! TO.N,Net-(D8-Pad2)*
X35500000Y28150000D02*
X37100000Y28150000D01*
G04 #@! TO.N,Net-(D9-Pad2)*
X35500000Y23070000D02*
X37100000Y23070000D01*
G04 #@! TO.N,Net-(D11-Pad2)*
X35500000Y25610000D02*
X37100000Y25610000D01*
D20*
G04 #@! TO.N,Net-(R15-Pad1)*
X10400000Y20400000D02*
X10400000Y23070000D01*
X10400000Y20400000D02*
X12400000Y18400000D01*
X14100000Y18400000D02*
X14700000Y17800000D01*
X12400000Y18400000D02*
X14100000Y18400000D01*
X14700000Y17800000D02*
X17000000Y17800000D01*
G04 #@! TO.N,Net-(R16-Pad1)*
X10100000Y28150000D02*
X12400000Y25850000D01*
X12400000Y21000000D02*
X12400000Y25850000D01*
X12400000Y21000000D02*
X13400000Y20000000D01*
X15100000Y20000000D02*
X15700000Y19400000D01*
X13400000Y20000000D02*
X15100000Y20000000D01*
X15700000Y19400000D02*
X17000000Y19400000D01*
G04 #@! TO.N,Net-(R17-Pad1)*
X27200000Y21000000D02*
X26200000Y21000000D01*
X31900000Y25700000D02*
X27200000Y21000000D01*
X31900000Y26950000D02*
X33100000Y28150000D01*
X31900000Y25700000D02*
X31900000Y26950000D01*
G04 #@! TO.N,Net-(R18-Pad1)*
X26200000Y19400000D02*
X28200000Y19400000D01*
X31870000Y23070000D02*
X33100000Y23070000D01*
X28200000Y19400000D02*
X31870000Y23070000D01*
G04 #@! TO.N,Net-(R19-Pad1)*
X11400000Y24310000D02*
X10100000Y25610000D01*
X11400000Y20700000D02*
X11400000Y24310000D01*
X11400000Y20700000D02*
X12900000Y19200000D01*
X14600000Y19200000D02*
X15200000Y18600000D01*
X14600000Y19200000D02*
X12900000Y19200000D01*
X17000000Y18600000D02*
X15200000Y18600000D01*
G04 #@! TO.N,Net-(R20-Pad1)*
X27690000Y20200000D02*
X33100000Y25610000D01*
X26200000Y20200000D02*
X27690000Y20200000D01*
D19*
G04 #@! TO.N,Net-(D10-Pad2)*
X7700000Y25610000D02*
X6106000Y25610000D01*
D20*
G04 #@! TO.N,/PDI_DATA*
X26200000Y17000000D02*
X27900000Y17000000D01*
X29855000Y15045000D02*
X29855000Y14110000D01*
X27900000Y17000000D02*
X29855000Y15045000D01*
G04 #@! TO.N,/PDI_CLK*
X26900000Y16200000D02*
X27800000Y15300000D01*
X26200000Y16200000D02*
X26900000Y16200000D01*
X27800000Y15300000D02*
X27800000Y9100000D01*
G04 #@! TD*
D22*
G04 #@! TO.N,GND*
G36*
X13300000Y29400000D02*
X12300000Y29400000D01*
X12300000Y34217158D01*
X12482842Y34400000D01*
X13300000Y34400000D01*
X13300000Y29400000D01*
X13300000Y29400000D01*
G37*
X13300000Y29400000D02*
X12300000Y29400000D01*
X12300000Y34217158D01*
X12482842Y34400000D01*
X13300000Y34400000D01*
X13300000Y29400000D01*
G36*
X24800000Y16182842D02*
X24417158Y15800000D01*
X18782842Y15800000D01*
X18400000Y16182842D01*
X18400000Y18117158D01*
X18782842Y18500000D01*
X22300000Y18500000D01*
X22339018Y18503843D01*
X22376537Y18515224D01*
X22411114Y18533706D01*
X22441421Y18558579D01*
X24582842Y20700000D01*
X24800000Y20700000D01*
X24800000Y16182842D01*
X24800000Y16182842D01*
G37*
X24800000Y16182842D02*
X24417158Y15800000D01*
X18782842Y15800000D01*
X18400000Y16182842D01*
X18400000Y18117158D01*
X18782842Y18500000D01*
X22300000Y18500000D01*
X22339018Y18503843D01*
X22376537Y18515224D01*
X22411114Y18533706D01*
X22441421Y18558579D01*
X24582842Y20700000D01*
X24800000Y20700000D01*
X24800000Y16182842D01*
G36*
X40300000Y39517158D02*
X40300000Y5982842D01*
X40017158Y5700000D01*
X35282842Y5700000D01*
X35000000Y5982842D01*
X35000000Y7628039D01*
X37400000Y7628039D01*
X37400000Y7371961D01*
X37449958Y7120804D01*
X37547955Y6884219D01*
X37690224Y6671298D01*
X37871298Y6490224D01*
X38084219Y6347955D01*
X38320804Y6249958D01*
X38571961Y6200000D01*
X38828039Y6200000D01*
X39079196Y6249958D01*
X39315781Y6347955D01*
X39528702Y6490224D01*
X39709776Y6671298D01*
X39852045Y6884219D01*
X39950042Y7120804D01*
X40000000Y7371961D01*
X40000000Y7628039D01*
X39950042Y7879196D01*
X39852045Y8115781D01*
X39709776Y8328702D01*
X39528702Y8509776D01*
X39315781Y8652045D01*
X39079196Y8750042D01*
X38828039Y8800000D01*
X38571961Y8800000D01*
X38320804Y8750042D01*
X38084219Y8652045D01*
X37871298Y8509776D01*
X37690224Y8328702D01*
X37547955Y8115781D01*
X37449958Y7879196D01*
X37400000Y7628039D01*
X35000000Y7628039D01*
X35000000Y11617158D01*
X37041421Y13658579D01*
X37066294Y13688886D01*
X37084776Y13723463D01*
X37096157Y13760982D01*
X37100000Y13800000D01*
X37100000Y20817158D01*
X38541421Y22258579D01*
X38566294Y22288886D01*
X38584776Y22323463D01*
X38596157Y22360982D01*
X38600000Y22400000D01*
X38600000Y28800000D01*
X38596157Y28839018D01*
X38584776Y28876537D01*
X38566294Y28911114D01*
X38541421Y28941421D01*
X36841421Y30641421D01*
X36811114Y30666294D01*
X36776537Y30684776D01*
X36739018Y30696157D01*
X36700000Y30700000D01*
X32782842Y30700000D01*
X32500000Y30982842D01*
X32500000Y31900000D01*
X36500000Y31900000D01*
X36539018Y31903843D01*
X36576537Y31915224D01*
X36611114Y31933706D01*
X36641421Y31958579D01*
X37041421Y32358579D01*
X37066294Y32388886D01*
X37084776Y32423463D01*
X37096157Y32460982D01*
X37100000Y32500000D01*
X37100000Y39517158D01*
X37382842Y39800000D01*
X40017158Y39800000D01*
X40300000Y39517158D01*
X40300000Y39517158D01*
G37*
X40300000Y39517158D02*
X40300000Y5982842D01*
X40017158Y5700000D01*
X35282842Y5700000D01*
X35000000Y5982842D01*
X35000000Y7628039D01*
X37400000Y7628039D01*
X37400000Y7371961D01*
X37449958Y7120804D01*
X37547955Y6884219D01*
X37690224Y6671298D01*
X37871298Y6490224D01*
X38084219Y6347955D01*
X38320804Y6249958D01*
X38571961Y6200000D01*
X38828039Y6200000D01*
X39079196Y6249958D01*
X39315781Y6347955D01*
X39528702Y6490224D01*
X39709776Y6671298D01*
X39852045Y6884219D01*
X39950042Y7120804D01*
X40000000Y7371961D01*
X40000000Y7628039D01*
X39950042Y7879196D01*
X39852045Y8115781D01*
X39709776Y8328702D01*
X39528702Y8509776D01*
X39315781Y8652045D01*
X39079196Y8750042D01*
X38828039Y8800000D01*
X38571961Y8800000D01*
X38320804Y8750042D01*
X38084219Y8652045D01*
X37871298Y8509776D01*
X37690224Y8328702D01*
X37547955Y8115781D01*
X37449958Y7879196D01*
X37400000Y7628039D01*
X35000000Y7628039D01*
X35000000Y11617158D01*
X37041421Y13658579D01*
X37066294Y13688886D01*
X37084776Y13723463D01*
X37096157Y13760982D01*
X37100000Y13800000D01*
X37100000Y20817158D01*
X38541421Y22258579D01*
X38566294Y22288886D01*
X38584776Y22323463D01*
X38596157Y22360982D01*
X38600000Y22400000D01*
X38600000Y28800000D01*
X38596157Y28839018D01*
X38584776Y28876537D01*
X38566294Y28911114D01*
X38541421Y28941421D01*
X36841421Y30641421D01*
X36811114Y30666294D01*
X36776537Y30684776D01*
X36739018Y30696157D01*
X36700000Y30700000D01*
X32782842Y30700000D01*
X32500000Y30982842D01*
X32500000Y31900000D01*
X36500000Y31900000D01*
X36539018Y31903843D01*
X36576537Y31915224D01*
X36611114Y31933706D01*
X36641421Y31958579D01*
X37041421Y32358579D01*
X37066294Y32388886D01*
X37084776Y32423463D01*
X37096157Y32460982D01*
X37100000Y32500000D01*
X37100000Y39517158D01*
X37382842Y39800000D01*
X40017158Y39800000D01*
X40300000Y39517158D01*
G36*
X6100000Y39517158D02*
X6100000Y32500000D01*
X6103843Y32460982D01*
X6115224Y32423463D01*
X6133706Y32388886D01*
X6158579Y32358579D01*
X6558579Y31958579D01*
X6588886Y31933706D01*
X6623463Y31915224D01*
X6660982Y31903843D01*
X6700000Y31900000D01*
X10700000Y31900000D01*
X10700000Y30982842D01*
X10417158Y30700000D01*
X6500000Y30700000D01*
X6460982Y30696157D01*
X6423463Y30684776D01*
X6388886Y30666294D01*
X6358579Y30641421D01*
X4658579Y28941421D01*
X4633706Y28911114D01*
X4615224Y28876537D01*
X4603843Y28839018D01*
X4600000Y28800000D01*
X4600000Y22400000D01*
X4603843Y22360982D01*
X4615224Y22323463D01*
X4633706Y22288886D01*
X4658579Y22258579D01*
X5858579Y21058579D01*
X5888886Y21033706D01*
X5923463Y21015224D01*
X5960982Y21003843D01*
X6000000Y21000000D01*
X7917158Y21000000D01*
X8200000Y20717158D01*
X8200000Y20100000D01*
X6700000Y20100000D01*
X6660982Y20096157D01*
X6623463Y20084776D01*
X6588886Y20066294D01*
X6558579Y20041421D01*
X6158579Y19641421D01*
X6133706Y19611114D01*
X6115224Y19576537D01*
X6103843Y19539018D01*
X6100000Y19500000D01*
X6100000Y5882842D01*
X5917158Y5700000D01*
X3182842Y5700000D01*
X2900000Y5982842D01*
X2900000Y33228039D01*
X3200000Y33228039D01*
X3200000Y32971961D01*
X3249958Y32720804D01*
X3347955Y32484219D01*
X3490224Y32271298D01*
X3671298Y32090224D01*
X3884219Y31947955D01*
X4120804Y31849958D01*
X4371961Y31800000D01*
X4628039Y31800000D01*
X4879196Y31849958D01*
X5115781Y31947955D01*
X5328702Y32090224D01*
X5509776Y32271298D01*
X5652045Y32484219D01*
X5750042Y32720804D01*
X5800000Y32971961D01*
X5800000Y33228039D01*
X5750042Y33479196D01*
X5652045Y33715781D01*
X5509776Y33928702D01*
X5328702Y34109776D01*
X5115781Y34252045D01*
X4879196Y34350042D01*
X4628039Y34400000D01*
X4371961Y34400000D01*
X4120804Y34350042D01*
X3884219Y34252045D01*
X3671298Y34109776D01*
X3490224Y33928702D01*
X3347955Y33715781D01*
X3249958Y33479196D01*
X3200000Y33228039D01*
X2900000Y33228039D01*
X2900000Y39517158D01*
X3182842Y39800000D01*
X5817158Y39800000D01*
X6100000Y39517158D01*
X6100000Y39517158D01*
G37*
X6100000Y39517158D02*
X6100000Y32500000D01*
X6103843Y32460982D01*
X6115224Y32423463D01*
X6133706Y32388886D01*
X6158579Y32358579D01*
X6558579Y31958579D01*
X6588886Y31933706D01*
X6623463Y31915224D01*
X6660982Y31903843D01*
X6700000Y31900000D01*
X10700000Y31900000D01*
X10700000Y30982842D01*
X10417158Y30700000D01*
X6500000Y30700000D01*
X6460982Y30696157D01*
X6423463Y30684776D01*
X6388886Y30666294D01*
X6358579Y30641421D01*
X4658579Y28941421D01*
X4633706Y28911114D01*
X4615224Y28876537D01*
X4603843Y28839018D01*
X4600000Y28800000D01*
X4600000Y22400000D01*
X4603843Y22360982D01*
X4615224Y22323463D01*
X4633706Y22288886D01*
X4658579Y22258579D01*
X5858579Y21058579D01*
X5888886Y21033706D01*
X5923463Y21015224D01*
X5960982Y21003843D01*
X6000000Y21000000D01*
X7917158Y21000000D01*
X8200000Y20717158D01*
X8200000Y20100000D01*
X6700000Y20100000D01*
X6660982Y20096157D01*
X6623463Y20084776D01*
X6588886Y20066294D01*
X6558579Y20041421D01*
X6158579Y19641421D01*
X6133706Y19611114D01*
X6115224Y19576537D01*
X6103843Y19539018D01*
X6100000Y19500000D01*
X6100000Y5882842D01*
X5917158Y5700000D01*
X3182842Y5700000D01*
X2900000Y5982842D01*
X2900000Y33228039D01*
X3200000Y33228039D01*
X3200000Y32971961D01*
X3249958Y32720804D01*
X3347955Y32484219D01*
X3490224Y32271298D01*
X3671298Y32090224D01*
X3884219Y31947955D01*
X4120804Y31849958D01*
X4371961Y31800000D01*
X4628039Y31800000D01*
X4879196Y31849958D01*
X5115781Y31947955D01*
X5328702Y32090224D01*
X5509776Y32271298D01*
X5652045Y32484219D01*
X5750042Y32720804D01*
X5800000Y32971961D01*
X5800000Y33228039D01*
X5750042Y33479196D01*
X5652045Y33715781D01*
X5509776Y33928702D01*
X5328702Y34109776D01*
X5115781Y34252045D01*
X4879196Y34350042D01*
X4628039Y34400000D01*
X4371961Y34400000D01*
X4120804Y34350042D01*
X3884219Y34252045D01*
X3671298Y34109776D01*
X3490224Y33928702D01*
X3347955Y33715781D01*
X3249958Y33479196D01*
X3200000Y33228039D01*
X2900000Y33228039D01*
X2900000Y39517158D01*
X3182842Y39800000D01*
X5817158Y39800000D01*
X6100000Y39517158D01*
G04 #@! TO.N,AVCC*
G36*
X31000000Y25982842D02*
X30717158Y25700000D01*
X27182842Y25700000D01*
X26882842Y26000000D01*
X27682842Y26800000D01*
X31000000Y26800000D01*
X31000000Y25982842D01*
X31000000Y25982842D01*
G37*
X31000000Y25982842D02*
X30717158Y25700000D01*
X27182842Y25700000D01*
X26882842Y26000000D01*
X27682842Y26800000D01*
X31000000Y26800000D01*
X31000000Y25982842D01*
G04 #@! TO.N,VCC*
G36*
X28500000Y23482842D02*
X28017158Y23000000D01*
X26282842Y23000000D01*
X25682842Y23600000D01*
X26282842Y24200000D01*
X28500000Y24200000D01*
X28500000Y23482842D01*
X28500000Y23482842D01*
G37*
X28500000Y23482842D02*
X28017158Y23000000D01*
X26282842Y23000000D01*
X25682842Y23600000D01*
X26282842Y24200000D01*
X28500000Y24200000D01*
X28500000Y23482842D01*
G04 #@! TO.N,GND*
G36*
X31100000Y28382842D02*
X31017158Y28300000D01*
X29982842Y28300000D01*
X29900000Y28382842D01*
X29900000Y41000000D01*
X31100000Y41000000D01*
X31100000Y28382842D01*
X31100000Y28382842D01*
G37*
X31100000Y28382842D02*
X31017158Y28300000D01*
X29982842Y28300000D01*
X29900000Y28382842D01*
X29900000Y41000000D01*
X31100000Y41000000D01*
X31100000Y28382842D01*
G04 #@! TO.N,IREF*
G36*
X23300000Y29300000D02*
X23303843Y29260982D01*
X23315224Y29223463D01*
X23333706Y29188886D01*
X23358579Y29158579D01*
X24658579Y27858579D01*
X24688886Y27833706D01*
X24723463Y27815224D01*
X24760982Y27803843D01*
X24800000Y27800000D01*
X25017158Y27800000D01*
X22800000Y25582842D01*
X20382842Y28000000D01*
X21600000Y28000000D01*
X21600000Y27900000D01*
X21615224Y27823463D01*
X21658579Y27758579D01*
X21758579Y27658579D01*
X21823463Y27615224D01*
X21900000Y27600000D01*
X23100000Y27600000D01*
X23176537Y27615224D01*
X23241421Y27658579D01*
X23341421Y27758579D01*
X23384776Y27823463D01*
X23400000Y27900000D01*
X23400000Y28000000D01*
X23384776Y28076537D01*
X23341421Y28141421D01*
X23241421Y28241421D01*
X23176537Y28284776D01*
X23100000Y28300000D01*
X21900000Y28300000D01*
X21823463Y28284776D01*
X21758579Y28241421D01*
X21658579Y28141421D01*
X21615224Y28076537D01*
X21600000Y28000000D01*
X20382842Y28000000D01*
X19900000Y28482842D01*
X19900000Y29400000D01*
X23300000Y29400000D01*
X23300000Y29300000D01*
X23300000Y29300000D01*
G37*
X23300000Y29300000D02*
X23303843Y29260982D01*
X23315224Y29223463D01*
X23333706Y29188886D01*
X23358579Y29158579D01*
X24658579Y27858579D01*
X24688886Y27833706D01*
X24723463Y27815224D01*
X24760982Y27803843D01*
X24800000Y27800000D01*
X25017158Y27800000D01*
X22800000Y25582842D01*
X20382842Y28000000D01*
X21600000Y28000000D01*
X21600000Y27900000D01*
X21615224Y27823463D01*
X21658579Y27758579D01*
X21758579Y27658579D01*
X21823463Y27615224D01*
X21900000Y27600000D01*
X23100000Y27600000D01*
X23176537Y27615224D01*
X23241421Y27658579D01*
X23341421Y27758579D01*
X23384776Y27823463D01*
X23400000Y27900000D01*
X23400000Y28000000D01*
X23384776Y28076537D01*
X23341421Y28141421D01*
X23241421Y28241421D01*
X23176537Y28284776D01*
X23100000Y28300000D01*
X21900000Y28300000D01*
X21823463Y28284776D01*
X21758579Y28241421D01*
X21658579Y28141421D01*
X21615224Y28076537D01*
X21600000Y28000000D01*
X20382842Y28000000D01*
X19900000Y28482842D01*
X19900000Y29400000D01*
X23300000Y29400000D01*
X23300000Y29300000D01*
G04 #@! TO.N,VCC*
G36*
X25800000Y29282842D02*
X25417158Y28900000D01*
X24782842Y28900000D01*
X24500000Y29182842D01*
X24500000Y31517158D01*
X24782842Y31800000D01*
X25800000Y31800000D01*
X25800000Y29282842D01*
X25800000Y29282842D01*
G37*
X25800000Y29282842D02*
X25417158Y28900000D01*
X24782842Y28900000D01*
X24500000Y29182842D01*
X24500000Y31517158D01*
X24782842Y31800000D01*
X25800000Y31800000D01*
X25800000Y29282842D01*
G04 #@! TO.N,GND*
G36*
X20800000Y34417158D02*
X20800000Y30700000D01*
X19900000Y30700000D01*
X19900000Y34317158D01*
X20400000Y34817158D01*
X20800000Y34417158D01*
X20800000Y34417158D01*
G37*
X20800000Y34417158D02*
X20800000Y30700000D01*
X19900000Y30700000D01*
X19900000Y34317158D01*
X20400000Y34817158D01*
X20800000Y34417158D01*
G04 #@! TO.N,VS*
G36*
X25800000Y34117158D02*
X25800000Y33400000D01*
X24200000Y33400000D01*
X24160982Y33396157D01*
X24123463Y33384776D01*
X24088886Y33366294D01*
X24058579Y33341421D01*
X23358579Y32641421D01*
X23333706Y32611114D01*
X23315224Y32576537D01*
X23303843Y32539018D01*
X23300000Y32500000D01*
X23300000Y30700000D01*
X22400000Y30700000D01*
X22400000Y34300000D01*
X25617158Y34300000D01*
X25800000Y34117158D01*
X25800000Y34117158D01*
G37*
X25800000Y34117158D02*
X25800000Y33400000D01*
X24200000Y33400000D01*
X24160982Y33396157D01*
X24123463Y33384776D01*
X24088886Y33366294D01*
X24058579Y33341421D01*
X23358579Y32641421D01*
X23333706Y32611114D01*
X23315224Y32576537D01*
X23303843Y32539018D01*
X23300000Y32500000D01*
X23300000Y30700000D01*
X22400000Y30700000D01*
X22400000Y34300000D01*
X25617158Y34300000D01*
X25800000Y34117158D01*
G04 #@! TO.N,Net-(R11-Pad1)*
G36*
X30400000Y9282158D02*
X30400000Y6347842D01*
X30117158Y6065000D01*
X29300000Y6065000D01*
X29300000Y9565000D01*
X30117158Y9565000D01*
X30400000Y9282158D01*
X30400000Y9282158D01*
G37*
X30400000Y9282158D02*
X30400000Y6347842D01*
X30117158Y6065000D01*
X29300000Y6065000D01*
X29300000Y9565000D01*
X30117158Y9565000D01*
X30400000Y9282158D01*
G04 #@! TO.N,VCC*
G36*
X36100000Y20717158D02*
X36100000Y17682842D01*
X36017158Y17600000D01*
X34982842Y17600000D01*
X34900000Y17682842D01*
X34900000Y20917158D01*
X34982842Y21000000D01*
X35817158Y21000000D01*
X36100000Y20717158D01*
X36100000Y20717158D01*
G37*
X36100000Y20717158D02*
X36100000Y17682842D01*
X36017158Y17600000D01*
X34982842Y17600000D01*
X34900000Y17682842D01*
X34900000Y20917158D01*
X34982842Y21000000D01*
X35817158Y21000000D01*
X36100000Y20717158D01*
G04 #@! TO.N,GND*
G36*
X33700000Y20917158D02*
X33700000Y17350000D01*
X33703843Y17310982D01*
X33715224Y17273463D01*
X33733706Y17238886D01*
X33758579Y17208579D01*
X34067158Y16900000D01*
X32382842Y16900000D01*
X32441421Y16958579D01*
X32466294Y16988886D01*
X32484776Y17023463D01*
X32496157Y17060982D01*
X32500000Y17100000D01*
X32500000Y17300000D01*
X32496157Y17339018D01*
X32484776Y17376537D01*
X32466294Y17411114D01*
X32441421Y17441421D01*
X32300000Y17582842D01*
X32300000Y17817158D01*
X32441421Y17958579D01*
X32466294Y17988886D01*
X32484776Y18023463D01*
X32496157Y18060982D01*
X32500000Y18100000D01*
X32500000Y20717158D01*
X32782842Y21000000D01*
X33617158Y21000000D01*
X33700000Y20917158D01*
X33700000Y20917158D01*
G37*
X33700000Y20917158D02*
X33700000Y17350000D01*
X33703843Y17310982D01*
X33715224Y17273463D01*
X33733706Y17238886D01*
X33758579Y17208579D01*
X34067158Y16900000D01*
X32382842Y16900000D01*
X32441421Y16958579D01*
X32466294Y16988886D01*
X32484776Y17023463D01*
X32496157Y17060982D01*
X32500000Y17100000D01*
X32500000Y17300000D01*
X32496157Y17339018D01*
X32484776Y17376537D01*
X32466294Y17411114D01*
X32441421Y17441421D01*
X32300000Y17582842D01*
X32300000Y17817158D01*
X32441421Y17958579D01*
X32466294Y17988886D01*
X32484776Y18023463D01*
X32496157Y18060982D01*
X32500000Y18100000D01*
X32500000Y20717158D01*
X32782842Y21000000D01*
X33617158Y21000000D01*
X33700000Y20917158D01*
G04 #@! TO.N,VCC*
G36*
X36100000Y15767158D02*
X36100000Y14382842D01*
X35817158Y14100000D01*
X35182842Y14100000D01*
X34900000Y14382842D01*
X34900000Y15767158D01*
X34932842Y15800000D01*
X36067158Y15800000D01*
X36100000Y15767158D01*
X36100000Y15767158D01*
G37*
X36100000Y15767158D02*
X36100000Y14382842D01*
X35817158Y14100000D01*
X35182842Y14100000D01*
X34900000Y14382842D01*
X34900000Y15767158D01*
X34932842Y15800000D01*
X36067158Y15800000D01*
X36100000Y15767158D01*
G04 #@! TO.N,GND*
G36*
X10600000Y14417158D02*
X10600000Y13700000D01*
X10603843Y13660982D01*
X10615224Y13623463D01*
X10633706Y13588886D01*
X10658579Y13558579D01*
X11958579Y12258579D01*
X11988886Y12233706D01*
X12023463Y12215224D01*
X12060982Y12203843D01*
X12100000Y12200000D01*
X13200000Y12200000D01*
X13200000Y8500000D01*
X12300000Y8500000D01*
X12300000Y9100000D01*
X12296157Y9139018D01*
X12284776Y9176537D01*
X12266294Y9211114D01*
X12241421Y9241421D01*
X10341421Y11141421D01*
X10311114Y11166294D01*
X10276537Y11184776D01*
X10239018Y11196157D01*
X10200000Y11200000D01*
X9600000Y11200000D01*
X9600000Y14700000D01*
X10317158Y14700000D01*
X10600000Y14417158D01*
X10600000Y14417158D01*
G37*
X10600000Y14417158D02*
X10600000Y13700000D01*
X10603843Y13660982D01*
X10615224Y13623463D01*
X10633706Y13588886D01*
X10658579Y13558579D01*
X11958579Y12258579D01*
X11988886Y12233706D01*
X12023463Y12215224D01*
X12060982Y12203843D01*
X12100000Y12200000D01*
X13200000Y12200000D01*
X13200000Y8500000D01*
X12300000Y8500000D01*
X12300000Y9100000D01*
X12296157Y9139018D01*
X12284776Y9176537D01*
X12266294Y9211114D01*
X12241421Y9241421D01*
X10341421Y11141421D01*
X10311114Y11166294D01*
X10276537Y11184776D01*
X10239018Y11196157D01*
X10200000Y11200000D01*
X9600000Y11200000D01*
X9600000Y14700000D01*
X10317158Y14700000D01*
X10600000Y14417158D01*
G04 #@! TO.N,Net-(C1-Pad1)*
G36*
X10700000Y16200000D02*
X9000000Y16200000D01*
X8960982Y16196157D01*
X8923463Y16184776D01*
X8888886Y16166294D01*
X8858579Y16141421D01*
X8258579Y15541421D01*
X8233706Y15511114D01*
X8215224Y15476537D01*
X8203843Y15439018D01*
X8200000Y15400000D01*
X8200000Y8700000D01*
X7682842Y8700000D01*
X7100000Y9282842D01*
X7100000Y17300000D01*
X10700000Y17300000D01*
X10700000Y16200000D01*
X10700000Y16200000D01*
G37*
X10700000Y16200000D02*
X9000000Y16200000D01*
X8960982Y16196157D01*
X8923463Y16184776D01*
X8888886Y16166294D01*
X8858579Y16141421D01*
X8258579Y15541421D01*
X8233706Y15511114D01*
X8215224Y15476537D01*
X8203843Y15439018D01*
X8200000Y15400000D01*
X8200000Y8700000D01*
X7682842Y8700000D01*
X7100000Y9282842D01*
X7100000Y17300000D01*
X10700000Y17300000D01*
X10700000Y16200000D01*
G04 #@! TO.N,VIN*
G36*
X14500000Y16417158D02*
X14500000Y15982842D01*
X14217158Y15700000D01*
X12582842Y15700000D01*
X12200000Y16082842D01*
X12200000Y17300000D01*
X13617158Y17300000D01*
X14500000Y16417158D01*
X14500000Y16417158D01*
G37*
X14500000Y16417158D02*
X14500000Y15982842D01*
X14217158Y15700000D01*
X12582842Y15700000D01*
X12200000Y16082842D01*
X12200000Y17300000D01*
X13617158Y17300000D01*
X14500000Y16417158D01*
G04 #@! TO.N,VCC*
G36*
X15400000Y11800000D02*
X15403843Y11760982D01*
X15415224Y11723463D01*
X15433706Y11688886D01*
X15458579Y11658579D01*
X16158579Y10958579D01*
X16186694Y10935192D01*
X19300000Y8794794D01*
X19300000Y7182842D01*
X19017158Y6900000D01*
X18182842Y6900000D01*
X16541421Y8541421D01*
X16511114Y8566294D01*
X16476537Y8584776D01*
X16439018Y8596157D01*
X16400000Y8600000D01*
X14700000Y8600000D01*
X14700000Y13000000D01*
X14696157Y13039018D01*
X14684776Y13076537D01*
X14666294Y13111114D01*
X14641421Y13141421D01*
X14241421Y13541421D01*
X14211114Y13566294D01*
X14176537Y13584776D01*
X14139018Y13596157D01*
X14100000Y13600000D01*
X12200000Y13600000D01*
X12200000Y14417158D01*
X12482842Y14700000D01*
X14800000Y14700000D01*
X14839018Y14703843D01*
X14876537Y14715224D01*
X14911114Y14733706D01*
X14941421Y14758579D01*
X15182842Y15000000D01*
X15400000Y15000000D01*
X15400000Y11800000D01*
X15400000Y11800000D01*
G37*
X15400000Y11800000D02*
X15403843Y11760982D01*
X15415224Y11723463D01*
X15433706Y11688886D01*
X15458579Y11658579D01*
X16158579Y10958579D01*
X16186694Y10935192D01*
X19300000Y8794794D01*
X19300000Y7182842D01*
X19017158Y6900000D01*
X18182842Y6900000D01*
X16541421Y8541421D01*
X16511114Y8566294D01*
X16476537Y8584776D01*
X16439018Y8596157D01*
X16400000Y8600000D01*
X14700000Y8600000D01*
X14700000Y13000000D01*
X14696157Y13039018D01*
X14684776Y13076537D01*
X14666294Y13111114D01*
X14641421Y13141421D01*
X14241421Y13541421D01*
X14211114Y13566294D01*
X14176537Y13584776D01*
X14139018Y13596157D01*
X14100000Y13600000D01*
X12200000Y13600000D01*
X12200000Y14417158D01*
X12482842Y14700000D01*
X14800000Y14700000D01*
X14839018Y14703843D01*
X14876537Y14715224D01*
X14911114Y14733706D01*
X14941421Y14758579D01*
X15182842Y15000000D01*
X15400000Y15000000D01*
X15400000Y11800000D01*
G04 #@! TO.N,GND*
G36*
X10200000Y6617158D02*
X10200000Y5982842D01*
X9917158Y5700000D01*
X7882842Y5700000D01*
X7600000Y5982842D01*
X7600000Y6617158D01*
X7882842Y6900000D01*
X9917158Y6900000D01*
X10200000Y6617158D01*
X10200000Y6617158D01*
G37*
X10200000Y6617158D02*
X10200000Y5982842D01*
X9917158Y5700000D01*
X7882842Y5700000D01*
X7600000Y5982842D01*
X7600000Y6617158D01*
X7882842Y6900000D01*
X9917158Y6900000D01*
X10200000Y6617158D01*
G04 #@! TO.N,Net-(C3-Pad1)*
G36*
X10000000Y9917158D02*
X10000000Y9500000D01*
X10003843Y9460982D01*
X10015224Y9423463D01*
X10033706Y9388886D01*
X10058579Y9358579D01*
X12258579Y7158579D01*
X12288886Y7133706D01*
X12323463Y7115224D01*
X12360982Y7103843D01*
X12400000Y7100000D01*
X15800000Y7100000D01*
X15800000Y6382842D01*
X15617158Y6200000D01*
X12382842Y6200000D01*
X9700000Y8882842D01*
X9700000Y9917158D01*
X9782842Y10000000D01*
X9917158Y10000000D01*
X10000000Y9917158D01*
X10000000Y9917158D01*
G37*
X10000000Y9917158D02*
X10000000Y9500000D01*
X10003843Y9460982D01*
X10015224Y9423463D01*
X10033706Y9388886D01*
X10058579Y9358579D01*
X12258579Y7158579D01*
X12288886Y7133706D01*
X12323463Y7115224D01*
X12360982Y7103843D01*
X12400000Y7100000D01*
X15800000Y7100000D01*
X15800000Y6382842D01*
X15617158Y6200000D01*
X12382842Y6200000D01*
X9700000Y8882842D01*
X9700000Y9917158D01*
X9782842Y10000000D01*
X9917158Y10000000D01*
X10000000Y9917158D01*
G04 #@! TO.N,/PDI_CLK*
G36*
X27900000Y8565000D02*
X27082842Y8565000D01*
X26800000Y8847842D01*
X26800000Y9382158D01*
X27082842Y9665000D01*
X27900000Y9665000D01*
X27900000Y8565000D01*
X27900000Y8565000D01*
G37*
X27900000Y8565000D02*
X27082842Y8565000D01*
X26800000Y8847842D01*
X26800000Y9382158D01*
X27082842Y9665000D01*
X27900000Y9665000D01*
X27900000Y8565000D01*
G04 #@! TO.N,VCC*
G36*
X25458579Y7058579D02*
X25488886Y7033706D01*
X25523463Y7015224D01*
X25560982Y7003843D01*
X25600000Y7000000D01*
X27900000Y7000000D01*
X27900000Y6100000D01*
X24782842Y6100000D01*
X24200000Y6682842D01*
X24200000Y7417158D01*
X24382842Y7600000D01*
X24917158Y7600000D01*
X25458579Y7058579D01*
X25458579Y7058579D01*
G37*
X25458579Y7058579D02*
X25488886Y7033706D01*
X25523463Y7015224D01*
X25560982Y7003843D01*
X25600000Y7000000D01*
X27900000Y7000000D01*
X27900000Y6100000D01*
X24782842Y6100000D01*
X24200000Y6682842D01*
X24200000Y7417158D01*
X24382842Y7600000D01*
X24917158Y7600000D01*
X25458579Y7058579D01*
G04 #@! TD*
M02*
