M48
METRIC,TZ
T1C0.600
T2C1.000
T3C1.300
T4C1.600
%
G90
G05
T1
X4.5Y20.
X4.5Y14.2
X5.1Y37.7
X5.1Y35.9
X6.1Y28.15
X6.1Y25.61
X6.1Y23.07
X7.63Y35.135
X7.8Y6.3
X10.Y6.3
X10.17Y35.135
X11.7Y10.7
X12.71Y36.786
X12.8Y29.2
X13.98Y27.007
X13.98Y21.673
X14.2Y16.1
X15.1Y29.2
X17.Y23.6
X17.Y14.4
X17.Y12.4
X18.7Y7.2
X19.3Y19.9
X19.3Y16.7
X21.6Y39.5
X21.6Y19.9
X23.2Y21.5
X23.9Y16.7
X24.5Y7.2
X25.1Y29.5
X26.2Y23.6
X26.2Y14.4
X31.Y20.
X33.03Y35.135
X33.7Y16.72
X35.5Y19.
X35.5Y14.4
X35.57Y35.135
X37.1Y28.15
X37.1Y25.61
X37.1Y23.07
X38.1Y37.7
X38.1Y35.9
X38.7Y20.
X38.7Y14.2
T2
X25.41Y41.485
X27.95Y41.485
X30.49Y41.485
X33.03Y41.485
X35.57Y41.485
X7.63Y41.485
X10.17Y41.485
X12.71Y41.485
X15.25Y41.485
X17.79Y41.485
X33.03Y11.64
X33.03Y9.1
X33.03Y6.56
T3
X13.22Y2.2
X19.82Y2.2
X3.06Y2.2
X9.66Y2.2
X23.38Y2.2
X29.98Y2.2
X33.54Y2.2
X40.14Y2.2
T4
X4.5Y33.1
X38.7Y7.5
T4
X1.6Y38.4G85X1.6Y35.4
G05
X1.6Y18.6G85X1.6Y15.6
G05
X41.6Y38.4G85X41.6Y35.4
G05
X41.6Y18.6G85X41.6Y15.6
G05
T0
M30
