G04 #@! TF.GenerationSoftware,KiCad,Pcbnew,5.0.2-5.0.2*
G04 #@! TF.CreationDate,2019-05-06T09:06:14+02:00*
G04 #@! TF.ProjectId,MiniMeter-B1,4d696e69-4d65-4746-9572-2d42312e6b69,2.1*
G04 #@! TF.SameCoordinates,PX7cbd980PY75aef40*
G04 #@! TF.FileFunction,Legend,Top*
G04 #@! TF.FilePolarity,Positive*
%FSLAX46Y46*%
G04 Gerber Fmt 4.6, Leading zero omitted, Abs format (unit mm)*
G04 Created by KiCad (PCBNEW 5.0.2-5.0.2) date Mon 06 May 2019 09:06:14 CEST*
%MOMM*%
%LPD*%
G01*
G04 APERTURE LIST*
%ADD10C,0.150000*%
%ADD11C,0.120000*%
G04 APERTURE END LIST*
D10*
G04 #@! TO.C,LCD1*
X2700000Y38800000D02*
X40500000Y38800000D01*
X41500000Y4900000D02*
X1700000Y4900000D01*
X1700000Y34300000D02*
X1700000Y28000000D01*
X1700000Y11100000D02*
X1700000Y4900000D01*
X41500000Y34300000D02*
X41500000Y28000000D01*
X41500000Y11100000D02*
X41500000Y4900000D01*
G04 #@! TO.C,SW1*
X33840000Y3900000D02*
X39840000Y3900000D01*
X39840000Y800000D02*
X39840000Y500000D01*
X39840000Y500000D02*
X33840000Y500000D01*
X39840000Y3900000D02*
X39840000Y3600000D01*
X33840000Y500000D02*
X33840000Y800000D01*
X33840000Y3900000D02*
X33840000Y3600000D01*
G04 #@! TO.C,SW2*
X23680000Y3900000D02*
X29680000Y3900000D01*
X29680000Y800000D02*
X29680000Y500000D01*
X29680000Y500000D02*
X23680000Y500000D01*
X29680000Y3900000D02*
X29680000Y3600000D01*
X23680000Y500000D02*
X23680000Y800000D01*
X23680000Y3900000D02*
X23680000Y3600000D01*
G04 #@! TO.C,SW3*
X19520000Y500000D02*
X13520000Y500000D01*
X13520000Y3600000D02*
X13520000Y3900000D01*
X13520000Y3900000D02*
X19520000Y3900000D01*
X13520000Y500000D02*
X13520000Y800000D01*
X19520000Y3900000D02*
X19520000Y3600000D01*
X19520000Y500000D02*
X19520000Y800000D01*
G04 #@! TO.C,SW4*
X9360000Y500000D02*
X3360000Y500000D01*
X3360000Y3600000D02*
X3360000Y3900000D01*
X3360000Y3900000D02*
X9360000Y3900000D01*
X3360000Y500000D02*
X3360000Y800000D01*
X9360000Y3900000D02*
X9360000Y3600000D01*
X9360000Y500000D02*
X9360000Y800000D01*
D11*
G04 #@! TO.C,D8*
X41300000Y26500000D02*
X39700000Y26500000D01*
X41300000Y27200000D02*
X41300000Y25000000D01*
X39700000Y25000000D02*
X39700000Y27200000D01*
G04 #@! TO.C,D9*
X39700000Y11900000D02*
X39700000Y14100000D01*
X41300000Y14100000D02*
X41300000Y11900000D01*
X41300000Y13400000D02*
X39700000Y13400000D01*
G04 #@! TO.C,D11*
X41300000Y22300000D02*
X41300000Y20100000D01*
X39700000Y20100000D02*
X39700000Y22300000D01*
X39700000Y20800000D02*
X41300000Y20800000D01*
G04 #@! TO.C,D10*
X1900000Y20800000D02*
X3500000Y20800000D01*
X1900000Y20100000D02*
X1900000Y22300000D01*
X3500000Y22300000D02*
X3500000Y20100000D01*
G04 #@! TO.C,D7*
X3500000Y26500000D02*
X1900000Y26500000D01*
X3500000Y27200000D02*
X3500000Y25000000D01*
X1900000Y25000000D02*
X1900000Y27200000D01*
G04 #@! TO.C,D6*
X1900000Y11900000D02*
X1900000Y14100000D01*
X3500000Y14100000D02*
X3500000Y11900000D01*
X3500000Y13400000D02*
X1900000Y13400000D01*
G04 #@! TO.C,LCD1*
D10*
X20433333Y33247620D02*
X19957142Y33247620D01*
X19957142Y34247620D01*
X21338095Y33342858D02*
X21290476Y33295239D01*
X21147619Y33247620D01*
X21052380Y33247620D01*
X20909523Y33295239D01*
X20814285Y33390477D01*
X20766666Y33485715D01*
X20719047Y33676191D01*
X20719047Y33819048D01*
X20766666Y34009524D01*
X20814285Y34104762D01*
X20909523Y34200000D01*
X21052380Y34247620D01*
X21147619Y34247620D01*
X21290476Y34200000D01*
X21338095Y34152381D01*
X21766666Y33247620D02*
X21766666Y34247620D01*
X22004761Y34247620D01*
X22147619Y34200000D01*
X22242857Y34104762D01*
X22290476Y34009524D01*
X22338095Y33819048D01*
X22338095Y33676191D01*
X22290476Y33485715D01*
X22242857Y33390477D01*
X22147619Y33295239D01*
X22004761Y33247620D01*
X21766666Y33247620D01*
X23290476Y33247620D02*
X22719047Y33247620D01*
X23004761Y33247620D02*
X23004761Y34247620D01*
X22909523Y34104762D01*
X22814285Y34009524D01*
X22719047Y33961905D01*
G04 #@! TO.C,D8*
X39152380Y25361905D02*
X38152380Y25361905D01*
X38152380Y25600000D01*
X38200000Y25742858D01*
X38295238Y25838096D01*
X38390476Y25885715D01*
X38580952Y25933334D01*
X38723809Y25933334D01*
X38914285Y25885715D01*
X39009523Y25838096D01*
X39104761Y25742858D01*
X39152380Y25600000D01*
X39152380Y25361905D01*
X38580952Y26504762D02*
X38533333Y26409524D01*
X38485714Y26361905D01*
X38390476Y26314286D01*
X38342857Y26314286D01*
X38247619Y26361905D01*
X38200000Y26409524D01*
X38152380Y26504762D01*
X38152380Y26695239D01*
X38200000Y26790477D01*
X38247619Y26838096D01*
X38342857Y26885715D01*
X38390476Y26885715D01*
X38485714Y26838096D01*
X38533333Y26790477D01*
X38580952Y26695239D01*
X38580952Y26504762D01*
X38628571Y26409524D01*
X38676190Y26361905D01*
X38771428Y26314286D01*
X38961904Y26314286D01*
X39057142Y26361905D01*
X39104761Y26409524D01*
X39152380Y26504762D01*
X39152380Y26695239D01*
X39104761Y26790477D01*
X39057142Y26838096D01*
X38961904Y26885715D01*
X38771428Y26885715D01*
X38676190Y26838096D01*
X38628571Y26790477D01*
X38580952Y26695239D01*
G04 #@! TO.C,D9*
X39152380Y11761905D02*
X38152380Y11761905D01*
X38152380Y12000000D01*
X38200000Y12142858D01*
X38295238Y12238096D01*
X38390476Y12285715D01*
X38580952Y12333334D01*
X38723809Y12333334D01*
X38914285Y12285715D01*
X39009523Y12238096D01*
X39104761Y12142858D01*
X39152380Y12000000D01*
X39152380Y11761905D01*
X39152380Y12809524D02*
X39152380Y13000000D01*
X39104761Y13095239D01*
X39057142Y13142858D01*
X38914285Y13238096D01*
X38723809Y13285715D01*
X38342857Y13285715D01*
X38247619Y13238096D01*
X38200000Y13190477D01*
X38152380Y13095239D01*
X38152380Y12904762D01*
X38200000Y12809524D01*
X38247619Y12761905D01*
X38342857Y12714286D01*
X38580952Y12714286D01*
X38676190Y12761905D01*
X38723809Y12809524D01*
X38771428Y12904762D01*
X38771428Y13095239D01*
X38723809Y13190477D01*
X38676190Y13238096D01*
X38580952Y13285715D01*
G04 #@! TO.C,D11*
X39152380Y20839715D02*
X38152380Y20839715D01*
X38152380Y21077810D01*
X38200000Y21220667D01*
X38295238Y21315905D01*
X38390476Y21363524D01*
X38580952Y21411143D01*
X38723809Y21411143D01*
X38914285Y21363524D01*
X39009523Y21315905D01*
X39104761Y21220667D01*
X39152380Y21077810D01*
X39152380Y20839715D01*
X39152380Y22363524D02*
X39152380Y21792096D01*
X39152380Y22077810D02*
X38152380Y22077810D01*
X38295238Y21982572D01*
X38390476Y21887334D01*
X38438095Y21792096D01*
X39152380Y23315905D02*
X39152380Y22744477D01*
X39152380Y23030191D02*
X38152380Y23030191D01*
X38295238Y22934953D01*
X38390476Y22839715D01*
X38438095Y22744477D01*
G04 #@! TO.C,D10*
X5161380Y20839715D02*
X4161380Y20839715D01*
X4161380Y21077810D01*
X4209000Y21220667D01*
X4304238Y21315905D01*
X4399476Y21363524D01*
X4589952Y21411143D01*
X4732809Y21411143D01*
X4923285Y21363524D01*
X5018523Y21315905D01*
X5113761Y21220667D01*
X5161380Y21077810D01*
X5161380Y20839715D01*
X5161380Y22363524D02*
X5161380Y21792096D01*
X5161380Y22077810D02*
X4161380Y22077810D01*
X4304238Y21982572D01*
X4399476Y21887334D01*
X4447095Y21792096D01*
X4161380Y22982572D02*
X4161380Y23077810D01*
X4209000Y23173048D01*
X4256619Y23220667D01*
X4351857Y23268286D01*
X4542333Y23315905D01*
X4780428Y23315905D01*
X4970904Y23268286D01*
X5066142Y23220667D01*
X5113761Y23173048D01*
X5161380Y23077810D01*
X5161380Y22982572D01*
X5113761Y22887334D01*
X5066142Y22839715D01*
X4970904Y22792096D01*
X4780428Y22744477D01*
X4542333Y22744477D01*
X4351857Y22792096D01*
X4256619Y22839715D01*
X4209000Y22887334D01*
X4161380Y22982572D01*
G04 #@! TO.C,D7*
X5152380Y25361905D02*
X4152380Y25361905D01*
X4152380Y25600000D01*
X4200000Y25742858D01*
X4295238Y25838096D01*
X4390476Y25885715D01*
X4580952Y25933334D01*
X4723809Y25933334D01*
X4914285Y25885715D01*
X5009523Y25838096D01*
X5104761Y25742858D01*
X5152380Y25600000D01*
X5152380Y25361905D01*
X4152380Y26266667D02*
X4152380Y26933334D01*
X5152380Y26504762D01*
G04 #@! TO.C,D6*
X5034380Y11790905D02*
X4034380Y11790905D01*
X4034380Y12029000D01*
X4082000Y12171858D01*
X4177238Y12267096D01*
X4272476Y12314715D01*
X4462952Y12362334D01*
X4605809Y12362334D01*
X4796285Y12314715D01*
X4891523Y12267096D01*
X4986761Y12171858D01*
X5034380Y12029000D01*
X5034380Y11790905D01*
X4034380Y13219477D02*
X4034380Y13029000D01*
X4082000Y12933762D01*
X4129619Y12886143D01*
X4272476Y12790905D01*
X4462952Y12743286D01*
X4843904Y12743286D01*
X4939142Y12790905D01*
X4986761Y12838524D01*
X5034380Y12933762D01*
X5034380Y13124239D01*
X4986761Y13219477D01*
X4939142Y13267096D01*
X4843904Y13314715D01*
X4605809Y13314715D01*
X4510571Y13267096D01*
X4462952Y13219477D01*
X4415333Y13124239D01*
X4415333Y12933762D01*
X4462952Y12838524D01*
X4510571Y12790905D01*
X4605809Y12743286D01*
G04 #@! TD*
M02*
