G04 #@! TF.GenerationSoftware,KiCad,Pcbnew,5.0.2-5.0.2*
G04 #@! TF.CreationDate,2019-05-06T09:06:14+02:00*
G04 #@! TF.ProjectId,MiniMeter-B1,4d696e69-4d65-4746-9572-2d42312e6b69,2.1*
G04 #@! TF.SameCoordinates,PX7cbd980PY75aef40*
G04 #@! TF.FileFunction,Copper,L1,Top*
G04 #@! TF.FilePolarity,Positive*
%FSLAX46Y46*%
G04 Gerber Fmt 4.6, Leading zero omitted, Abs format (unit mm)*
G04 Created by KiCad (PCBNEW 5.0.2-5.0.2) date Mon 06 May 2019 09:06:14 CEST*
%MOMM*%
%LPD*%
G01*
G04 APERTURE LIST*
G04 #@! TA.AperFunction,ComponentPad*
%ADD10C,2.000000*%
G04 #@! TD*
G04 #@! TA.AperFunction,SMDPad,CuDef*
%ADD11O,0.600000X2.800000*%
G04 #@! TD*
G04 #@! TA.AperFunction,ComponentPad*
%ADD12O,2.500000X2.500000*%
G04 #@! TD*
G04 #@! TA.AperFunction,SMDPad,CuDef*
%ADD13C,1.200000*%
G04 #@! TD*
G04 #@! TA.AperFunction,Conductor*
%ADD14C,0.150000*%
G04 #@! TD*
G04 #@! TA.AperFunction,ViaPad*
%ADD15C,1.600000*%
G04 #@! TD*
G04 #@! TA.AperFunction,Conductor*
%ADD16C,0.600000*%
G04 #@! TD*
G04 #@! TA.AperFunction,Conductor*
%ADD17C,1.000000*%
G04 #@! TD*
G04 #@! TA.AperFunction,Conductor*
%ADD18C,2.000000*%
G04 #@! TD*
G04 #@! TA.AperFunction,Conductor*
%ADD19C,0.400000*%
G04 #@! TD*
G04 APERTURE END LIST*
D10*
G04 #@! TO.P,Z3,3*
G04 #@! TO.N,GND*
X33030000Y6560000D03*
G04 #@! TO.P,Z3,2*
G04 #@! TO.N,Net-(R11-Pad1)*
X33030000Y9100000D03*
G04 #@! TO.P,Z3,1*
G04 #@! TO.N,Net-(R12-Pad2)*
X33030000Y11640000D03*
G04 #@! TD*
D11*
G04 #@! TO.P,LCD1,3*
G04 #@! TO.N,GND*
X19600000Y36800000D03*
G04 #@! TO.P,LCD1,4*
G04 #@! TO.N,VCC*
X20600000Y36800000D03*
G04 #@! TO.P,LCD1,5*
G04 #@! TO.N,SCE*
X21600000Y36800000D03*
G04 #@! TO.P,LCD1,2*
G04 #@! TO.N,Net-(C10-Pad2)*
X18600000Y36800000D03*
G04 #@! TO.P,LCD1,1*
G04 #@! TO.N,RST*
X17600000Y36800000D03*
G04 #@! TO.P,LCD1,6*
G04 #@! TO.N,DC*
X22600000Y36800000D03*
G04 #@! TO.P,LCD1,7*
G04 #@! TO.N,SDIN*
X23600000Y36800000D03*
G04 #@! TO.P,LCD1,8*
G04 #@! TO.N,SCLK*
X24600000Y36800000D03*
G04 #@! TO.P,LCD1,9*
G04 #@! TO.N,VCC*
X25600000Y36800000D03*
G04 #@! TD*
D12*
G04 #@! TO.P,SW1,2*
G04 #@! TO.N,GND*
X40140000Y2200000D03*
G04 #@! TO.P,SW1,1*
G04 #@! TO.N,Net-(SW1-Pad1)*
X33540000Y2200000D03*
G04 #@! TD*
G04 #@! TO.P,SW2,2*
G04 #@! TO.N,GND*
X29980000Y2200000D03*
G04 #@! TO.P,SW2,1*
G04 #@! TO.N,Net-(SW2-Pad1)*
X23380000Y2200000D03*
G04 #@! TD*
G04 #@! TO.P,SW3,2*
G04 #@! TO.N,GND*
X13220000Y2200000D03*
G04 #@! TO.P,SW3,1*
G04 #@! TO.N,Net-(SW3-Pad1)*
X19820000Y2200000D03*
G04 #@! TD*
G04 #@! TO.P,SW4,2*
G04 #@! TO.N,GND*
X3060000Y2200000D03*
G04 #@! TO.P,SW4,1*
G04 #@! TO.N,Net-(SW4-Pad1)*
X9660000Y2200000D03*
G04 #@! TD*
D10*
G04 #@! TO.P,Z2,5*
G04 #@! TO.N,/UART_RxD*
X35570000Y41485000D03*
G04 #@! TO.P,Z2,4*
G04 #@! TO.N,/UART_TxD*
X33030000Y41485000D03*
G04 #@! TO.P,Z2,3*
G04 #@! TO.N,GND*
X30490000Y41485000D03*
G04 #@! TO.P,Z2,2*
G04 #@! TO.N,V-*
X27950000Y41485000D03*
G04 #@! TO.P,Z2,1*
G04 #@! TO.N,/I-*
X25410000Y41485000D03*
G04 #@! TD*
G04 #@! TO.P,Z1,5*
G04 #@! TO.N,/I+*
X17790000Y41485000D03*
G04 #@! TO.P,Z1,4*
G04 #@! TO.N,V+*
X15250000Y41485000D03*
G04 #@! TO.P,Z1,3*
G04 #@! TO.N,VIN*
X12710000Y41485000D03*
G04 #@! TO.P,Z1,2*
G04 #@! TO.N,/TWI_SDA*
X10170000Y41485000D03*
G04 #@! TO.P,Z1,1*
G04 #@! TO.N,/TWI_SCL*
X7630000Y41485000D03*
G04 #@! TD*
D13*
G04 #@! TO.P,D8,2*
G04 #@! TO.N,Net-(D8-Pad2)*
X40500000Y24900000D03*
D14*
G04 #@! TD*
G04 #@! TO.N,Net-(D8-Pad2)*
G04 #@! TO.C,D8*
G36*
X41100000Y25500000D02*
X41100000Y24700000D01*
X41099518Y24699518D01*
X41099518Y24680373D01*
X41095671Y24641308D01*
X41088013Y24602808D01*
X41076618Y24565244D01*
X41061596Y24528978D01*
X41043091Y24494359D01*
X41021283Y24461720D01*
X40996380Y24431376D01*
X40968624Y24403620D01*
X40938280Y24378717D01*
X40905641Y24356909D01*
X40871022Y24338404D01*
X40834756Y24323382D01*
X40797192Y24311987D01*
X40758692Y24304329D01*
X40719627Y24300482D01*
X40700482Y24300482D01*
X40700000Y24300000D01*
X40300000Y24300000D01*
X40299518Y24300482D01*
X40280373Y24300482D01*
X40241308Y24304329D01*
X40202808Y24311987D01*
X40165244Y24323382D01*
X40128978Y24338404D01*
X40094359Y24356909D01*
X40061720Y24378717D01*
X40031376Y24403620D01*
X40003620Y24431376D01*
X39978717Y24461720D01*
X39956909Y24494359D01*
X39938404Y24528978D01*
X39923382Y24565244D01*
X39911987Y24602808D01*
X39904329Y24641308D01*
X39900482Y24680373D01*
X39900482Y24699518D01*
X39900000Y24700000D01*
X39900000Y25500000D01*
X41100000Y25500000D01*
X41100000Y25500000D01*
G37*
D13*
G04 #@! TO.P,D8,1*
G04 #@! TO.N,GND*
X40500000Y27300000D03*
D14*
G04 #@! TD*
G04 #@! TO.N,GND*
G04 #@! TO.C,D8*
G36*
X39900000Y26700000D02*
X39900000Y27500000D01*
X39900482Y27500482D01*
X39900482Y27519627D01*
X39904329Y27558692D01*
X39911987Y27597192D01*
X39923382Y27634756D01*
X39938404Y27671022D01*
X39956909Y27705641D01*
X39978717Y27738280D01*
X40003620Y27768624D01*
X40031376Y27796380D01*
X40061720Y27821283D01*
X40094359Y27843091D01*
X40128978Y27861596D01*
X40165244Y27876618D01*
X40202808Y27888013D01*
X40241308Y27895671D01*
X40280373Y27899518D01*
X40299518Y27899518D01*
X40300000Y27900000D01*
X40700000Y27900000D01*
X40700482Y27899518D01*
X40719627Y27899518D01*
X40758692Y27895671D01*
X40797192Y27888013D01*
X40834756Y27876618D01*
X40871022Y27861596D01*
X40905641Y27843091D01*
X40938280Y27821283D01*
X40968624Y27796380D01*
X40996380Y27768624D01*
X41021283Y27738280D01*
X41043091Y27705641D01*
X41061596Y27671022D01*
X41076618Y27634756D01*
X41088013Y27597192D01*
X41095671Y27558692D01*
X41099518Y27519627D01*
X41099518Y27500482D01*
X41100000Y27500000D01*
X41100000Y26700000D01*
X39900000Y26700000D01*
X39900000Y26700000D01*
G37*
D13*
G04 #@! TO.P,D9,1*
G04 #@! TO.N,GND*
X40500000Y14200000D03*
D14*
G04 #@! TD*
G04 #@! TO.N,GND*
G04 #@! TO.C,D9*
G36*
X39900000Y13600000D02*
X39900000Y14400000D01*
X39900482Y14400482D01*
X39900482Y14419627D01*
X39904329Y14458692D01*
X39911987Y14497192D01*
X39923382Y14534756D01*
X39938404Y14571022D01*
X39956909Y14605641D01*
X39978717Y14638280D01*
X40003620Y14668624D01*
X40031376Y14696380D01*
X40061720Y14721283D01*
X40094359Y14743091D01*
X40128978Y14761596D01*
X40165244Y14776618D01*
X40202808Y14788013D01*
X40241308Y14795671D01*
X40280373Y14799518D01*
X40299518Y14799518D01*
X40300000Y14800000D01*
X40700000Y14800000D01*
X40700482Y14799518D01*
X40719627Y14799518D01*
X40758692Y14795671D01*
X40797192Y14788013D01*
X40834756Y14776618D01*
X40871022Y14761596D01*
X40905641Y14743091D01*
X40938280Y14721283D01*
X40968624Y14696380D01*
X40996380Y14668624D01*
X41021283Y14638280D01*
X41043091Y14605641D01*
X41061596Y14571022D01*
X41076618Y14534756D01*
X41088013Y14497192D01*
X41095671Y14458692D01*
X41099518Y14419627D01*
X41099518Y14400482D01*
X41100000Y14400000D01*
X41100000Y13600000D01*
X39900000Y13600000D01*
X39900000Y13600000D01*
G37*
D13*
G04 #@! TO.P,D9,2*
G04 #@! TO.N,Net-(D9-Pad2)*
X40500000Y11800000D03*
D14*
G04 #@! TD*
G04 #@! TO.N,Net-(D9-Pad2)*
G04 #@! TO.C,D9*
G36*
X41100000Y12400000D02*
X41100000Y11600000D01*
X41099518Y11599518D01*
X41099518Y11580373D01*
X41095671Y11541308D01*
X41088013Y11502808D01*
X41076618Y11465244D01*
X41061596Y11428978D01*
X41043091Y11394359D01*
X41021283Y11361720D01*
X40996380Y11331376D01*
X40968624Y11303620D01*
X40938280Y11278717D01*
X40905641Y11256909D01*
X40871022Y11238404D01*
X40834756Y11223382D01*
X40797192Y11211987D01*
X40758692Y11204329D01*
X40719627Y11200482D01*
X40700482Y11200482D01*
X40700000Y11200000D01*
X40300000Y11200000D01*
X40299518Y11200482D01*
X40280373Y11200482D01*
X40241308Y11204329D01*
X40202808Y11211987D01*
X40165244Y11223382D01*
X40128978Y11238404D01*
X40094359Y11256909D01*
X40061720Y11278717D01*
X40031376Y11303620D01*
X40003620Y11331376D01*
X39978717Y11361720D01*
X39956909Y11394359D01*
X39938404Y11428978D01*
X39923382Y11465244D01*
X39911987Y11502808D01*
X39904329Y11541308D01*
X39900482Y11580373D01*
X39900482Y11599518D01*
X39900000Y11600000D01*
X39900000Y12400000D01*
X41100000Y12400000D01*
X41100000Y12400000D01*
G37*
D13*
G04 #@! TO.P,D11,1*
G04 #@! TO.N,GND*
X40500000Y20000000D03*
D14*
G04 #@! TD*
G04 #@! TO.N,GND*
G04 #@! TO.C,D11*
G36*
X41100000Y20600000D02*
X41100000Y19800000D01*
X41099518Y19799518D01*
X41099518Y19780373D01*
X41095671Y19741308D01*
X41088013Y19702808D01*
X41076618Y19665244D01*
X41061596Y19628978D01*
X41043091Y19594359D01*
X41021283Y19561720D01*
X40996380Y19531376D01*
X40968624Y19503620D01*
X40938280Y19478717D01*
X40905641Y19456909D01*
X40871022Y19438404D01*
X40834756Y19423382D01*
X40797192Y19411987D01*
X40758692Y19404329D01*
X40719627Y19400482D01*
X40700482Y19400482D01*
X40700000Y19400000D01*
X40300000Y19400000D01*
X40299518Y19400482D01*
X40280373Y19400482D01*
X40241308Y19404329D01*
X40202808Y19411987D01*
X40165244Y19423382D01*
X40128978Y19438404D01*
X40094359Y19456909D01*
X40061720Y19478717D01*
X40031376Y19503620D01*
X40003620Y19531376D01*
X39978717Y19561720D01*
X39956909Y19594359D01*
X39938404Y19628978D01*
X39923382Y19665244D01*
X39911987Y19702808D01*
X39904329Y19741308D01*
X39900482Y19780373D01*
X39900482Y19799518D01*
X39900000Y19800000D01*
X39900000Y20600000D01*
X41100000Y20600000D01*
X41100000Y20600000D01*
G37*
D13*
G04 #@! TO.P,D11,2*
G04 #@! TO.N,Net-(D11-Pad2)*
X40500000Y22400000D03*
D14*
G04 #@! TD*
G04 #@! TO.N,Net-(D11-Pad2)*
G04 #@! TO.C,D11*
G36*
X39900000Y21800000D02*
X39900000Y22600000D01*
X39900482Y22600482D01*
X39900482Y22619627D01*
X39904329Y22658692D01*
X39911987Y22697192D01*
X39923382Y22734756D01*
X39938404Y22771022D01*
X39956909Y22805641D01*
X39978717Y22838280D01*
X40003620Y22868624D01*
X40031376Y22896380D01*
X40061720Y22921283D01*
X40094359Y22943091D01*
X40128978Y22961596D01*
X40165244Y22976618D01*
X40202808Y22988013D01*
X40241308Y22995671D01*
X40280373Y22999518D01*
X40299518Y22999518D01*
X40300000Y23000000D01*
X40700000Y23000000D01*
X40700482Y22999518D01*
X40719627Y22999518D01*
X40758692Y22995671D01*
X40797192Y22988013D01*
X40834756Y22976618D01*
X40871022Y22961596D01*
X40905641Y22943091D01*
X40938280Y22921283D01*
X40968624Y22896380D01*
X40996380Y22868624D01*
X41021283Y22838280D01*
X41043091Y22805641D01*
X41061596Y22771022D01*
X41076618Y22734756D01*
X41088013Y22697192D01*
X41095671Y22658692D01*
X41099518Y22619627D01*
X41099518Y22600482D01*
X41100000Y22600000D01*
X41100000Y21800000D01*
X39900000Y21800000D01*
X39900000Y21800000D01*
G37*
D13*
G04 #@! TO.P,D10,2*
G04 #@! TO.N,Net-(D10-Pad2)*
X2700000Y22400000D03*
D14*
G04 #@! TD*
G04 #@! TO.N,Net-(D10-Pad2)*
G04 #@! TO.C,D10*
G36*
X2100000Y21800000D02*
X2100000Y22600000D01*
X2100482Y22600482D01*
X2100482Y22619627D01*
X2104329Y22658692D01*
X2111987Y22697192D01*
X2123382Y22734756D01*
X2138404Y22771022D01*
X2156909Y22805641D01*
X2178717Y22838280D01*
X2203620Y22868624D01*
X2231376Y22896380D01*
X2261720Y22921283D01*
X2294359Y22943091D01*
X2328978Y22961596D01*
X2365244Y22976618D01*
X2402808Y22988013D01*
X2441308Y22995671D01*
X2480373Y22999518D01*
X2499518Y22999518D01*
X2500000Y23000000D01*
X2900000Y23000000D01*
X2900482Y22999518D01*
X2919627Y22999518D01*
X2958692Y22995671D01*
X2997192Y22988013D01*
X3034756Y22976618D01*
X3071022Y22961596D01*
X3105641Y22943091D01*
X3138280Y22921283D01*
X3168624Y22896380D01*
X3196380Y22868624D01*
X3221283Y22838280D01*
X3243091Y22805641D01*
X3261596Y22771022D01*
X3276618Y22734756D01*
X3288013Y22697192D01*
X3295671Y22658692D01*
X3299518Y22619627D01*
X3299518Y22600482D01*
X3300000Y22600000D01*
X3300000Y21800000D01*
X2100000Y21800000D01*
X2100000Y21800000D01*
G37*
D13*
G04 #@! TO.P,D10,1*
G04 #@! TO.N,GND*
X2700000Y20000000D03*
D14*
G04 #@! TD*
G04 #@! TO.N,GND*
G04 #@! TO.C,D10*
G36*
X3300000Y20600000D02*
X3300000Y19800000D01*
X3299518Y19799518D01*
X3299518Y19780373D01*
X3295671Y19741308D01*
X3288013Y19702808D01*
X3276618Y19665244D01*
X3261596Y19628978D01*
X3243091Y19594359D01*
X3221283Y19561720D01*
X3196380Y19531376D01*
X3168624Y19503620D01*
X3138280Y19478717D01*
X3105641Y19456909D01*
X3071022Y19438404D01*
X3034756Y19423382D01*
X2997192Y19411987D01*
X2958692Y19404329D01*
X2919627Y19400482D01*
X2900482Y19400482D01*
X2900000Y19400000D01*
X2500000Y19400000D01*
X2499518Y19400482D01*
X2480373Y19400482D01*
X2441308Y19404329D01*
X2402808Y19411987D01*
X2365244Y19423382D01*
X2328978Y19438404D01*
X2294359Y19456909D01*
X2261720Y19478717D01*
X2231376Y19503620D01*
X2203620Y19531376D01*
X2178717Y19561720D01*
X2156909Y19594359D01*
X2138404Y19628978D01*
X2123382Y19665244D01*
X2111987Y19702808D01*
X2104329Y19741308D01*
X2100482Y19780373D01*
X2100482Y19799518D01*
X2100000Y19800000D01*
X2100000Y20600000D01*
X3300000Y20600000D01*
X3300000Y20600000D01*
G37*
D13*
G04 #@! TO.P,D7,2*
G04 #@! TO.N,Net-(D7-Pad2)*
X2700000Y24900000D03*
D14*
G04 #@! TD*
G04 #@! TO.N,Net-(D7-Pad2)*
G04 #@! TO.C,D7*
G36*
X3300000Y25500000D02*
X3300000Y24700000D01*
X3299518Y24699518D01*
X3299518Y24680373D01*
X3295671Y24641308D01*
X3288013Y24602808D01*
X3276618Y24565244D01*
X3261596Y24528978D01*
X3243091Y24494359D01*
X3221283Y24461720D01*
X3196380Y24431376D01*
X3168624Y24403620D01*
X3138280Y24378717D01*
X3105641Y24356909D01*
X3071022Y24338404D01*
X3034756Y24323382D01*
X2997192Y24311987D01*
X2958692Y24304329D01*
X2919627Y24300482D01*
X2900482Y24300482D01*
X2900000Y24300000D01*
X2500000Y24300000D01*
X2499518Y24300482D01*
X2480373Y24300482D01*
X2441308Y24304329D01*
X2402808Y24311987D01*
X2365244Y24323382D01*
X2328978Y24338404D01*
X2294359Y24356909D01*
X2261720Y24378717D01*
X2231376Y24403620D01*
X2203620Y24431376D01*
X2178717Y24461720D01*
X2156909Y24494359D01*
X2138404Y24528978D01*
X2123382Y24565244D01*
X2111987Y24602808D01*
X2104329Y24641308D01*
X2100482Y24680373D01*
X2100482Y24699518D01*
X2100000Y24700000D01*
X2100000Y25500000D01*
X3300000Y25500000D01*
X3300000Y25500000D01*
G37*
D13*
G04 #@! TO.P,D7,1*
G04 #@! TO.N,GND*
X2700000Y27300000D03*
D14*
G04 #@! TD*
G04 #@! TO.N,GND*
G04 #@! TO.C,D7*
G36*
X2100000Y26700000D02*
X2100000Y27500000D01*
X2100482Y27500482D01*
X2100482Y27519627D01*
X2104329Y27558692D01*
X2111987Y27597192D01*
X2123382Y27634756D01*
X2138404Y27671022D01*
X2156909Y27705641D01*
X2178717Y27738280D01*
X2203620Y27768624D01*
X2231376Y27796380D01*
X2261720Y27821283D01*
X2294359Y27843091D01*
X2328978Y27861596D01*
X2365244Y27876618D01*
X2402808Y27888013D01*
X2441308Y27895671D01*
X2480373Y27899518D01*
X2499518Y27899518D01*
X2500000Y27900000D01*
X2900000Y27900000D01*
X2900482Y27899518D01*
X2919627Y27899518D01*
X2958692Y27895671D01*
X2997192Y27888013D01*
X3034756Y27876618D01*
X3071022Y27861596D01*
X3105641Y27843091D01*
X3138280Y27821283D01*
X3168624Y27796380D01*
X3196380Y27768624D01*
X3221283Y27738280D01*
X3243091Y27705641D01*
X3261596Y27671022D01*
X3276618Y27634756D01*
X3288013Y27597192D01*
X3295671Y27558692D01*
X3299518Y27519627D01*
X3299518Y27500482D01*
X3300000Y27500000D01*
X3300000Y26700000D01*
X2100000Y26700000D01*
X2100000Y26700000D01*
G37*
D13*
G04 #@! TO.P,D6,1*
G04 #@! TO.N,GND*
X2700000Y14200000D03*
D14*
G04 #@! TD*
G04 #@! TO.N,GND*
G04 #@! TO.C,D6*
G36*
X2100000Y13600000D02*
X2100000Y14400000D01*
X2100482Y14400482D01*
X2100482Y14419627D01*
X2104329Y14458692D01*
X2111987Y14497192D01*
X2123382Y14534756D01*
X2138404Y14571022D01*
X2156909Y14605641D01*
X2178717Y14638280D01*
X2203620Y14668624D01*
X2231376Y14696380D01*
X2261720Y14721283D01*
X2294359Y14743091D01*
X2328978Y14761596D01*
X2365244Y14776618D01*
X2402808Y14788013D01*
X2441308Y14795671D01*
X2480373Y14799518D01*
X2499518Y14799518D01*
X2500000Y14800000D01*
X2900000Y14800000D01*
X2900482Y14799518D01*
X2919627Y14799518D01*
X2958692Y14795671D01*
X2997192Y14788013D01*
X3034756Y14776618D01*
X3071022Y14761596D01*
X3105641Y14743091D01*
X3138280Y14721283D01*
X3168624Y14696380D01*
X3196380Y14668624D01*
X3221283Y14638280D01*
X3243091Y14605641D01*
X3261596Y14571022D01*
X3276618Y14534756D01*
X3288013Y14497192D01*
X3295671Y14458692D01*
X3299518Y14419627D01*
X3299518Y14400482D01*
X3300000Y14400000D01*
X3300000Y13600000D01*
X2100000Y13600000D01*
X2100000Y13600000D01*
G37*
D13*
G04 #@! TO.P,D6,2*
G04 #@! TO.N,Net-(D6-Pad2)*
X2700000Y11800000D03*
D14*
G04 #@! TD*
G04 #@! TO.N,Net-(D6-Pad2)*
G04 #@! TO.C,D6*
G36*
X3300000Y12400000D02*
X3300000Y11600000D01*
X3299518Y11599518D01*
X3299518Y11580373D01*
X3295671Y11541308D01*
X3288013Y11502808D01*
X3276618Y11465244D01*
X3261596Y11428978D01*
X3243091Y11394359D01*
X3221283Y11361720D01*
X3196380Y11331376D01*
X3168624Y11303620D01*
X3138280Y11278717D01*
X3105641Y11256909D01*
X3071022Y11238404D01*
X3034756Y11223382D01*
X2997192Y11211987D01*
X2958692Y11204329D01*
X2919627Y11200482D01*
X2900482Y11200482D01*
X2900000Y11200000D01*
X2500000Y11200000D01*
X2499518Y11200482D01*
X2480373Y11200482D01*
X2441308Y11204329D01*
X2402808Y11211987D01*
X2365244Y11223382D01*
X2328978Y11238404D01*
X2294359Y11256909D01*
X2261720Y11278717D01*
X2231376Y11303620D01*
X2203620Y11331376D01*
X2178717Y11361720D01*
X2156909Y11394359D01*
X2138404Y11428978D01*
X2123382Y11465244D01*
X2111987Y11502808D01*
X2104329Y11541308D01*
X2100482Y11580373D01*
X2100482Y11599518D01*
X2100000Y11600000D01*
X2100000Y12400000D01*
X3300000Y12400000D01*
X3300000Y12400000D01*
G37*
D15*
G04 #@! TO.N,GND*
X5100000Y37700000D03*
X38100000Y35900000D03*
X38100000Y37700000D03*
X12800000Y29200000D03*
X13980000Y21673000D03*
X5100000Y35900000D03*
X19300000Y16700000D03*
X23900000Y16700000D03*
X21600000Y39500000D03*
X33700000Y16720000D03*
X38700000Y20000000D03*
X38700000Y14200000D03*
X4500000Y14200000D03*
X4500000Y20000000D03*
X11700000Y10700000D03*
X10000000Y6300000D03*
X7800000Y6300000D03*
G04 #@! TO.N,TxD*
X31000000Y20000000D03*
X33030000Y35135000D03*
G04 #@! TO.N,SDA*
X17000000Y14400000D03*
X10170000Y35135000D03*
G04 #@! TO.N,RxD*
X35570000Y35135000D03*
X26200000Y14400000D03*
G04 #@! TO.N,SCL*
X17000000Y12400000D03*
X7630000Y35135000D03*
G04 #@! TO.N,SCLK*
X23200000Y21500000D03*
G04 #@! TO.N,SDIN*
X21600000Y19900000D03*
G04 #@! TO.N,VIN*
X14200000Y16100000D03*
X12710000Y36786000D03*
G04 #@! TO.N,DC*
X19300000Y19900000D03*
G04 #@! TO.N,RST*
X15100000Y29200000D03*
G04 #@! TO.N,SCE*
X17000000Y23600000D03*
G04 #@! TO.N,VCC*
X25100000Y29500000D03*
X26200000Y23600000D03*
X24500000Y7200000D03*
X18700000Y7200000D03*
X35500000Y19000000D03*
X35500000Y14400000D03*
G04 #@! TO.N,Net-(C10-Pad2)*
X13980000Y27007000D03*
G04 #@! TO.N,Net-(D6-Pad2)*
X6100000Y23070000D03*
G04 #@! TO.N,Net-(D7-Pad2)*
X6100000Y28150000D03*
G04 #@! TO.N,Net-(D8-Pad2)*
X37100000Y28150000D03*
G04 #@! TO.N,Net-(D9-Pad2)*
X37100000Y23070000D03*
G04 #@! TO.N,Net-(D11-Pad2)*
X37100000Y25610000D03*
G04 #@! TO.N,Net-(D10-Pad2)*
X6100000Y25610000D03*
G04 #@! TD*
D16*
G04 #@! TO.N,GND*
X18200000Y28500000D02*
X18200000Y32800000D01*
X19600000Y34200000D02*
X19600000Y36800000D01*
X13980000Y24280000D02*
X13980000Y21546000D01*
X18200000Y28500000D02*
X13980000Y24280000D01*
X19600000Y34200000D02*
X18200000Y32800000D01*
D17*
X13220000Y2115000D02*
X13220000Y4700000D01*
X29980000Y2115000D02*
X29980000Y4700000D01*
D18*
X30490000Y39580000D02*
X30490000Y41485000D01*
D16*
G04 #@! TO.N,TxD*
X33030000Y35135000D02*
X33030000Y22030000D01*
X33030000Y22030000D02*
X31000000Y20000000D01*
G04 #@! TO.N,SDA*
X9408000Y17500000D02*
X9408000Y33100000D01*
X17000000Y14400000D02*
X12508000Y14400000D01*
X12508000Y14400000D02*
X9408000Y17500000D01*
X9408000Y33100000D02*
X10170000Y33862000D01*
X10170000Y33862000D02*
X10170000Y35135000D01*
G04 #@! TO.N,RxD*
X26200000Y14400000D02*
X30100000Y18300000D01*
X30100000Y18300000D02*
X31700000Y18300000D01*
X35570000Y35135000D02*
X35570000Y33865000D01*
X31700000Y18305000D02*
X34600000Y21205000D01*
X31700000Y18300000D02*
X31700000Y18305000D01*
X34600000Y32895000D02*
X34600000Y21205000D01*
X35570000Y33865000D02*
X34600000Y32895000D01*
G04 #@! TO.N,SCL*
X8392000Y17008000D02*
X13000000Y12400000D01*
X13000000Y12400000D02*
X17000000Y12400000D01*
X8392000Y33100000D02*
X8392000Y17008000D01*
X8392000Y33100000D02*
X7630000Y33862000D01*
X7630000Y33862000D02*
X7630000Y35135000D01*
G04 #@! TO.N,SCLK*
X23200000Y30550000D02*
X23200000Y21500000D01*
X24600000Y36800000D02*
X24600000Y31950000D01*
X23200000Y30550000D02*
X24600000Y31950000D01*
G04 #@! TO.N,SDIN*
X22200000Y24400000D02*
X22200000Y31000000D01*
X23600000Y32400000D02*
X23600000Y36800000D01*
X21600000Y23800000D02*
X21600000Y19900000D01*
X22200000Y24400000D02*
X21600000Y23800000D01*
X22200000Y31000000D02*
X23600000Y32400000D01*
D17*
G04 #@! TO.N,VIN*
X10900000Y31290000D02*
X12710000Y33100000D01*
X12710000Y36786000D02*
X12710000Y33100000D01*
X10900000Y19400000D02*
X14200000Y16100000D01*
X10900000Y31290000D02*
X10900000Y19400000D01*
D16*
G04 #@! TO.N,DC*
X21200000Y31450000D02*
X21200000Y25600000D01*
X22600000Y36800000D02*
X22600000Y32850000D01*
X19300000Y23700000D02*
X19300000Y19900000D01*
X21200000Y25600000D02*
X19300000Y23700000D01*
X22600000Y32850000D02*
X21200000Y31450000D01*
G04 #@! TO.N,RST*
X16200000Y30300000D02*
X16200000Y33700000D01*
X17600000Y35100000D02*
X17600000Y36800000D01*
X17600000Y35100000D02*
X16200000Y33700000D01*
X15100000Y29200000D02*
X16200000Y30300000D01*
G04 #@! TO.N,SCE*
X21600000Y36800000D02*
X21600000Y33300000D01*
X20200000Y26800000D02*
X20200000Y31900000D01*
X20200000Y26800000D02*
X17000000Y23600000D01*
X21600000Y33300000D02*
X20200000Y31900000D01*
G04 #@! TO.N,VCC*
X19200000Y28000000D02*
X19200000Y32350000D01*
X25100000Y29500000D02*
X25100000Y31000000D01*
X25600000Y31500000D02*
X25600000Y36800000D01*
X20600000Y33750000D02*
X20600000Y36800000D01*
D17*
X26200000Y26000000D02*
X26200000Y23600000D01*
X25100000Y29500000D02*
X25100000Y27100000D01*
X25100000Y27100000D02*
X26200000Y26000000D01*
D16*
X25600000Y31500000D02*
X25100000Y31000000D01*
X19200000Y28000000D02*
X15500000Y24300000D01*
X20600000Y33750000D02*
X19200000Y32350000D01*
X20400000Y18300000D02*
X18000000Y18300000D01*
X18000000Y18300000D02*
X15500000Y20800000D01*
X15500000Y20800000D02*
X15500000Y24300000D01*
D17*
X26200000Y21700000D02*
X26200000Y23600000D01*
X26200000Y21700000D02*
X21600000Y17100000D01*
X35500000Y19000000D02*
X35500000Y14400000D01*
X35500000Y14400000D02*
X32100000Y14400000D01*
X32100000Y14400000D02*
X26400000Y8700000D01*
D16*
G04 #@! TO.N,Net-(C10-Pad2)*
X17200000Y29000000D02*
X17200000Y33250000D01*
X18600000Y34650000D02*
X18600000Y36800000D01*
X18600000Y34650000D02*
X17200000Y33250000D01*
X15207000Y27007000D02*
X13980000Y27007000D01*
X17200000Y29000000D02*
X15207000Y27007000D01*
G04 #@! TO.N,Net-(D6-Pad2)*
X6100000Y23070000D02*
X6100000Y13300000D01*
X4600000Y11800000D02*
X2700000Y11800000D01*
X6100000Y13300000D02*
X4600000Y11800000D01*
G04 #@! TO.N,Net-(D7-Pad2)*
X6100000Y28150000D02*
X2775000Y24825000D01*
G04 #@! TO.N,Net-(D8-Pad2)*
X37100000Y28150000D02*
X40425000Y24825000D01*
G04 #@! TO.N,Net-(D9-Pad2)*
X38600000Y11800000D02*
X40500000Y11800000D01*
X37100000Y13300000D02*
X38600000Y11800000D01*
X37100000Y23070000D02*
X37100000Y13300000D01*
G04 #@! TO.N,Net-(D11-Pad2)*
X37100000Y25610000D02*
X40405000Y22305000D01*
G04 #@! TO.N,Net-(D10-Pad2)*
X6100000Y25610000D02*
X2795000Y22305000D01*
G04 #@! TD*
D19*
G04 #@! TO.N,VCC*
G36*
X23100000Y18182842D02*
X22358579Y17441421D01*
X22333706Y17411114D01*
X22315224Y17376537D01*
X22303843Y17339018D01*
X22300000Y17300000D01*
X22300000Y10500000D01*
X22303843Y10460982D01*
X22315224Y10423463D01*
X22333706Y10388886D01*
X22358579Y10358579D01*
X23358579Y9358579D01*
X23388886Y9333706D01*
X23423463Y9315224D01*
X23460982Y9303843D01*
X23500000Y9300000D01*
X26500000Y9300000D01*
X26539018Y9303843D01*
X26576537Y9315224D01*
X26611114Y9333706D01*
X26641421Y9358579D01*
X30600000Y13317158D01*
X31000000Y12917158D01*
X31000000Y7082842D01*
X30517158Y6600000D01*
X18782842Y6600000D01*
X18300000Y7082842D01*
X18300000Y7617158D01*
X20841421Y10158579D01*
X20866294Y10188886D01*
X20884776Y10223463D01*
X20896157Y10260982D01*
X20900000Y10300000D01*
X20900000Y17300000D01*
X20896157Y17339018D01*
X20884776Y17376537D01*
X20866294Y17411114D01*
X20841421Y17441421D01*
X20100000Y18182842D01*
X20100000Y18400000D01*
X23100000Y18400000D01*
X23100000Y18182842D01*
X23100000Y18182842D01*
G37*
X23100000Y18182842D02*
X22358579Y17441421D01*
X22333706Y17411114D01*
X22315224Y17376537D01*
X22303843Y17339018D01*
X22300000Y17300000D01*
X22300000Y10500000D01*
X22303843Y10460982D01*
X22315224Y10423463D01*
X22333706Y10388886D01*
X22358579Y10358579D01*
X23358579Y9358579D01*
X23388886Y9333706D01*
X23423463Y9315224D01*
X23460982Y9303843D01*
X23500000Y9300000D01*
X26500000Y9300000D01*
X26539018Y9303843D01*
X26576537Y9315224D01*
X26611114Y9333706D01*
X26641421Y9358579D01*
X30600000Y13317158D01*
X31000000Y12917158D01*
X31000000Y7082842D01*
X30517158Y6600000D01*
X18782842Y6600000D01*
X18300000Y7082842D01*
X18300000Y7617158D01*
X20841421Y10158579D01*
X20866294Y10188886D01*
X20884776Y10223463D01*
X20896157Y10260982D01*
X20900000Y10300000D01*
X20900000Y17300000D01*
X20896157Y17339018D01*
X20884776Y17376537D01*
X20866294Y17411114D01*
X20841421Y17441421D01*
X20100000Y18182842D01*
X20100000Y18400000D01*
X23100000Y18400000D01*
X23100000Y18182842D01*
G04 #@! TO.N,GND*
G36*
X14550000Y21617158D02*
X14550000Y20450000D01*
X14553843Y20410982D01*
X14565224Y20373463D01*
X14583706Y20338886D01*
X14608579Y20308579D01*
X17558579Y17358579D01*
X17588886Y17333706D01*
X17623463Y17315224D01*
X17660982Y17303843D01*
X17700000Y17300000D01*
X19617158Y17300000D01*
X19900000Y17017158D01*
X19900000Y10682842D01*
X17158579Y7941421D01*
X17133706Y7911114D01*
X17115224Y7876537D01*
X17103843Y7839018D01*
X17100000Y7800000D01*
X17100000Y6700000D01*
X17103843Y6660982D01*
X17115224Y6623463D01*
X17133706Y6588886D01*
X17158579Y6558579D01*
X18058579Y5658579D01*
X18088886Y5633706D01*
X18123463Y5615224D01*
X18160982Y5603843D01*
X18200000Y5600000D01*
X31750000Y5600000D01*
X31789018Y5603843D01*
X31826537Y5615224D01*
X31861114Y5633706D01*
X31891421Y5658579D01*
X32191421Y5958579D01*
X32216294Y5988886D01*
X32234776Y6023463D01*
X32246157Y6060982D01*
X32250000Y6100000D01*
X32250000Y6467158D01*
X33132842Y7350000D01*
X33800000Y7350000D01*
X33839018Y7353843D01*
X33876537Y7365224D01*
X33911114Y7383706D01*
X33941421Y7408579D01*
X34160881Y7628039D01*
X37400000Y7628039D01*
X37400000Y7371961D01*
X37449958Y7120804D01*
X37547955Y6884219D01*
X37690224Y6671298D01*
X37871298Y6490224D01*
X38084219Y6347955D01*
X38320804Y6249958D01*
X38571961Y6200000D01*
X38828039Y6200000D01*
X39079196Y6249958D01*
X39315781Y6347955D01*
X39528702Y6490224D01*
X39709776Y6671298D01*
X39852045Y6884219D01*
X39950042Y7120804D01*
X40000000Y7371961D01*
X40000000Y7628039D01*
X39950042Y7879196D01*
X39852045Y8115781D01*
X39709776Y8328702D01*
X39528702Y8509776D01*
X39315781Y8652045D01*
X39079196Y8750042D01*
X38828039Y8800000D01*
X38571961Y8800000D01*
X38320804Y8750042D01*
X38084219Y8652045D01*
X37871298Y8509776D01*
X37690224Y8328702D01*
X37547955Y8115781D01*
X37449958Y7879196D01*
X37400000Y7628039D01*
X34160881Y7628039D01*
X36732842Y10200000D01*
X39717158Y10200000D01*
X40450000Y9467158D01*
X40450000Y2282842D01*
X40150000Y1982842D01*
X39850000Y2282842D01*
X39850000Y3950000D01*
X39846157Y3989018D01*
X39834776Y4026537D01*
X39816294Y4061114D01*
X39791421Y4091421D01*
X39541421Y4341421D01*
X39511114Y4366294D01*
X39476537Y4384776D01*
X39439018Y4396157D01*
X39400000Y4400000D01*
X30700000Y4400000D01*
X30660982Y4396157D01*
X30623463Y4384776D01*
X30588886Y4366294D01*
X30558579Y4341421D01*
X30217158Y4000000D01*
X29732842Y4000000D01*
X29391421Y4341421D01*
X29361114Y4366294D01*
X29326537Y4384776D01*
X29289018Y4396157D01*
X29250000Y4400000D01*
X13900000Y4400000D01*
X13860982Y4396157D01*
X13823463Y4384776D01*
X13788886Y4366294D01*
X13758579Y4341421D01*
X13417158Y4000000D01*
X12982842Y4000000D01*
X12641421Y4341421D01*
X12611114Y4366294D01*
X12576537Y4384776D01*
X12539018Y4396157D01*
X12500000Y4400000D01*
X3800000Y4400000D01*
X3760982Y4396157D01*
X3723463Y4384776D01*
X3688886Y4366294D01*
X3658579Y4341421D01*
X3408579Y4091421D01*
X3383706Y4061114D01*
X3365224Y4026537D01*
X3353843Y3989018D01*
X3350000Y3950000D01*
X3350000Y2282842D01*
X3050000Y1982842D01*
X2750000Y2282842D01*
X2750000Y8067158D01*
X7682842Y13000000D01*
X10517158Y13000000D01*
X12558579Y10958579D01*
X12588886Y10933706D01*
X12623463Y10915224D01*
X12660982Y10903843D01*
X12700000Y10900000D01*
X17700000Y10900000D01*
X17739018Y10903843D01*
X17776537Y10915224D01*
X17811114Y10933706D01*
X17841421Y10958579D01*
X18441421Y11558579D01*
X18466294Y11588886D01*
X18484776Y11623463D01*
X18496157Y11660982D01*
X18500000Y11700000D01*
X18500000Y15000000D01*
X18496157Y15039018D01*
X18484776Y15076537D01*
X18466294Y15111114D01*
X18441421Y15141421D01*
X17741421Y15841421D01*
X17711114Y15866294D01*
X17676537Y15884776D01*
X17639018Y15896157D01*
X17600000Y15900000D01*
X16782842Y15900000D01*
X13400000Y19282842D01*
X13400000Y21567158D01*
X13732842Y21900000D01*
X14267158Y21900000D01*
X14550000Y21617158D01*
X14550000Y21617158D01*
G37*
X14550000Y21617158D02*
X14550000Y20450000D01*
X14553843Y20410982D01*
X14565224Y20373463D01*
X14583706Y20338886D01*
X14608579Y20308579D01*
X17558579Y17358579D01*
X17588886Y17333706D01*
X17623463Y17315224D01*
X17660982Y17303843D01*
X17700000Y17300000D01*
X19617158Y17300000D01*
X19900000Y17017158D01*
X19900000Y10682842D01*
X17158579Y7941421D01*
X17133706Y7911114D01*
X17115224Y7876537D01*
X17103843Y7839018D01*
X17100000Y7800000D01*
X17100000Y6700000D01*
X17103843Y6660982D01*
X17115224Y6623463D01*
X17133706Y6588886D01*
X17158579Y6558579D01*
X18058579Y5658579D01*
X18088886Y5633706D01*
X18123463Y5615224D01*
X18160982Y5603843D01*
X18200000Y5600000D01*
X31750000Y5600000D01*
X31789018Y5603843D01*
X31826537Y5615224D01*
X31861114Y5633706D01*
X31891421Y5658579D01*
X32191421Y5958579D01*
X32216294Y5988886D01*
X32234776Y6023463D01*
X32246157Y6060982D01*
X32250000Y6100000D01*
X32250000Y6467158D01*
X33132842Y7350000D01*
X33800000Y7350000D01*
X33839018Y7353843D01*
X33876537Y7365224D01*
X33911114Y7383706D01*
X33941421Y7408579D01*
X34160881Y7628039D01*
X37400000Y7628039D01*
X37400000Y7371961D01*
X37449958Y7120804D01*
X37547955Y6884219D01*
X37690224Y6671298D01*
X37871298Y6490224D01*
X38084219Y6347955D01*
X38320804Y6249958D01*
X38571961Y6200000D01*
X38828039Y6200000D01*
X39079196Y6249958D01*
X39315781Y6347955D01*
X39528702Y6490224D01*
X39709776Y6671298D01*
X39852045Y6884219D01*
X39950042Y7120804D01*
X40000000Y7371961D01*
X40000000Y7628039D01*
X39950042Y7879196D01*
X39852045Y8115781D01*
X39709776Y8328702D01*
X39528702Y8509776D01*
X39315781Y8652045D01*
X39079196Y8750042D01*
X38828039Y8800000D01*
X38571961Y8800000D01*
X38320804Y8750042D01*
X38084219Y8652045D01*
X37871298Y8509776D01*
X37690224Y8328702D01*
X37547955Y8115781D01*
X37449958Y7879196D01*
X37400000Y7628039D01*
X34160881Y7628039D01*
X36732842Y10200000D01*
X39717158Y10200000D01*
X40450000Y9467158D01*
X40450000Y2282842D01*
X40150000Y1982842D01*
X39850000Y2282842D01*
X39850000Y3950000D01*
X39846157Y3989018D01*
X39834776Y4026537D01*
X39816294Y4061114D01*
X39791421Y4091421D01*
X39541421Y4341421D01*
X39511114Y4366294D01*
X39476537Y4384776D01*
X39439018Y4396157D01*
X39400000Y4400000D01*
X30700000Y4400000D01*
X30660982Y4396157D01*
X30623463Y4384776D01*
X30588886Y4366294D01*
X30558579Y4341421D01*
X30217158Y4000000D01*
X29732842Y4000000D01*
X29391421Y4341421D01*
X29361114Y4366294D01*
X29326537Y4384776D01*
X29289018Y4396157D01*
X29250000Y4400000D01*
X13900000Y4400000D01*
X13860982Y4396157D01*
X13823463Y4384776D01*
X13788886Y4366294D01*
X13758579Y4341421D01*
X13417158Y4000000D01*
X12982842Y4000000D01*
X12641421Y4341421D01*
X12611114Y4366294D01*
X12576537Y4384776D01*
X12539018Y4396157D01*
X12500000Y4400000D01*
X3800000Y4400000D01*
X3760982Y4396157D01*
X3723463Y4384776D01*
X3688886Y4366294D01*
X3658579Y4341421D01*
X3408579Y4091421D01*
X3383706Y4061114D01*
X3365224Y4026537D01*
X3353843Y3989018D01*
X3350000Y3950000D01*
X3350000Y2282842D01*
X3050000Y1982842D01*
X2750000Y2282842D01*
X2750000Y8067158D01*
X7682842Y13000000D01*
X10517158Y13000000D01*
X12558579Y10958579D01*
X12588886Y10933706D01*
X12623463Y10915224D01*
X12660982Y10903843D01*
X12700000Y10900000D01*
X17700000Y10900000D01*
X17739018Y10903843D01*
X17776537Y10915224D01*
X17811114Y10933706D01*
X17841421Y10958579D01*
X18441421Y11558579D01*
X18466294Y11588886D01*
X18484776Y11623463D01*
X18496157Y11660982D01*
X18500000Y11700000D01*
X18500000Y15000000D01*
X18496157Y15039018D01*
X18484776Y15076537D01*
X18466294Y15111114D01*
X18441421Y15141421D01*
X17741421Y15841421D01*
X17711114Y15866294D01*
X17676537Y15884776D01*
X17639018Y15896157D01*
X17600000Y15900000D01*
X16782842Y15900000D01*
X13400000Y19282842D01*
X13400000Y21567158D01*
X13732842Y21900000D01*
X14267158Y21900000D01*
X14550000Y21617158D01*
G36*
X31858579Y39858579D02*
X31888886Y39833706D01*
X31923463Y39815224D01*
X31960982Y39803843D01*
X32000000Y39800000D01*
X40017158Y39800000D01*
X40300000Y39517158D01*
X40300000Y28300000D01*
X40303843Y28260982D01*
X40315224Y28223463D01*
X40333706Y28188886D01*
X40358579Y28158579D01*
X40900000Y27617158D01*
X40900000Y26900000D01*
X40582842Y26900000D01*
X37100000Y30382842D01*
X37100000Y35900000D01*
X37096157Y35939018D01*
X37084776Y35976537D01*
X37066294Y36011114D01*
X37041421Y36041421D01*
X36441421Y36641421D01*
X36411114Y36666294D01*
X36376537Y36684776D01*
X36339018Y36696157D01*
X36300000Y36700000D01*
X32300000Y36700000D01*
X32260982Y36696157D01*
X32223463Y36684776D01*
X32188886Y36666294D01*
X32158579Y36641421D01*
X31558579Y36041421D01*
X31533706Y36011114D01*
X31515224Y35976537D01*
X31503843Y35939018D01*
X31500000Y35900000D01*
X31500000Y22882842D01*
X29358579Y20741421D01*
X29333706Y20711114D01*
X29315224Y20676537D01*
X29303843Y20639018D01*
X29300000Y20600000D01*
X29300000Y19682842D01*
X24758579Y15141421D01*
X24733706Y15111114D01*
X24715224Y15076537D01*
X24703843Y15039018D01*
X24700000Y15000000D01*
X24700000Y13800000D01*
X24703843Y13760982D01*
X24715224Y13723463D01*
X24733706Y13688886D01*
X24758579Y13658579D01*
X25458579Y12958579D01*
X25488886Y12933706D01*
X25523463Y12915224D01*
X25560982Y12903843D01*
X25600000Y12900000D01*
X26800000Y12900000D01*
X26839018Y12903843D01*
X26876537Y12915224D01*
X26911114Y12933706D01*
X26941421Y12958579D01*
X31082842Y17100000D01*
X33617158Y17100000D01*
X34017158Y16700000D01*
X33617158Y16300000D01*
X32200000Y16300000D01*
X32160982Y16296157D01*
X32123463Y16284776D01*
X32088886Y16266294D01*
X32058579Y16241421D01*
X26117158Y10300000D01*
X23782842Y10300000D01*
X23300000Y10782842D01*
X23300000Y16652787D01*
X23564371Y17181529D01*
X27641421Y21258579D01*
X27666294Y21288886D01*
X27684776Y21323463D01*
X27696157Y21360982D01*
X27700000Y21400000D01*
X27700000Y26600000D01*
X27696157Y26639018D01*
X27684776Y26676537D01*
X27666294Y26711114D01*
X27641421Y26741421D01*
X26900000Y27482842D01*
X26900000Y38400000D01*
X26896157Y38439018D01*
X26884776Y38476537D01*
X26866294Y38511114D01*
X26841421Y38541421D01*
X26241421Y39141421D01*
X26211114Y39166294D01*
X26176537Y39184776D01*
X26139018Y39196157D01*
X26100000Y39200000D01*
X17200000Y39200000D01*
X17160982Y39196157D01*
X17123463Y39184776D01*
X17088886Y39166294D01*
X17058579Y39141421D01*
X16358579Y38441421D01*
X16333706Y38411114D01*
X16315224Y38376537D01*
X16303843Y38339018D01*
X16300000Y38300000D01*
X16300000Y35682842D01*
X15058579Y34441421D01*
X15033706Y34411114D01*
X15015224Y34376537D01*
X15003843Y34339018D01*
X15000000Y34300000D01*
X15000000Y32082842D01*
X13258579Y30341421D01*
X13233706Y30311114D01*
X13215224Y30276537D01*
X13203843Y30239018D01*
X13200000Y30200000D01*
X13200000Y29382842D01*
X12800000Y28982842D01*
X12400000Y29382842D01*
X12400000Y30617158D01*
X14141421Y32358579D01*
X14166294Y32388886D01*
X14184776Y32423463D01*
X14196157Y32460982D01*
X14200000Y32500000D01*
X14200000Y37400000D01*
X14196157Y37439018D01*
X14184776Y37476537D01*
X14166294Y37511114D01*
X14141421Y37541421D01*
X13441421Y38241421D01*
X13411114Y38266294D01*
X13376537Y38284776D01*
X13339018Y38296157D01*
X13300000Y38300000D01*
X12100000Y38300000D01*
X12060982Y38296157D01*
X12023463Y38284776D01*
X11988886Y38266294D01*
X11958579Y38241421D01*
X10417158Y36700000D01*
X7000000Y36700000D01*
X6960982Y36696157D01*
X6923463Y36684776D01*
X6888886Y36666294D01*
X6858579Y36641421D01*
X6158579Y35941421D01*
X6133706Y35911114D01*
X6115224Y35876537D01*
X6103843Y35839018D01*
X6100000Y35800000D01*
X6100000Y30382842D01*
X2617158Y26900000D01*
X2300000Y26900000D01*
X2300000Y27617158D01*
X2841421Y28158579D01*
X2866294Y28188886D01*
X2884776Y28223463D01*
X2896157Y28260982D01*
X2900000Y28300000D01*
X2900000Y33228039D01*
X3200000Y33228039D01*
X3200000Y32971961D01*
X3249958Y32720804D01*
X3347955Y32484219D01*
X3490224Y32271298D01*
X3671298Y32090224D01*
X3884219Y31947955D01*
X4120804Y31849958D01*
X4371961Y31800000D01*
X4628039Y31800000D01*
X4879196Y31849958D01*
X5115781Y31947955D01*
X5328702Y32090224D01*
X5509776Y32271298D01*
X5652045Y32484219D01*
X5750042Y32720804D01*
X5800000Y32971961D01*
X5800000Y33228039D01*
X5750042Y33479196D01*
X5652045Y33715781D01*
X5509776Y33928702D01*
X5328702Y34109776D01*
X5115781Y34252045D01*
X4879196Y34350042D01*
X4628039Y34400000D01*
X4371961Y34400000D01*
X4120804Y34350042D01*
X3884219Y34252045D01*
X3671298Y34109776D01*
X3490224Y33928702D01*
X3347955Y33715781D01*
X3249958Y33479196D01*
X3200000Y33228039D01*
X2900000Y33228039D01*
X2900000Y39517158D01*
X3182842Y39800000D01*
X29000000Y39800000D01*
X29039018Y39803843D01*
X29076537Y39815224D01*
X29111114Y39833706D01*
X29141421Y39858579D01*
X29682842Y40400000D01*
X31317158Y40400000D01*
X31858579Y39858579D01*
X31858579Y39858579D01*
G37*
X31858579Y39858579D02*
X31888886Y39833706D01*
X31923463Y39815224D01*
X31960982Y39803843D01*
X32000000Y39800000D01*
X40017158Y39800000D01*
X40300000Y39517158D01*
X40300000Y28300000D01*
X40303843Y28260982D01*
X40315224Y28223463D01*
X40333706Y28188886D01*
X40358579Y28158579D01*
X40900000Y27617158D01*
X40900000Y26900000D01*
X40582842Y26900000D01*
X37100000Y30382842D01*
X37100000Y35900000D01*
X37096157Y35939018D01*
X37084776Y35976537D01*
X37066294Y36011114D01*
X37041421Y36041421D01*
X36441421Y36641421D01*
X36411114Y36666294D01*
X36376537Y36684776D01*
X36339018Y36696157D01*
X36300000Y36700000D01*
X32300000Y36700000D01*
X32260982Y36696157D01*
X32223463Y36684776D01*
X32188886Y36666294D01*
X32158579Y36641421D01*
X31558579Y36041421D01*
X31533706Y36011114D01*
X31515224Y35976537D01*
X31503843Y35939018D01*
X31500000Y35900000D01*
X31500000Y22882842D01*
X29358579Y20741421D01*
X29333706Y20711114D01*
X29315224Y20676537D01*
X29303843Y20639018D01*
X29300000Y20600000D01*
X29300000Y19682842D01*
X24758579Y15141421D01*
X24733706Y15111114D01*
X24715224Y15076537D01*
X24703843Y15039018D01*
X24700000Y15000000D01*
X24700000Y13800000D01*
X24703843Y13760982D01*
X24715224Y13723463D01*
X24733706Y13688886D01*
X24758579Y13658579D01*
X25458579Y12958579D01*
X25488886Y12933706D01*
X25523463Y12915224D01*
X25560982Y12903843D01*
X25600000Y12900000D01*
X26800000Y12900000D01*
X26839018Y12903843D01*
X26876537Y12915224D01*
X26911114Y12933706D01*
X26941421Y12958579D01*
X31082842Y17100000D01*
X33617158Y17100000D01*
X34017158Y16700000D01*
X33617158Y16300000D01*
X32200000Y16300000D01*
X32160982Y16296157D01*
X32123463Y16284776D01*
X32088886Y16266294D01*
X32058579Y16241421D01*
X26117158Y10300000D01*
X23782842Y10300000D01*
X23300000Y10782842D01*
X23300000Y16652787D01*
X23564371Y17181529D01*
X27641421Y21258579D01*
X27666294Y21288886D01*
X27684776Y21323463D01*
X27696157Y21360982D01*
X27700000Y21400000D01*
X27700000Y26600000D01*
X27696157Y26639018D01*
X27684776Y26676537D01*
X27666294Y26711114D01*
X27641421Y26741421D01*
X26900000Y27482842D01*
X26900000Y38400000D01*
X26896157Y38439018D01*
X26884776Y38476537D01*
X26866294Y38511114D01*
X26841421Y38541421D01*
X26241421Y39141421D01*
X26211114Y39166294D01*
X26176537Y39184776D01*
X26139018Y39196157D01*
X26100000Y39200000D01*
X17200000Y39200000D01*
X17160982Y39196157D01*
X17123463Y39184776D01*
X17088886Y39166294D01*
X17058579Y39141421D01*
X16358579Y38441421D01*
X16333706Y38411114D01*
X16315224Y38376537D01*
X16303843Y38339018D01*
X16300000Y38300000D01*
X16300000Y35682842D01*
X15058579Y34441421D01*
X15033706Y34411114D01*
X15015224Y34376537D01*
X15003843Y34339018D01*
X15000000Y34300000D01*
X15000000Y32082842D01*
X13258579Y30341421D01*
X13233706Y30311114D01*
X13215224Y30276537D01*
X13203843Y30239018D01*
X13200000Y30200000D01*
X13200000Y29382842D01*
X12800000Y28982842D01*
X12400000Y29382842D01*
X12400000Y30617158D01*
X14141421Y32358579D01*
X14166294Y32388886D01*
X14184776Y32423463D01*
X14196157Y32460982D01*
X14200000Y32500000D01*
X14200000Y37400000D01*
X14196157Y37439018D01*
X14184776Y37476537D01*
X14166294Y37511114D01*
X14141421Y37541421D01*
X13441421Y38241421D01*
X13411114Y38266294D01*
X13376537Y38284776D01*
X13339018Y38296157D01*
X13300000Y38300000D01*
X12100000Y38300000D01*
X12060982Y38296157D01*
X12023463Y38284776D01*
X11988886Y38266294D01*
X11958579Y38241421D01*
X10417158Y36700000D01*
X7000000Y36700000D01*
X6960982Y36696157D01*
X6923463Y36684776D01*
X6888886Y36666294D01*
X6858579Y36641421D01*
X6158579Y35941421D01*
X6133706Y35911114D01*
X6115224Y35876537D01*
X6103843Y35839018D01*
X6100000Y35800000D01*
X6100000Y30382842D01*
X2617158Y26900000D01*
X2300000Y26900000D01*
X2300000Y27617158D01*
X2841421Y28158579D01*
X2866294Y28188886D01*
X2884776Y28223463D01*
X2896157Y28260982D01*
X2900000Y28300000D01*
X2900000Y33228039D01*
X3200000Y33228039D01*
X3200000Y32971961D01*
X3249958Y32720804D01*
X3347955Y32484219D01*
X3490224Y32271298D01*
X3671298Y32090224D01*
X3884219Y31947955D01*
X4120804Y31849958D01*
X4371961Y31800000D01*
X4628039Y31800000D01*
X4879196Y31849958D01*
X5115781Y31947955D01*
X5328702Y32090224D01*
X5509776Y32271298D01*
X5652045Y32484219D01*
X5750042Y32720804D01*
X5800000Y32971961D01*
X5800000Y33228039D01*
X5750042Y33479196D01*
X5652045Y33715781D01*
X5509776Y33928702D01*
X5328702Y34109776D01*
X5115781Y34252045D01*
X4879196Y34350042D01*
X4628039Y34400000D01*
X4371961Y34400000D01*
X4120804Y34350042D01*
X3884219Y34252045D01*
X3671298Y34109776D01*
X3490224Y33928702D01*
X3347955Y33715781D01*
X3249958Y33479196D01*
X3200000Y33228039D01*
X2900000Y33228039D01*
X2900000Y39517158D01*
X3182842Y39800000D01*
X29000000Y39800000D01*
X29039018Y39803843D01*
X29076537Y39815224D01*
X29111114Y39833706D01*
X29141421Y39858579D01*
X29682842Y40400000D01*
X31317158Y40400000D01*
X31858579Y39858579D01*
G36*
X40466667Y19600000D02*
X38782842Y19600000D01*
X38382842Y20000000D01*
X38782842Y20400000D01*
X40800000Y20400000D01*
X40466667Y19600000D01*
X40466667Y19600000D01*
G37*
X40466667Y19600000D02*
X38782842Y19600000D01*
X38382842Y20000000D01*
X38782842Y20400000D01*
X40800000Y20400000D01*
X40466667Y19600000D01*
G36*
X40776393Y13800000D02*
X38782842Y13800000D01*
X38382842Y14200000D01*
X38782842Y14600000D01*
X40376393Y14600000D01*
X40776393Y13800000D01*
X40776393Y13800000D01*
G37*
X40776393Y13800000D02*
X38782842Y13800000D01*
X38382842Y14200000D01*
X38782842Y14600000D01*
X40376393Y14600000D01*
X40776393Y13800000D01*
G36*
X4817158Y20000000D02*
X4417158Y19600000D01*
X2733333Y19600000D01*
X2400000Y20400000D01*
X4417158Y20400000D01*
X4817158Y20000000D01*
X4817158Y20000000D01*
G37*
X4817158Y20000000D02*
X4417158Y19600000D01*
X2733333Y19600000D01*
X2400000Y20400000D01*
X4417158Y20400000D01*
X4817158Y20000000D01*
G36*
X4817158Y14200000D02*
X4417158Y13800000D01*
X2300000Y13800000D01*
X2300000Y14217158D01*
X2682842Y14600000D01*
X4417158Y14600000D01*
X4817158Y14200000D01*
X4817158Y14200000D01*
G37*
X4817158Y14200000D02*
X4417158Y13800000D01*
X2300000Y13800000D01*
X2300000Y14217158D01*
X2682842Y14600000D01*
X4417158Y14600000D01*
X4817158Y14200000D01*
G04 #@! TD*
M02*
